<svg xmlns="http://www.w3.org/2000/svg" width="120px" height="62px" viewBox="0 0 120 62"><defs><style>.cls-1{fill:#fff;}.cls-2{fill:#a6a6a6;}.cls-3{fill:#c2c2c2;}.cls-4{fill:#d9d9d9;}.cls-5{fill:#e6e6e6;}</style></defs><title>b-io</title><g id="Layer_2" data-name="Layer 2"><g id="Lab_Page" data-name="Lab Page"><g id="Blocks"><rect class="cls-1" width="120" height="62"/><polygon class="cls-2" points="100.64 61.97 0 61.97 19.36 0.03 120 0.03 100.64 61.97"/><path class="cls-3" d="M109,14.82,96.87,51.25a7.52,7.52,0,0,1-7.24,4.91H18.22c-5.09,0-8.73-4.51-7.24-9L22.83,11.65l.3-.9a7.52,7.52,0,0,1,7.24-4.91h71.41a7.41,7.41,0,0,1,7.47,5.81A6.52,6.52,0,0,1,109,14.82Z"/><path class="cls-4" d="M109.25,11.65H22.83l.3-.9a7.52,7.52,0,0,1,7.24-4.91h71.41A7.41,7.41,0,0,1,109.25,11.65Z"/><rect class="cls-5" x="18.39" y="46.97" width="55.11" height="4.84"/><rect class="cls-5" x="80.19" y="46.97" width="7.87" height="4.84"/></g></g></g></svg>