<svg xmlns="http://www.w3.org/2000/svg" width="120px" height="62px" viewBox="0 0 120 62"><defs><style>.cls-1{fill:#a6a6a6;}.cls-2{fill:#c2c2c2;}.cls-3{fill:#d9d9d9;}.cls-4{fill:#e6e6e6;}</style></defs><title>b-operations</title><g id="Layer_2" data-name="Layer 2"><g id="Lab_Page" data-name="Lab Page"><g id="Blocks"><rect class="cls-1" x="0.09" y="0.15" width="119.82" height="61.7" transform="translate(-0.08 0.15) rotate(-0.14)"/><path class="cls-2" d="M113.2,49.13l-.11-36.52a7.6,7.6,0,0,0-7.9-7.28l-90.54.22A7.6,7.6,0,0,0,6.8,12.87l.11,36.52a6.25,6.25,0,0,0,.06.87,7.69,7.69,0,0,0,7.84,6.41l90.54-.22A7.67,7.67,0,0,0,113.14,50,6.11,6.11,0,0,0,113.2,49.13Z"/><path class="cls-3" d="M113,11.7,6.86,12a7.67,7.67,0,0,1,7.79-6.45l90.54-.23A7.69,7.69,0,0,1,113,11.7Z"/><rect class="cls-4" x="17.3" y="48.21" width="67.64" height="4.41" transform="translate(-0.12 0.13) rotate(-0.14)"/><rect class="cls-4" x="93.15" y="48.09" width="9.66" height="4.41" transform="translate(-0.12 0.24) rotate(-0.14)"/></g></g></g></svg>