<svg xmlns="http://www.w3.org/2000/svg" xmlns:xlink="http://www.w3.org/1999/xlink" viewBox="0 0 304.5 64.5"><defs><style>.cls-1,.cls-8{fill:#381e14;}.cls-2{fill:#141414;}.cls-3{fill:#542f1f;}.cls-4{fill:#693b27;}.cls-5{fill:#78422c;}.cls-6{font-size:18px;fill:#f0f0f0;}.cls-6,.cls-8{font-family:ThaiSansNeue-Black, ThaiSans Neue;font-weight:800;}.cls-7{letter-spacing:-0.02em;}.cls-8{font-size:54.96px;stroke:#381e14;stroke-miterlimit:10;}.cls-9{letter-spacing:-0.02em;}.cls-10{fill:url(#linear-gradient);}.cls-11{fill:url(#linear-gradient-2);}.cls-12{fill:url(#linear-gradient-3);}</style><linearGradient id="linear-gradient" x1="262.75" y1="33.55" x2="262.75" y2="54.95" gradientUnits="userSpaceOnUse"><stop offset="0" stop-color="#81ef37"/><stop offset="1" stop-color="#00d13b"/></linearGradient><linearGradient id="linear-gradient-2" x1="279.15" y1="33.55" x2="279.15" y2="54.95" xlink:href="#linear-gradient"/><linearGradient id="linear-gradient-3" x1="297.42" y1="33.55" x2="297.42" y2="55.16" xlink:href="#linear-gradient"/></defs><title>LOGO-Lab</title><g id="Layer_2" data-name="Layer 2"><g id="Lab_Page" data-name="Lab Page"><g id="Navbar"><rect class="cls-1" y="11.42" width="53.29" height="35.02"/><rect class="cls-2" x="21.01" width="12.04" height="5.07"/><polygon class="cls-2" points="35.78 5.07 33.04 8.49 27.02 16.01 21.01 8.49 18.27 5.07 35.78 5.07"/><rect class="cls-2" x="21.01" y="40.47" width="12.04" height="8.59"/><polygon class="cls-2" points="35.78 49.06 33.04 52.48 27.02 60 21.01 52.48 18.27 49.06 35.78 49.06"/><path class="cls-3" d="M48.72,19.53V38.32a4.57,4.57,0,0,1-4.79,4.31H9.36a4.57,4.57,0,0,1-4.79-4.31V19.53a2.89,2.89,0,0,1,0-.5,2.5,2.5,0,0,1,.06-.38,4.68,4.68,0,0,1,4.69-3.42H43.93a4.69,4.69,0,0,1,4.69,3.42,2.5,2.5,0,0,1,.06.38A2.89,2.89,0,0,1,48.72,19.53Z"/><rect class="cls-4" x="38.06" y="36.16" width="5.33" height="3.05"/><rect class="cls-4" x="11.42" y="36.16" width="23.6" height="3.05"/><path class="cls-5" d="M48.68,19H4.61a2.5,2.5,0,0,1,.06-.38,4.68,4.68,0,0,1,4.69-3.42H43.93a4.69,4.69,0,0,1,4.69,3.42A2.5,2.5,0,0,1,48.68,19Z"/><text class="cls-6" transform="translate(9.2 33.67)">F<tspan class="cls-7" x="6.71" y="0">LO</tspan><tspan x="23.13" y="0">W</tspan></text><text class="cls-8" transform="translate(66.44 45.31)">F<tspan class="cls-9" x="20.5" y="0">LO</tspan><tspan x="70.62" y="0">TERIA</tspan></text><path class="cls-10" d="M268.84,55H256.67V33.55h3V52.08h9.16Z"/><path class="cls-11" d="M269.87,55l7.77-21.4h3L288.43,55h-3.28l-2.23-6.18h-7.54L273.15,55Zm9.28-16.58-2.74,7.54h5.45Z"/><path class="cls-12" d="M297.54,33.55c4.22,0,6.48,2.62,6.48,6a5.66,5.66,0,0,1-2.54,4.55,5.77,5.77,0,0,1,3,5c0,4.67-3.92,6-8.05,6a32.81,32.81,0,0,1-6.12-.7V33.55Zm-4.19,9.19h4.16c2.41,0,3.49-1.42,3.49-3.16s-1.08-3.17-3.46-3.17h-4.19Zm0,2.86V52a17.13,17.13,0,0,0,3.13.27c2.47,0,5-.54,5-3.19a3.5,3.5,0,0,0-3.73-3.5Z"/></g></g></g></svg>