<svg xmlns="http://www.w3.org/2000/svg" viewBox="0 0 400 400"><defs><style>.cls-1{fill:#00d13b;}.cls-2{fill:#a9ede9;}.cls-3{fill:#cafcfc;}.cls-4{fill:#0bd8a7;}.cls-5{fill:#db8f33;}.cls-6{fill:#b5f4f2;}.cls-7{fill:#c121e8;}.cls-8{fill:#e8cf1c;}.cls-9{fill:#f277f2;opacity:0.6;}.cls-10{fill:#515151;}.cls-11{fill:#383838;}.cls-12{fill:#fff;}.cls-13{fill:#d3d3d3;}</style></defs><title>labcard</title><g id="Layer_2" data-name="Layer 2"><g id="Home"><rect class="cls-1" width="400" height="400"/><circle class="cls-2" cx="129.58" cy="227" r="17"/><rect class="cls-2" x="123.58" y="143" width="13" height="74"/><rect class="cls-3" x="125.58" y="145" width="9" height="53"/><path class="cls-4" d="M134.58,213.94V198h-9v15.59a14,14,0,1,0,9,.35Z"/><polygon class="cls-5" points="134.58 149 125.58 149 123.58 134 136.58 136 134.58 149"/><rect class="cls-6" x="101.58" y="211" width="19" height="13"/><path class="cls-6" d="M130.84,251H92.16c-2.6,0-4.4-2.09-3.5-4.06L101.58,224h19l13.72,22.85C135.3,248.83,133.49,251,130.84,251Z"/><rect class="cls-2" x="99.58" y="203" width="23" height="13" rx="1.53"/><path class="cls-7" d="M126.54,248H96.46c-2,0-3.43-1.63-2.72-3.15l10-17.85h14.78l10.67,17.77C130,246.31,128.6,248,126.54,248Z"/><rect class="cls-3" x="132.58" y="219" width="19" height="13"/><path class="cls-3" d="M161.84,259H123.16c-2.6,0-4.4-2.09-3.5-4.06L132.58,232h19l13.72,22.85C166.3,256.83,164.49,259,161.84,259Z"/><rect class="cls-6" x="130.58" y="211" width="23" height="13" rx="1.53"/><path class="cls-8" d="M157.54,256H127.46c-2,0-3.43-1.63-2.72-3.15l10-17.85h14.78l10.67,17.77C161,254.31,159.6,256,157.54,256Z"/><rect class="cls-9" x="104.58" y="180" width="4" height="57"/><rect class="cls-10" x="146.58" y="143" width="165" height="94" rx="3.55"/><rect class="cls-11" x="204.58" y="237" width="49" height="12"/><rect class="cls-10" x="167.58" y="249" width="124" height="5"/><rect class="cls-12" x="153.58" y="149" width="150" height="77"/><circle class="cls-11" cx="229.58" cy="232" r="3"/><rect class="cls-13" x="160.58" y="153" width="80" height="12"/><rect class="cls-13" x="160.58" y="171.67" width="41" height="12"/><rect class="cls-13" x="160.58" y="190.33" width="119" height="12"/><rect class="cls-13" x="160.58" y="209" width="97" height="12"/></g></g></svg>