<svg xmlns="http://www.w3.org/2000/svg" viewBox="0 0 400 400"><defs><style>.cls-1{isolation:isolate;}.cls-2{fill:#07abd1;}.cls-3{fill:#603813;}.cls-4{fill:#42210b;}.cls-5{fill:#e6e6e6;}.cls-6{fill:#ccc;}.cls-7{fill:#332214;}.cls-8{fill:#f1a848;}.cls-9{fill:#f7c56b;}.cls-10{fill:#e38238;}.cls-11{fill:#e89c49;}.cls-12{fill:#b36124;}.cls-13{fill:#d3712f;}.cls-14{fill:#e89842;}.cls-15{mix-blend-mode:screen;}.cls-16{fill:#240d00;}.cls-17{mix-blend-mode:multiply;}.cls-18{fill:#faf2f2;}.cls-19,.cls-21{fill:#f8f7ea;}.cls-19,.cls-20,.cls-24,.cls-25,.cls-26,.cls-28,.cls-29,.cls-30{fill-rule:evenodd;}.cls-20{fill:#e2666a;}.cls-22{fill:#0f0e0e;}.cls-23,.cls-24{fill:#0c0c0b;}.cls-25{fill:#f3f1db;}.cls-26{fill:#d84a32;}.cls-27{fill:#0a0a0a;}.cls-29{fill:#825423;}.cls-30{fill:#a07338;}</style></defs><title>lessoncard</title><g class="cls-1"><g id="Layer_2" data-name="Layer 2"><g id="Home"><rect class="cls-2" width="400" height="400"/><rect class="cls-3" x="127.97" y="191.76" width="61.74" height="61.74"/><rect class="cls-4" x="127.97" y="187.64" width="144.07" height="4.12"/><rect class="cls-5" x="127.97" y="179.41" width="61.74" height="8.23"/><rect class="cls-5" x="127.97" y="146.5" width="53.51" height="33.96"/><rect class="cls-6" x="200" y="183.52" width="61.74" height="4.12"/><rect class="cls-7" x="189.91" y="191.76" width="82.12" height="61.52"/><rect class="cls-4" x="189.71" y="218.36" width="82.32" height="4.27"/><rect class="cls-4" x="189.71" y="249.23" width="82.32" height="4.27"/><path class="cls-8" d="M245.06,170.52a15.76,15.76,0,0,1,2.38,3.8,33.2,33.2,0,0,0-3.55-3.8A3.44,3.44,0,0,1,245.06,170.52Z"/><path class="cls-8" d="M240.16,171.94a30,30,0,0,1,2.6,3.79c-2-.82-3.81-3.79-3.81-3.79Z"/><path class="cls-8" d="M235.22,173.81a43.25,43.25,0,0,0,3.77,4.28c-2.6-.88-4.72-4.17-4.72-4.17Z"/><path class="cls-8" d="M233.83,179.55a6.91,6.91,0,0,1-3.47-2.56l.4-.29S232.33,178.09,233.83,179.55Z"/><path class="cls-9" d="M245.63,170.08a5.79,5.79,0,0,1,1.81,4.24,15.76,15.76,0,0,0-2.38-3.8C245.17,170.19,245.63,170.08,245.63,170.08Z"/><path class="cls-9" d="M240.16,171.94l.4-.51a6.59,6.59,0,0,1,2.2,4.3A30,30,0,0,0,240.16,171.94Z"/><path class="cls-9" d="M235.22,173.81c.11-.26.55-.44.55-.44a6.71,6.71,0,0,1,3.22,4.72A43.25,43.25,0,0,1,235.22,173.81Z"/><path class="cls-9" d="M230.94,176.22a9,9,0,0,1,2.89,3.33h0c-1.5-1.46-3.07-2.85-3.07-2.85Z"/><path class="cls-10" d="M228.2,181.45c-1-2.17,2.16-4.46,2.16-4.46a6.91,6.91,0,0,0,3.47,2.56h0a9,9,0,0,0-2.89-3.33c.55-.87,3.33-2.3,3.33-2.3s2.12,3.29,4.72,4.17a6.71,6.71,0,0,0-3.22-4.72,8,8,0,0,1,3.18-1.43s1.83,3,3.81,3.79a6.59,6.59,0,0,0-2.2-4.3,10.75,10.75,0,0,1,3.33-.91,33.2,33.2,0,0,1,3.55,3.8,5.79,5.79,0,0,0-1.81-4.24s5.32-.39,7.08,2.19-3.12,5.81-8.93,7.95C236.17,183,229.66,184.67,228.2,181.45Z"/><path class="cls-11" d="M252.73,174.45a2.44,2.44,0,0,0-.25-1.14,1.62,1.62,0,0,0-.27-.35l-.15-.14s-.06-.06-.08-.06l-.11-.1a7,7,0,0,0-1.71-.88c-.65-.26-1.37-.48-2.13-.73a19.51,19.51,0,0,1-2.39-.91V170a12.49,12.49,0,0,1,2.52,0,10.43,10.43,0,0,1,2.46.55,4.62,4.62,0,0,1,2.07,1.47,2.06,2.06,0,0,1,.48,1.19,2.41,2.41,0,0,1-.32,1.24Z"/><path class="cls-12" d="M230.85,183.13a12.36,12.36,0,0,0,3-.29,28.07,28.07,0,0,0,2.91-.71c1-.3,1.92-.58,2.87-.91s1.9-.65,2.84-1A50.87,50.87,0,0,0,248,178a20.64,20.64,0,0,0,2.59-1.48,7.31,7.31,0,0,0,2.16-2l.05,0a4.87,4.87,0,0,1-.91,1.21,9,9,0,0,1-1.14,1,20.11,20.11,0,0,1-2.57,1.61,39.74,39.74,0,0,1-5.57,2.39c-1.9.67-3.82,1.31-5.78,1.81a30,30,0,0,1-3,.6,11.75,11.75,0,0,1-3,.07Z"/><path class="cls-11" d="M230.39,177c-.28.78-.59,1.42-.84,2a4.53,4.53,0,0,0-.41,1.47,1.13,1.13,0,0,0,0,.26,1.76,1.76,0,0,0,.05.27,2.38,2.38,0,0,0,.27.62,5.92,5.92,0,0,0,1.4,1.42l0,.12a5,5,0,0,1-1.07-.23,2.94,2.94,0,0,1-1-.54,2.57,2.57,0,0,1-.69-.88,2.33,2.33,0,0,1-.24-1.1,3.8,3.8,0,0,1,.87-2,7.21,7.21,0,0,1,1.57-1.5Z"/><path class="cls-9" d="M231,176.23a.59.59,0,0,1,.07.3.7.7,0,0,1-.05.25l0,.07-.05,0a.61.61,0,0,1-.23.11.74.74,0,0,1-.3,0v0l.39-.3h0l.2-.47Z"/><path class="cls-11" d="M234.29,174a3.33,3.33,0,0,1-.65.93,4.52,4.52,0,0,1-.77.63,5.52,5.52,0,0,1-.88.43l-.48.16-.54.14-.06,0a3,3,0,0,1,.72-.74c.27-.21.55-.4.83-.59l.88-.52c.3-.16.6-.32.91-.47Z"/><path class="cls-9" d="M235.77,173.38a2.6,2.6,0,0,1-.22.3,1.12,1.12,0,0,0-.13.22l0,.1-.14,0-.24,0h-.24a1.54,1.54,0,0,1-.5-.13v0l.47-.07.48-.05h0a.65.65,0,0,1,.25-.27,1.87,1.87,0,0,1,.31-.17Z"/><path class="cls-11" d="M239,172a3.82,3.82,0,0,1-.69.7,3.22,3.22,0,0,1-.7.43,4,4,0,0,1-.79.25,3.15,3.15,0,0,1-1,0l0-.06a7.94,7.94,0,0,1,1.5-.92,8.29,8.29,0,0,1,.83-.31,3.67,3.67,0,0,1,.87-.2Z"/><path class="cls-9" d="M240.57,171.44a1.33,1.33,0,0,1-.1.34,1.59,1.59,0,0,1-.15.29l0,.06-.12,0a1.51,1.51,0,0,1-.3,0l-.31,0-.3-.07L239,172v0c.4,0,.81,0,1.21,0h0l.41-.51Z"/><path class="cls-11" d="M243.89,170.55a2.68,2.68,0,0,1-.76.63,3.62,3.62,0,0,1-.78.31,3.1,3.1,0,0,1-.81.1,3.59,3.59,0,0,1-1-.13l0-.06a4.09,4.09,0,0,1,.79-.38,8.16,8.16,0,0,1,.84-.26c.28-.07.56-.13.85-.18a8.27,8.27,0,0,1,.87-.1Z"/><path class="cls-9" d="M245.64,170.09a3.18,3.18,0,0,0-.26.27.37.37,0,0,0-.11.23l0,.18-.24,0-.26,0-.27,0a5,5,0,0,1-.59-.14v0a3.79,3.79,0,0,1,.58-.05,2.88,2.88,0,0,1,.59,0l0,0a.57.57,0,0,1,.24-.29,1.19,1.19,0,0,1,.35-.15Z"/><path class="cls-13" d="M233.83,179.56a6,6,0,0,1-1-.41,7,7,0,0,1-.94-.58,6.52,6.52,0,0,1-1.53-1.57l0,0c.15.13.27.26.42.38s.26.24.4.35.55.46.84.66.58.41.88.6l.93.57Z"/><path class="cls-14" d="M231,176.21a3.81,3.81,0,0,1,1,.57,5.41,5.41,0,0,1,1.48,1.72c.09.16.17.33.25.51a3.42,3.42,0,0,1,.18.54h0a10,10,0,0,0-1.25-1.83,9.7,9.7,0,0,0-.77-.8,7.4,7.4,0,0,0-.87-.7Z"/><path class="cls-14" d="M239,178.09a7.18,7.18,0,0,0-.41-1.42,7.71,7.71,0,0,0-.67-1.31,5.66,5.66,0,0,0-2.14-2v0a3.6,3.6,0,0,1,.7.3,4.38,4.38,0,0,1,.63.43,4.78,4.78,0,0,1,1,1.14,5.54,5.54,0,0,1,.65,1.37,5,5,0,0,1,.24,1.49Z"/><path class="cls-13" d="M234.28,173.91a15.64,15.64,0,0,0,2.06,2.43,7.68,7.68,0,0,0,2.65,1.74v0a4.56,4.56,0,0,1-.78-.22,7.14,7.14,0,0,1-.73-.37,8.92,8.92,0,0,1-1.3-1,11.15,11.15,0,0,1-1.07-1.21c-.16-.22-.31-.44-.46-.67a6.94,6.94,0,0,1-.38-.71Z"/><path class="cls-14" d="M242.74,175.73a7.2,7.2,0,0,0-.24-1.21,8,8,0,0,0-.44-1.15,5.18,5.18,0,0,0-1.51-1.93l0,0a3.06,3.06,0,0,1,.54.34,3.81,3.81,0,0,1,.46.44,4.19,4.19,0,0,1,.71,1.06,4.8,4.8,0,0,1,.41,1.21,4.1,4.1,0,0,1,.08,1.26Z"/><path class="cls-13" d="M239,171.94a14.92,14.92,0,0,0,1.67,2.13,8.58,8.58,0,0,0,1,.93,4.93,4.93,0,0,0,1.15.72v0a2.73,2.73,0,0,1-.66-.23,5.2,5.2,0,0,1-.6-.35,6.54,6.54,0,0,1-1.05-.91,8.17,8.17,0,0,1-.85-1.09,6.13,6.13,0,0,1-.65-1.21Z"/><path class="cls-14" d="M247.43,174.32a7.89,7.89,0,0,0-.13-1.18A7.44,7.44,0,0,0,247,172a4.44,4.44,0,0,0-1.34-1.91v0a2.85,2.85,0,0,1,.52.33c.15.14.29.29.43.44a4.06,4.06,0,0,1,.61,1.07,4.57,4.57,0,0,1,.29,1.2,3.78,3.78,0,0,1,0,1.21Z"/><path class="cls-13" d="M243.9,170.51c.63.59,1.26,1.2,1.86,1.82.3.31.6.63.88,1a9.79,9.79,0,0,1,.81,1l0,0-.93-.91c-.32-.3-.62-.61-.92-.92a20.21,20.21,0,0,1-1.7-2Z"/><g class="cls-15"><path class="cls-16" d="M249.48,171.94c.19.19.46.34.49,0,.08,0,.21,0,.41-.22h0c.17.16.28-.06.25-.19a.26.26,0,0,0-.15-.3c-.16-.15-.53-.12-.59.07s0,.07,0,.11a.24.24,0,0,0-.28-.08.36.36,0,0,0,.13-.17c.21-.41-.33-.33-.33-.15s.06.35.17.34l-.09.06c-.24-.24-.59-.43-.51.25C249,172.15,249.3,172.11,249.48,171.94Z"/><path class="cls-16" d="M250.44,173.61l-.09.06-.12,0c.09-.1.1-.21-.16-.24a.32.32,0,0,0-.16-.32,1.29,1.29,0,0,0-.45-.08l-.07,0c-.61-.38-.56.46-.27.48h.17l.11.13c.19.21.34.25.45.21s.11.06.15,0c-.05.14,0,.33.09.38h0a.4.4,0,0,0,.27.07h.17c.17.14.29,0,.33-.14C251.09,173.88,250.65,173.46,250.44,173.61Z"/><path class="cls-16" d="M252.32,172.34c.07-.11,0-.24-.36-.36-.71-.23-.59.47-.32.62a.14.14,0,0,0,0,.09.38.38,0,0,0-.28-.14.47.47,0,0,0-.12-.14c-.27-.27-.41-.09-.43.09,0,0-.06.09,0,.2-.22,0-.42.05-.12.37.11.12.21.15.28.13,0,.25.19.39.55,0a.57.57,0,0,0,.18-.36.76.76,0,0,0,.39.25C252.88,173.39,252.68,172.41,252.32,172.34Z"/><path class="cls-16" d="M252,174.29c-.23-.16-.78-.35-.46.26S252.25,174.45,252,174.29Z"/><path class="cls-16" d="M251.23,171.48c.17,0,.55,0,.22-.27S251.05,171.44,251.23,171.48Z"/><path class="cls-16" d="M250.51,170.92c.33-.38-.26-.45-.31-.25S250.17,171.29,250.51,170.92Z"/><path class="cls-16" d="M248.19,170.93c.06.84.83.22.65-.07S248.12,170.09,248.19,170.93Z"/><path class="cls-16" d="M247.7,171.9c.24-.08.7-.39.06-.5S247.45,172,247.7,171.9Z"/><path class="cls-16" d="M248.1,170.48c.12-.16.27-.54-.17-.33S248,170.64,248.1,170.48Z"/><path class="cls-16" d="M246.82,170.78a.69.69,0,0,0,.32,0c-.17.23-.2.47.38.39.86-.12.17-.87-.11-.66a.84.84,0,0,0-.2.18c0-.05,0-.12-.15-.21C246.67,170.14,246.62,170.73,246.82,170.78Z"/><path class="cls-16" d="M245.56,175.66c.08-.59-.54-.28-.46,0S245.48,176.25,245.56,175.66Z"/><path class="cls-16" d="M246.79,171.77c0-.16,0-.53-.25-.21S246.75,171.94,246.79,171.77Z"/><path class="cls-16" d="M247.44,172.54l-.07-.06a.83.83,0,0,0-.05-.18.82.82,0,0,0-.1-.19,1,1,0,0,0,0-.1c.27-.58-.47-.45-.46-.19,0,.05,0,.12,0,.19-.2,0-.42,0-.13.31l0,0a.2.2,0,0,0,.05.17,1.56,1.56,0,0,0,.25.17.18.18,0,0,0,.1.16C247.34,172.93,247.82,173,247.44,172.54Z"/><path class="cls-16" d="M248.74,172.48a1,1,0,0,0-.14-.23c0-.18,0-.33-.21-.29,0-.08-.15-.1-.4,0s-.3.31-.18.42c-.08.2.09.35.29.39a.42.42,0,0,0,.12.26.14.14,0,0,0,0,.06c-.43,0-.27.68,0,.67s.71-.15.56-.37c.09-.12.12-.24,0-.27a.11.11,0,0,0,0-.08C248.94,172.84,249.16,172.52,248.74,172.48Z"/><path class="cls-16" d="M247.07,173.43c-.17,0-.53,0-.19.27S247.23,173.46,247.07,173.43Z"/><path class="cls-16" d="M248.78,174.32l0-.06c.23-.64-.51-.47-.53-.2a.77.77,0,0,0-.1.35c-.09.87.8.38.67.05A.61.61,0,0,0,248.78,174.32Z"/><path class="cls-16" d="M248.36,175.09a1.25,1.25,0,0,0-.31-.12c.06-.34,0-.81-.49-.31s-.12.57.14.59c0,0,0,.13,0,.3.06.42.35.28.44.1C248.39,175.74,248.57,175.22,248.36,175.09Z"/><path class="cls-16" d="M247.1,175.31c-.35.51.37.5.4.26S247.45,174.8,247.1,175.31Z"/><path class="cls-16" d="M246.83,175.62c.1-.28-.42-.35-.49-.15s-.09.61.17.48h.05C246.77,176,247.19,175.88,246.83,175.62Z"/><path class="cls-16" d="M246.59,174.66a.38.38,0,0,0-.05-.21s0,0,.06,0,.29-.1.32-.18c0,.14.13.28.24.26a.94.94,0,0,0,.3-.12c.11,0,.25,0,.29-.07s.14-.63-.21-.4h0c.05-.17,0-.55-.26-.22s0,.34.15.31a.46.46,0,0,0-.07.07l-.08,0c-.27-.08-.37,0-.37.15,0,0-.08-.09-.21-.13h0c0-.15-.05-.28-.25-.06h0v0c.12-.06.14-.22,0-.58a.64.64,0,0,0-.11-.16c0-.24-.12-.55-.33-.53h-.08c.1,0,.11-.16-.09-.39-.44-.52-.64.25-.39.35a1,1,0,0,0,.35.07l-.23.07c0-.18-.22-.15-.32-.06h0a1.12,1.12,0,0,0,.05-.45.15.15,0,0,0,.11-.15c0-.21-.18-.63-.38-.14,0,0,0,0,0,.06a1,1,0,0,0-.26.21c-.55.54.16.75.42.57a.14.14,0,0,0,0,.11c0,.12.18.3.28.3a1.3,1.3,0,0,0,.28.16.4.4,0,0,0,0,.24.5.5,0,0,0-.5-.11.24.24,0,0,0-.17-.13c-.38-.07-1.19,0-.44.6a.67.67,0,0,0,.36.17c0,.17.16.23.54,0a.86.86,0,0,0,.2-.15c-.15.35.37.52.61.39a.2.2,0,0,0-.07.23C246.24,174.89,246.59,175.25,246.59,174.66Zm-.92-.73a.15.15,0,0,0,0-.13h0l.07,0Zm.6.46,0,0,0-.09a.19.19,0,0,0,.09.05s0,0,0,.06A.23.23,0,0,0,246.27,174.39Z"/><path class="cls-16" d="M244,172.65c-.09-.19-.38-.53-.4,0S244.13,172.84,244,172.65Z"/><path class="cls-16" d="M244.32,172c.14.46.66,0,.52-.22a1.29,1.29,0,0,0-.29-.28.2.2,0,0,0,0-.16c-.08-.29-.4-.82-.56-.11-.06.26,0,.38.11.42-.21,0-.48,0-.18.31S244.27,172.12,244.32,172Zm0-.34v0a0,0,0,0,0,0,0l-.07,0Z"/><path class="cls-16" d="M242,171.85c-.05,0-.1.09-.14.27-.1.43.28.35.39.19-.08.3.17.31.32.22a.56.56,0,0,0,.11.19c.38.49.6-.2.37-.31a.7.7,0,0,0-.4-.06s0,0,0-.08a.33.33,0,0,0,.2,0c.19.35.67-.1.53-.32a1.11,1.11,0,0,0-.2-.24c.24-.12.14-.53-.05-.68.16-.21.2-.45-.33-.36a.5.5,0,0,0-.31.14h-.16c-.45,0-.45.29-.31.47l0,.07C241.79,171.63,241.84,171.79,242,171.85Zm.28.37v0a.75.75,0,0,0-.18-.31h.16a.24.24,0,0,0,.07.24Z"/><path class="cls-16" d="M241.61,172.06c.34,0,.27-.3.12-.43a.22.22,0,0,0,0-.08c-.27-.19-.92-.44-.57.3C241.28,172.21,241.48,172.19,241.61,172.06Z"/><path class="cls-16" d="M242.62,174.32a.32.32,0,0,0,.37-.06,1.48,1.48,0,0,0,.17-.28c.32,0,.34-.64.08-.71s-.68-.08-.71.12c-.08,0-.17,0-.24.16a.28.28,0,0,0-.14-.19l-.29-.08s0-.05,0-.08c0-.42-.39-.18-.32,0a.36.36,0,0,0,0,.09l-.11,0c-.07,0-.16,0-.21.23s.12.36.27.28l.05.07c.26.31.47.3.59.16a.4.4,0,0,0,0,.17c-.17,0-.36,0-.41.16-.13.35-.2,1.16.51.53l.13-.13.11,0c.56.16.35-.49.11-.44l-.13,0,0-.05Z"/><path class="cls-16" d="M243.94,176.06c-.58-.11-.3.53-.07.46S244.52,176.18,243.94,176.06Z"/><path class="cls-16" d="M243.86,177.08c-.33,0-1,.25-.24.59S244.2,177.06,243.86,177.08Z"/><path class="cls-16" d="M243.23,176.56a.26.26,0,0,0,.17-.27.19.19,0,0,0,.06-.07.29.29,0,0,0,.15-.27,1.2,1.2,0,0,0-.09-.29c.39.12.46-.36.32-.61a.2.2,0,0,0,.15-.17,1,1,0,0,0-.06-.44,1,1,0,0,0,0-.22c.12-.84-.78-.39-.66-.06a1.2,1.2,0,0,0,.22.37l0,.06a1.54,1.54,0,0,0-.09.19c0-.14-.27-.26-.37-.15s-.26.42-.05.43c-.06.08,0,.2.17.38,0,0,0,0-.05.05l0,0c-.16,0-.36.17-.31.3s0,.05,0,.08c-.18.07-.36.17-.38.28s-.27.1-.26.2.12.47.26.38a.52.52,0,0,0,.14.16V177h0c-.34,0-1,.16-.31.58.53.31.63-.12.52-.39a.52.52,0,0,0,.13-.13.53.53,0,0,0,.06-.14A1.13,1.13,0,0,0,243.23,176.56Zm.16-1.69a.11.11,0,0,0,0,0h-.05Z"/><path class="cls-16" d="M241.8,177.07c.23,0,.67-.23.14-.42a.38.38,0,0,0-.25,0c.11-.17-.19-.38-.33-.31,0-.16-.06-.36-.2-.37h-.06c.1-.21-.15-.56-.36-.49a.77.77,0,0,0-.17.07c.06-.08,0-.21-.28-.37-.62-.36-.6.38-.35.51a.51.51,0,0,0,.08.21c.14.22.26.2.34.11l.15.06a.18.18,0,0,0,.11.13h0c0,.07.09.15.26.26a.45.45,0,0,0,.31.09c-.09.17-.09.35.29.23l.12-.06C241.54,176.84,241.66,177.09,241.8,177.07Zm-1.43-1.4h0l.06,0S240.38,175.66,240.37,175.67Z"/><path class="cls-16" d="M241.59,177.27a.41.41,0,0,0-.05-.09c-.18-.28-.34-.23-.43-.1a.17.17,0,0,0-.18,0h0a.29.29,0,0,0-.33,0h0c0-.17-.09-.34-.23-.35h-.08c0-.34-.62-.15-.58.1,0,0,0,0,0,.08s0,.14.09.24a.48.48,0,0,0,.09.13.52.52,0,0,0,.33.16l.1,0c-.09.2,0,.37.46.26.24,0,.35-.15.37-.26l.14.06c-.08.16-.06.31.31.2S241.8,177.31,241.59,177.27Z"/><path class="cls-16" d="M240.57,174.73c.13.44.54,0,.41-.16l-.09-.09c.2-.31-.35-.41-.42-.21S240.38,174.77,240.57,174.73Z"/><path class="cls-16" d="M239.14,174.2a.28.28,0,0,0,0,.13c.08.22.28.53.45.56s.22.14.44-.17h0c.64.11.32-.59.07-.51h0a.39.39,0,0,0-.21-.08s0-.05,0-.07-.05-.3-.17-.34C239.35,173.63,238.61,173.6,239.14,174.2Z"/><path class="cls-16" d="M239.43,173c.42-.46-.31-.55-.37-.31S239,173.45,239.43,173Z"/><path class="cls-16" d="M238.42,172.89c-.08.3-.08.86.42.36.18-.18.2-.31.14-.4l0,0c.09-.23.16-.76-.32-.36-.15.12-.19.22-.16.3a.15.15,0,0,0-.09.1.25.25,0,0,0-.06-.27c-.23-.14-.77-.29-.43.28C238.14,173.22,238.35,173.08,238.42,172.89Z"/><path class="cls-16" d="M236.81,173.41l0,0a.7.7,0,0,0,0,.4c.13.63.55.38.66.1a.45.45,0,0,0,.17-.13.12.12,0,0,0,.1,0c.18,0,.54-.2.1-.35a.47.47,0,0,0-.19,0c-.11-.34-.36-.73-.59-.23h-.07c0-.05-.06-.09-.1-.09S236.45,173.23,236.81,173.41Z"/><path class="cls-16" d="M237.75,175.74s0-.07,0-.11a.18.18,0,0,0,.13,0c.17-.14.38-.43.3-.57l0,0,0-.07a.46.46,0,0,0,.13-.21c.28-.18.65-.61,0-.62a.11.11,0,0,0,0-.08c.11.05.23-.08.25-.19.09.15.24.26.29-.09s-.39-.23-.36,0c-.14-.14-.38-.27-.3.13l0,.06a.1.1,0,0,0-.1,0,.62.62,0,0,0-.25.14.09.09,0,0,0-.05.11c-.13,0-.22.11-.21.49a.63.63,0,0,0,.11.38h0c-.44.09-.42.33-.27.49C237.15,175.77,237.68,175.91,237.75,175.74Z"/><path class="cls-16" d="M238.62,175c-.14.29-.27,1,.38.5S238.77,174.67,238.62,175Z"/><path class="cls-16" d="M238,176.45c.64-.6-.37-.81-.48-.48S237.36,177.05,238,176.45Z"/><path class="cls-16" d="M235.84,180.19c.07.19.33.55.4,0S235.77,180,235.84,180.19Z"/><path class="cls-16" d="M239.63,176c-.1-.37-.51-1.06-.72-.14S239.72,176.39,239.63,176Z"/><path class="cls-16" d="M239,177.05c.12-.11.19-.24,0-.31a.13.13,0,0,0-.07-.06,1,1,0,0,0-.33-.11c.06-.22-.33-.22-.36-.07s0,.39.13.35a1.46,1.46,0,0,0,.09.16.33.33,0,0,0,.16.17C238.8,177.32,238.94,177.21,239,177.05Z"/><path class="cls-16" d="M238.54,177.28c-.11-.18-.43-.49-.41,0S238.65,177.46,238.54,177.28Z"/><path class="cls-16" d="M239.69,177.83c0,.2.22.58.38.11S239.66,177.63,239.69,177.83Z"/><path class="cls-16" d="M239.12,177.65c-.29-.06-.6,0-.23.45l.11.11c-.1,0-.13.13.08.3s.39-.07.32-.23c.19.1.35.06.26-.42S239.27,177.46,239.12,177.65Z"/><path class="cls-16" d="M239,178.8c-.25.08-.71.36-.09.49S239.28,178.73,239,178.8Z"/><path class="cls-16" d="M238.54,178.51c.05,0,.08-.1.11-.24.07-.51-.46-.24-.4-.05a1,1,0,0,0,.09.17c-.13,0-.25.21-.18.31s.48.47.41-.06A.28.28,0,0,0,238.54,178.51Z"/><path class="cls-16" d="M237.53,178.55c-.69-.38-.6.56-.27.57h.19c.24.72.85,0,.62-.26A.9.9,0,0,0,237.53,178.55Z"/><path class="cls-16" d="M236.53,179.12c.09.41.43,0,.32-.09S236.43,178.7,236.53,179.12Z"/><path class="cls-16" d="M237.46,177.77v0h0c0,.1.06.2.15.22.3.09,1,.1.41-.44-.15-.15-.27-.19-.36-.17s-.3-.1-.35,0h0a.12.12,0,0,0-.16-.06c.19-.26.25-.56-.33-.45a.58.58,0,0,0-.11-.13.35.35,0,0,0-.26-.14v0c-.08-.23-.37-.65-.46-.06-.06.34.12.38.28.32a.24.24,0,0,0,.11.25h0a.23.23,0,0,0-.24.09c-.09.23-.15.73.31.35a.08.08,0,0,0,0,0,.51.51,0,0,0,.28.13.41.41,0,0,0,0,.24c-.14-.28-.73-.09-.7.19s.3,1.1.66.26a.63.63,0,0,0,.06-.42s0,0,0,.05C237,178.23,237.65,178.68,237.46,177.77Z"/><path class="cls-16" d="M236,177.38c-.06-.25-.31-.71-.47-.11S236.05,177.62,236,177.38Z"/><path class="cls-16" d="M235.22,176.94l-.05,0c.05,0,0-.14-.14-.3a.3.3,0,0,0-.25-.12.18.18,0,0,0-.07-.05c-.21,0-.65,0-.25.32a.46.46,0,0,0,.2.1.14.14,0,0,0,.09.08l.12,0c-.11.15,0,.46.21.43S235.81,177.14,235.22,176.94Z"/><path class="cls-16" d="M234.82,176.21c.1-.11.24-.33.13-.39s.06,0,.07,0a.56.56,0,0,0,.09-.21c.12-.06.21-.17.18-.27-.08-.27-.39-.78-.54-.1a.39.39,0,0,0,0,.34c-.13.11-.05.22.05.26l-.14,0C234.2,176,234.68,176.36,234.82,176.21Z"/><path class="cls-16" d="M232.61,182c-.28.08-.81.4-.1.56S232.89,182,232.61,182Z"/><path class="cls-16" d="M231.81,176.49c.27-.36-.25-.38-.28-.2S231.54,176.84,231.81,176.49Z"/><path class="cls-16" d="M232.89,175.75c0,.18.11.3.29.21a.2.2,0,0,0,0,.13c-.06.22.08.55.28.55s1-.2.49-.53a.32.32,0,0,0,.12-.3,1.25,1.25,0,0,0-.15-.31c.15-.06.18-.22-.12-.56s-.69-.11-.69.2a.25.25,0,0,0-.17.16v0l0,.05C232.79,175.5,232.72,175.77,232.89,175.75Z"/><path class="cls-16" d="M232.31,176.68c0-.45-.42-.18-.35,0S232.27,177.13,232.31,176.68Z"/><path class="cls-16" d="M233.26,176.77c-.37.23.1.43.19.28S233.63,176.54,233.26,176.77Z"/><path class="cls-16" d="M232.86,178.08a1.39,1.39,0,0,0,.28-.19.81.81,0,0,0,.29-.25c0,.19.33.35.46.23a1,1,0,0,0,.2-.29,1.3,1.3,0,0,0,.3,0c0,.07,0,.14.25.15.4,0,.29-.28.14-.37.2-.29-.35-.66-.56-.46a1.16,1.16,0,0,0-.29.46.59.59,0,0,0-.21,0,.45.45,0,0,0-.28.17c0-.09-.14-.18-.45-.24l-.11,0c.05,0,.11-.09.18-.22.26-.52-.41-.43-.41-.19a.56.56,0,0,0,.15.41.32.32,0,0,0-.33.14C232.1,177.62,232.57,178.22,232.86,178.08Z"/><path class="cls-16" d="M234.86,178.14c-.3-.11-.93-.17-.65.29a.35.35,0,0,0-.19.12.31.31,0,0,0-.22-.07.88.88,0,0,0-.1-.26c-.1-.18-.2-.25-.28-.25s-.17-.05-.37.11c-.41.31-.05.52.18.48,0,.27,0,.67.38.3,0,0,.1.07.28,0a.26.26,0,0,0,.18-.13.36.36,0,0,0,.09.08.22.22,0,0,0,0,.24,1.33,1.33,0,0,0,.2.22h0a.47.47,0,0,0-.42.22.79.79,0,0,0-.43.08l-.18.09c.06-.45-.45-.21-.38,0a.61.61,0,0,0,.19.28c0,.29.48.54.66.34A2,2,0,0,0,234,180l.06.09c0,.1.06.2.14.21h.16a.11.11,0,0,0,.08,0c.1,0,.18-.07.14-.16.14.06.26,0,.25-.44,0-.23-.07-.35-.16-.4a.93.93,0,0,0,0-.25v0a.19.19,0,0,0,.11-.12C235,178.83,235.12,178.23,234.86,178.14Z"/><path class="cls-16" d="M233.66,180.59a.49.49,0,0,0-.59-.21.52.52,0,0,0-.11-.07c-.37-.23-.55-.1-.59.1h0c0-.28-.05-.64-.33-.44a.15.15,0,0,0-.13,0,.45.45,0,0,0-.11,0,.6.6,0,0,0-.13-.14.25.25,0,0,0,.15-.17c.06-.24.06-.67-.13-.72a.23.23,0,0,0,0-.27c-.16-.25-.65-.66-.57.08,0,.06,0,.1,0,.14a.14.14,0,0,0,.07.15.15.15,0,0,0,.11.07l-.1.1c-.16.19-.2.34-.17.44s-.09.14,0,.21a.32.32,0,0,0,0,.14c-.11,0-.19.22-.11.3a.57.57,0,0,0,.29.18l0,.11-.15.11-.1.1c-.07-.21-.24-.15-.33,0,0-.21-.1-.33-.57-.13l0,0c0-.19-.14-.37-.29-.36h-.05c-.08-.4-.35-1-.69-.15a1.15,1.15,0,0,0-.06.21c-.1,0-.19,0-.2.29,0,.5.39.31.46.11h0a1.3,1.3,0,0,0,.26.17h0c-.61-.23-.55.71-.19.74a1,1,0,0,0,.66-.13c-.22.26.28.57.45.39s.48-.78-.21-.53a.68.68,0,0,0-.21.11.13.13,0,0,0,0-.12l.05,0a.31.31,0,0,0,.29-.07,1.48,1.48,0,0,0,.21-.37v0c.09.13.3.32.37.19.15.1.41.1.46,0a.91.91,0,0,0,.07-.25c.21,0,.48,0,.48-.16a.31.31,0,0,0,.17-.05c0,.25.16.25.27.17a.19.19,0,0,0,.14.07h.13c-.05.21.05.36.56.18l.14-.06c.1.05.22.06.27,0S234,180.51,233.66,180.59Z"/><path class="cls-16" d="M230.65,179.6c.22-.08.64-.35.06-.45S230.42,179.67,230.65,179.6Z"/><path class="cls-16" d="M230,178.13c.41-.38-.23-.52-.3-.31S229.59,178.51,230,178.13Z"/><path class="cls-16" d="M245.52,177.4c-.91.38.06,1,.32.69S246.42,177,245.52,177.4Z"/><path class="cls-16" d="M229.21,178.78l.12-.11c-.1.34-.11.91.44.45l.12,0c.23.15.47.17.37-.39s-.39-.44-.56-.25a.42.42,0,0,0-.28.06c0-.1,0-.18-.3-.13C228.6,178.48,229,178.92,229.21,178.78Z"/></g><g class="cls-17"><path class="cls-18" d="M231.49,177.67c-.36-.57-.51-.2-.54.12l-.12,0c.11,0,0-.26-.07-.36s-.57.13-.16.31a.34.34,0,0,0,.21.05.21.21,0,0,0-.16.23l-.09-.06c-.16-.12-.46.09-.49.3a.29.29,0,0,0,.08.33c.06.11.27.2.3,0h0c.28,0,.41,0,.44-.08.24.24.35,0,.37-.3C231.51,178.22,231.75,178.08,231.49,177.67Z"/><path class="cls-18" d="M232,178.91a.64.64,0,0,1,0,.07,1.28,1.28,0,0,0-.29.34.3.3,0,0,0,.08.34c-.18.18-.11.26,0,.29a.29.29,0,0,0-.06.1h-.11c-.25,0-.32.61,0,.65.12.09.29.11.33-.1a.42.42,0,0,0,.13-.11c.11-.08.16-.16.16-.22h0c.06-.11,0-.25-.17-.33.05,0,.08-.06.1-.11s.19-.17.21-.44v-.17l.13-.11C232.67,178.91,232.19,178.25,232,178.91Z"/><path class="cls-18" d="M230.8,179.55c-.05-.1-.1-.13-.14-.13s-.35-.17-.39.2a1.07,1.07,0,0,0,0,.18.36.36,0,0,0-.12.28.12.12,0,0,0-.1,0c.11-.28-.22-.88-.61-.27-.2.31-.18.45-.06.5-.22.27.23,1.13.68.35a1.05,1.05,0,0,0,.15-.44.51.51,0,0,0,.34.16c.54.1.57-.1.44-.31.07,0,.12-.11.13-.28C231.15,179.32,231,179.4,230.8,179.55Z"/><path class="cls-18" d="M228.69,179.65c-.08.26.65.57.51-.09S228.76,179.39,228.69,179.65Z"/><path class="cls-18" d="M229.34,178.87c-.07.43.22.21.33.07a.17.17,0,0,0-.06-.21c.24,0,0-.29-.09-.39s-.53.27-.12.37A.35.35,0,0,0,229.34,178.87Z"/><path class="cls-18" d="M230.07,177.56c.19-.43-.18-.28-.32-.16S229.88,178,230.07,177.56Z"/><path class="cls-18" d="M231.62,176.65c-.47-.68-.58,0-.54.34S232.09,177.32,231.62,176.65Z"/><path class="cls-18" d="M233.4,181.19c-.41.48.12.43.36.34S233.82,180.72,233.4,181.19Z"/><path class="cls-18" d="M236.41,180.58c-.23.49.2.33.37.2S236.65,180.1,236.41,180.58Z"/><path class="cls-18" d="M231.41,176.26c.18,0,.38-.48-.08-.36S231.22,176.21,231.41,176.26Z"/><path class="cls-18" d="M232.26,176.41c.37-.23.36-.37.23-.46,0-.07.06-.14.08-.2v-.08c.06-.13-.13-.36-.27-.28-.22-.09-.49,0-.4.46C231.6,175.94,231.57,176.82,232.26,176.41Z"/><path class="cls-18" d="M233,175.82c-.09.42,0,.55.14.55l.06,0c.09.07.27-.07.26-.18a2,2,0,0,0,.26-.23c.15-.19-.09-.59-.35-.62h0c-.08-.22-.73-.08-.33.31C233,175.73,233,175.77,233,175.82Z"/><path class="cls-18" d="M233,176.89l.1,0a.59.59,0,0,0,0,.21l.07.17a.28.28,0,0,1,0,.09c0,.54.31.23.43,0a.2.2,0,0,0,0-.19,1,1,0,0,0,.08-.27.22.22,0,0,0-.06-.17v0c0-.4-.16-.29-.3-.15a.61.61,0,0,0-.09-.16C233.06,176.25,232.42,176.62,233,176.89Z"/><path class="cls-18" d="M234.32,177.92c.09-.4-.2-.21-.31-.09S234.22,178.32,234.32,177.92Z"/><path class="cls-18" d="M233,178.28a.09.09,0,0,0-.06,0,.4.4,0,0,0-.06-.27c.12-.16.16-.38,0-.47,0-.16-.07-.31-.39-.21s-.32.17-.3.24c-.17.09-.11.23,0,.35a.71.71,0,0,0,0,.26c-.3.29.07.4.36.41a.16.16,0,0,0,0,.08c-.1.12,0,.19.13.22,0,.26.45.08.66-.07S233.26,178,233,178.28Z"/><path class="cls-18" d="M233.49,179.05c-.19-.18-.85.15-.27.49l.05,0,0,.15c.11.32,1.08.14.48-.45A.87.87,0,0,0,233.49,179.05Z"/><path class="cls-18" d="M234.66,179.59c.18-.16.25-.47-.26-.52-.69-.07-.43.32-.18.53a1.34,1.34,0,0,0-.15.29c-.08.22.38.5.53.27.18.07.47,0,.26-.36C234.78,179.66,234.71,179.6,234.66,179.59Z"/><path class="cls-18" d="M235.15,179.27c-.58-.17-.32.27-.15.44S235.72,179.44,235.15,179.27Z"/><path class="cls-18" d="M235.82,178.92c-.18-.11-.53.27-.27.42-.12.42.25.23.41.09a.08.08,0,0,0,0,0C236.27,179.32,236,179,235.82,178.92Z"/><path class="cls-18" d="M235.62,176.52a.23.23,0,0,0-.05.2.47.47,0,0,0-.3.39.55.55,0,0,0-.16-.18,1.36,1.36,0,0,0,.11-.29c.07-.06.06-.27,0-.4a.16.16,0,0,0-.07-.07c.31,0,.71-.62,0-.7a1.5,1.5,0,0,0-.32,0l-.06,0c-.45-.25-.31.17-.2.34s.11.06.18.05a1.46,1.46,0,0,0,.31.3h0c-.13,0-.28.09-.2.25a1,1,0,0,0-.22.09.93.93,0,0,0,.22-.27c.13-.23-.5-.68-.51,0,0,.3.07.38.18.35l-.07,0c-.16.12-.09.45.08.61a1.37,1.37,0,0,0,0,.19c.08.39.2.5.32.47h0c-.29,0-.25.1-.15.21l0,0c-.08.11-.1.18-.08.23-.09-.1-.22-.12-.38.11a.25.25,0,0,0,0,.07h-.1c.13-.07.24-.29-.08-.33s-.2.23-.05.33h0c-.41.05-.09.33.09.43s.2,0,.27-.12a1.42,1.42,0,0,0,.29-.1c.1-.05.09-.23,0-.35.07,0,.25,0,.35-.05l0,0a.41.41,0,0,0,.1.18c.36.45.4,0,.36-.26a.2.2,0,0,0-.2-.13c.26,0,.55-.5.22-.67a1.1,1.1,0,0,0,.25,0c.42-.07.48-.21.4-.34a.71.71,0,0,0,.16-.35C236.52,175.79,235.86,176.23,235.62,176.52Zm-.57,1.63a.14.14,0,0,0,0-.06.18.18,0,0,0,0-.09l.08.05.06,0A.21.21,0,0,0,235.05,178.15Zm.21-.81a.24.24,0,0,0,0-.08h0a.24.24,0,0,0,.1.1Z"/><path class="cls-18" d="M236.1,175.13c-.34-.38-.35.05-.3.25S236.45,175.5,236.1,175.13Z"/><path class="cls-18" d="M234.72,174.84a1,1,0,0,0,0,.39c0,.25.7.27.51-.16.12.05.24,0,.25-.25,0-.43-.2-.28-.33-.12,0-.09,0-.22-.17-.38-.56-.44-.47.16-.36.42A.24.24,0,0,0,234.72,174.84Zm.36-.11a.15.15,0,0,1,0,.06s0,0,0,0,0,0,0,0A.19.19,0,0,0,235.08,174.73Z"/><path class="cls-18" d="M235.92,174.05a1,1,0,0,0,0,.35c0,.25.67.29.59-.09a.36.36,0,0,0,.16-.11l0,.06a.76.76,0,0,0-.26.3c-.11.22.48.61.46,0a.61.61,0,0,0,0-.22c.17,0,.35-.18.1-.36.19,0,.52-.12.18-.39-.14-.11-.22-.13-.27-.11s0-.27-.28-.4c-.62-.29-.54.12-.38.41-.12,0-.26.12-.26.24C235.8,173.83,235.82,174,235.92,174.05Zm.9-.47a.7.7,0,0,0,.06.34,0,0,0,0,0,0,0l-.09,0a.25.25,0,0,0-.1-.23Z"/><path class="cls-18" d="M237.27,173.44c.18,0,.34-.1.24-.48-.19-.77-.53-.18-.6.13a.17.17,0,0,0,0,.1C236.88,173.37,237,173.65,237.27,173.44Z"/><path class="cls-18" d="M237.4,175c-.15-.13-.47.15-.61.35s.25.67.5.48l.3.12a.33.33,0,0,0,.31-.19l.12-.06a.13.13,0,0,0,0,.06l-.13.06c-.2.1,0,.72.35.26l.07-.11.17,0c.92,0,.38-.53,0-.71-.12-.07-.28,0-.4.13a.41.41,0,0,0-.08-.14c.18,0,.34-.09.35-.49,0,0,0-.06,0-.08.16,0,.29-.18,0-.38s-.28-.13-.3,0a.31.31,0,0,0-.1.05.2.2,0,0,0,0-.09c0-.16-.52-.08-.23.21l.06.06a1,1,0,0,0-.17.24.24.24,0,0,0,0,.23C237.53,174.9,237.44,174.93,237.4,175Z"/><path class="cls-18" d="M238,177.89c-.37.44.12.38.33.29S238.36,177.45,238,177.89Z"/><path class="cls-18" d="M238.68,178.6c-.27.2.2,1,.55.3S238.94,178.41,238.68,178.6Z"/><path class="cls-18" d="M239.64,177.74h0l-.08-.1a.34.34,0,0,0,0-.2c.16,0,.06-.31,0-.44s-.21-.07-.31,0-.28,0-.46,0a.31.31,0,0,1,0-.08c-.05-.14-.31-.15-.42,0l0,0h-.07c.05-.26,0-.37-.11-.4.15-.13-.14-.26-.3-.29s-.26.22-.19.35a.67.67,0,0,0-.19-.09l-.07,0a1.07,1.07,0,0,0-.06-.41c-.11-.32-1.07-.11-.46.46a.89.89,0,0,0,.18.13,1,1,0,0,0,.22.37.22.22,0,0,0,.22,0c.05.27.4.59.62.27a2.18,2.18,0,0,0,.11.27c0,.09.16.11.28.1a.12.12,0,0,0,.09,0,.27.27,0,0,0,.29.09,1.24,1.24,0,0,0,.46.11.38.38,0,0,0,.14,0,.4.4,0,0,0,.17,0c.08.27.42.53.63,0C240.52,177.21,239.89,177.52,239.64,177.74Zm-1.91-1.08,0,0,0,0Z"/><path class="cls-18" d="M240.83,175.33a.5.5,0,0,0-.07-.21c.11-.25-.34-.82-.58-.17-.12.3-.08.43,0,.45l-.18,0c-.2.08-.16.5,0,.6l-.05,0c-.09.1,0,.3.08.41-.15,0-.25.37-.05.43a.35.35,0,0,0-.18.17c-.28.47.17.35.36.23s.06-.34-.07-.4l.12,0c.37-.15.25-.28.08-.35a.68.68,0,0,0,.21-.62h0a.15.15,0,0,0,0-.16,1.15,1.15,0,0,0,.08-.15C240.75,175.64,240.86,175.58,240.83,175.33Zm-.39,0h-.06Z"/><path class="cls-18" d="M239.31,174.8a.62.62,0,0,0,0,.13c0,.21.58.28.4-.13.17-.08-.06-.32-.21-.41S239,174.69,239.31,174.8Z"/><path class="cls-18" d="M239.75,174.13h0c-.24.09-.05.81.37.33h0c.36.1.45,0,.43-.14a.94.94,0,0,0,0-.7.16.16,0,0,0-.08-.1c0-.78-.51-.3-.7,0a.31.31,0,0,0,.08.36l0,.06A.31.31,0,0,0,239.75,174.13Z"/><path class="cls-18" d="M240.3,173.05c.25.23.29.06.27-.11.08.07.25.09.31,0a.16.16,0,0,0,0,.07c-.47.4.08.48.4.45a.42.42,0,0,0,.23.07l.06,0h0c0,.15.37.23.57.24a.18.18,0,0,0,.13-.06l.1.07c.16.08.46-.35,0-.36,0-.21-.13-.41-.52-.21l0,0a.59.59,0,0,0-.15-.35c-.23-.3-.37-.33-.46-.24a.1.1,0,0,0-.11-.06.62.62,0,0,0-.27.05s-.05,0-.07.08a.08.08,0,0,0,0,0c-.18-.35-.29-.11-.31.08C240.45,172.64,240,172.76,240.3,173.05Z"/><path class="cls-18" d="M239.48,172.78c.6.09.28-.32.09-.46S238.88,172.69,239.48,172.78Z"/><path class="cls-18" d="M239.71,172.39h0c0,.1.1.19.35.22.71.06.31-.4.07-.55a.15.15,0,0,0-.13,0c0-.08-.12-.13-.31-.13C239.11,171.92,239.49,172.28,239.71,172.39Z"/><path class="cls-18" d="M241.24,172.41a.13.13,0,0,0,0-.09.37.37,0,0,0,.21,0c.25.14.72.07.44-.49a.78.78,0,0,0-.24-.31s0,0,0,0c.15-.36-.15-.23-.28-.13a.13.13,0,0,0,0,.14l0,0h0c-.49-.23-.44.23-.31.55a.39.39,0,0,0-.13.13C240.7,172.59,241.08,172.5,241.24,172.41Z"/><path class="cls-18" d="M241.31,173.77c-.29-.13-.76.66,0,.61S241.6,173.9,241.31,173.77Z"/><path class="cls-18" d="M242.29,174.16c-.14,0-.24.16,0,.36s.31.11.31,0l.14,0c.84.06.36-.48.06-.66S242.33,174,242.29,174.16Z"/><path class="cls-18" d="M241.67,174.64c-.73-.55-.61.22-.46.55S242.39,175.2,241.67,174.64Z"/><path class="cls-18" d="M242.55,174.69c-.12-.1-.41.14-.23.28a1,1,0,0,0-.18.28.28.28,0,0,0,0,.09c-.1.17,0,.23.19.23s.32.08.37-.13a.36.36,0,0,0,0-.23q0-.11,0-.18C242.8,175,242.65,174.78,242.55,174.69Z"/><path class="cls-18" d="M242.8,175.46c0,.21.64.19.33-.22S242.77,175.26,242.8,175.46Z"/><path class="cls-18" d="M241.79,176.15c0-.14,0-.21-.08-.24l0-.07c-.13-.21-.68,0-.5.29,0,0,0,0,0,.05s-.06.27,0,.41h0a.28.28,0,0,0-.24.22h0a.15.15,0,0,0-.16.08c-.15,0-.3,0-.26.34,0,0,0,.07,0,.1s-.12.53.29.35.27-.27.11-.35a.83.83,0,0,0,.07-.13c.08.07.22.08.44,0,.44-.22.37-.38.18-.48l.07-.08c.11-.15.15-.25.14-.32A.26.26,0,0,0,241.79,176.15Z"/><path class="cls-18" d="M242.06,176.9c.41.26.32-.14.22-.31S241.65,176.64,242.06,176.9Z"/><path class="cls-18" d="M243,176.45s0-.09,0-.15c0-.58-.27-.42-.45-.2-.24,0-.51.07-.28.5s.38.34.46.15c0,.16.31.35.38,0S243.14,176.41,243,176.45Z"/><path class="cls-18" d="M243.38,176.92c-.24.1,0,.8.36.31S243.61,176.82,243.38,176.92Z"/><path class="cls-18" d="M243.64,176.17a.53.53,0,0,0,0-.18c-.07-.19-.63-.05-.26.28.11.1.18.13.23.12a1,1,0,0,0,.05.12c.28.43.37,0,.35-.21S243.77,176.13,243.64,176.17Z"/><path class="cls-18" d="M244.35,175.79a.88.88,0,0,0-.21.57c0,.32.89.5.62-.19l.15-.12C245.15,175.84,244.64,175.08,244.35,175.79Z"/><path class="cls-18" d="M245.16,175.73c0,.17.48.24.3-.13S245.17,175.57,245.16,175.73Z"/><path class="cls-18" d="M244.55,174.86a.07.07,0,0,0,0-.05.55.55,0,0,0,.3.28c.79.41.55-.31.34-.61s-.71,0-.65.3a.36.36,0,0,0-.18-.16.47.47,0,0,0,.14-.27h0c.59,0,.23-.35,0-.46a.19.19,0,0,0-.23.08h0c.05-.07,0-.17-.07-.25.16-.05.26-.19,0-.41-.44-.39-.4.11-.32.33a0,0,0,0,1,0,0,.4.4,0,0,0-.1.27,1.09,1.09,0,0,0,0,.17c-.5.27-.27.46,0,.54a.12.12,0,0,0-.09.14h0c-.11-.05-.25.08-.27.21s-.14.15-.16.35c-.08.74.4.33.57.08a.25.25,0,0,0,0-.26h0C244.34,176,244.55,175.22,244.55,174.86Z"/><path class="cls-18" d="M244.78,174c.11.22.77,0,.29-.37S244.67,173.74,244.78,174Z"/><path class="cls-18" d="M245.38,173l.08-.09a.12.12,0,0,0,0-.12.3.3,0,0,0,.09-.19c.1-.5-.25-.25-.38-.09a.11.11,0,0,0,0,.08.36.36,0,0,0-.11.25c0,.23,0,.31.08.31a.05.05,0,0,1,0,0c-.32.52.18.39.39.26S245.55,173,245.38,173Z"/><path class="cls-18" d="M246.09,173.09a.78.78,0,0,0,.25-.15,1,1,0,0,0,.33.09c.18,0,.3-.3.21-.46a.65.65,0,0,0,.37,0,1.12,1.12,0,0,0,.33,0c.3-.06.28-.81-.13-.74a.31.31,0,0,0-.33.09c0-.09-.06-.29-.14-.4s-.71.17-.19.4a.48.48,0,0,0,.27.06L247,172c-.2.24-.24.39-.19.47a.49.49,0,0,0-.32,0l-.18.1a1.13,1.13,0,0,0-.5-.16c-.28,0-.46.59-.14.69-.06.16.06.46.33.2S246.16,173.13,246.09,173.09Z"/><path class="cls-18" d="M244.33,172.06a.93.93,0,0,0,.2.1l.08,0c-.05.12.19.2.34.22s.33-.55-.13-.37a.91.91,0,0,0-.14.07c.06-.1,0-.22-.12-.23a.37.37,0,0,0-.19-.27c-.53-.43-.45.15-.34.4C244.07,172.06,244.21,172.08,244.33,172.06Z"/><path class="cls-18" d="M245.19,171.21a1.34,1.34,0,0,0,.09.37.28.28,0,0,0,.28.15c-.16.55.43.3.69.1s.05-.46-.13-.59a.26.26,0,0,0-.09-.09c.19,0,.18-.18.08-.33.14-.09-.08-.25-.21-.31h-.09c-.14-.11-.4,0-.49.23a.91.91,0,0,0-.17.09C245.05,170.89,245.09,171.1,245.19,171.21Z"/><path class="cls-18" d="M247,176.45h0c.17-.07.26-.25,0-.57-.5-.62-.59,0-.54.32-.27.09-.51.6-.09.71l0,.05c-.14.28-.1.39,0,.41s.11.06.19,0a.8.8,0,0,0,0,.23c0,.91.52.38.7.06.09-.15,0-.36-.21-.47a.56.56,0,0,0,.3-.34l.06-.08C247.74,176.29,247.29,176.35,247,176.45Z"/><path class="cls-18" d="M246.87,175.22c.18-.24-.48-.84-.58-.1S246.69,175.47,246.87,175.22Z"/><path class="cls-18" d="M247.38,170.71c.42.09.22-.21.09-.33S247,170.61,247.38,170.71Z"/><path class="cls-18" d="M247.38,170.93c0-.17-.56-.08-.25.23S247.43,171.1,247.38,170.93Z"/><path class="cls-18" d="M246.5,172.14c.16.06.38-.38,0-.33S246.34,172.08,246.5,172.14Z"/><path class="cls-18" d="M247.82,175.08l.12-.09c.05-.05,0-.16,0-.24v-.11a1.57,1.57,0,0,0,.35.11c.26.05.49-.46.29-.66a.62.62,0,0,0,0-.33c-.07-.18-.6,0-.27.25l-.2.05a.76.76,0,0,0-.37.2.45.45,0,0,0-.45.09h0a.68.68,0,0,0,0-.28c0-.08-.08-.13-.17-.16a.6.6,0,0,0,0-.12.34.34,0,0,0,.22,0c.17-.06.22-.12.21-.18.52,0,.3-.28.09-.45.2-.11.34-.5-.16-.48-.25,0-.33.07-.34.15s-.1.16-.06.36a.65.65,0,0,0,.09.26.26.26,0,0,0-.12.18.4.4,0,0,0-.23,0c-.07-.51-.5-.08-.66.19s.29.63.52.45a.18.18,0,0,0,.16,0v0a.77.77,0,0,0,.15.18.45.45,0,0,0,.13.41c.25.31.39.3.47.17,0,.09.1.08.2,0A.15.15,0,0,0,247.82,175.08Z"/><path class="cls-18" d="M251,173.38c0-.18-.51-.21-.39.1h-.31l-.05-.1a.54.54,0,0,0,.12-.32c0-.1-.17-.18-.28-.15a.41.41,0,0,0-.07-.11c0-.12,0-.16-.13-.16s-.16-.19-.4-.23l-.13,0a.26.26,0,0,0,0-.28l-.07-.11c-.39-.61-.51,0-.48.29a.24.24,0,0,0,.19.18c-.11.15.15.48.35.63a.28.28,0,0,0,.22,0,1.11,1.11,0,0,0,0,.19l-.1,0a.22.22,0,0,0-.09.1c-.33,0-.16.33,0,.53l0,0c-.16-.13-.38-.12-.51.29a.56.56,0,0,0,0,.12c-.19,0-.34.31-.31.52-.27.11,0,.31.21.36s.18-.05.22-.15l.15,0c.49-.18.48-.36.3-.49l.1-.08a.2.2,0,0,0,.06-.14c.14,0,.28-.12.09-.3a.36.36,0,0,0,.17-.07c.09.11.31,0,.46-.17a1.3,1.3,0,0,0,.2.15c.13.07.33-.09.37-.26C251,173.81,251,173.53,251,173.38Z"/><path class="cls-18" d="M249.85,172c-.37.43.11.38.33.3S250.22,171.59,249.85,172Z"/><path class="cls-18" d="M249.92,171.41c.27.49.44.33.52.07l.11,0c.75,0,.27-.49,0-.66a.32.32,0,0,0-.36.11C249.94,170.84,249.67,171,249.92,171.41Z"/><path class="cls-18" d="M249.76,170.83c.54,0,.23-.31,0-.42S249.22,170.79,249.76,170.83Z"/><path class="cls-18" d="M248,176c-.44.25,0,.36.19.36S248.44,175.79,248,176Z"/></g><polygon class="cls-19" points="222.35 182.82 219.15 182.82 217.31 169.98 222.35 169.98 222.35 182.82"/><polygon class="cls-20" points="217.99 174.73 222.35 174.73 222.35 178.34 218.51 178.34 217.99 174.73"/><rect class="cls-21" x="219.36" y="182.83" width="2.99" height="0.5"/><rect class="cls-22" x="216.88" y="169.22" width="5.47" height="0.75"/><rect class="cls-23" x="217.17" y="167.81" width="5.18" height="1.42"/><rect class="cls-22" x="216.88" y="167.05" width="5.47" height="0.75"/><polygon class="cls-24" points="222.35 167.05 217.63 167.05 218.97 165.87 222.35 165.87 222.35 167.05"/><polygon class="cls-25" points="222.35 182.82 225.55 182.82 227.39 169.98 222.35 169.98 222.35 182.82"/><polygon class="cls-26" points="226.71 174.73 222.35 174.73 222.35 178.34 226.19 178.34 226.71 174.73"/><rect class="cls-21" x="222.35" y="182.83" width="2.99" height="0.5"/><rect class="cls-27" x="222.35" y="169.22" width="5.47" height="0.75"/><rect x="222.35" y="167.81" width="5.18" height="1.42"/><rect class="cls-27" x="222.35" y="167.05" width="5.47" height="0.75"/><polygon class="cls-28" points="222.35 167.05 227.08 167.05 225.73 165.87 222.35 165.87 222.35 167.05"/><path class="cls-29" d="M222.35,178.9a2.37,2.37,0,1,0-2.41-2.37A2.4,2.4,0,0,0,222.35,178.9Z"/><path class="cls-30" d="M222.35,178.9a2.37,2.37,0,1,1,0-4.73Z"/></g></g></g></svg>