<svg xmlns="http://www.w3.org/2000/svg" width="138.56" height="71.86" viewBox="0 0 138.56 71.86"><defs><style>.cls-1{fill:#00841f;}.cls-2{fill:#02bc2e;}.cls-3{fill:#1df250;}.cls-4{fill:#e6e6e6;}</style></defs><title>b-condition-normal</title><g id="Layer_2" data-name="Layer 2"><g id="Lab_Page" data-name="Lab Page"><g id="Blocks"><polygon class="cls-1" points="69.28 71.86 0 35.93 69.28 0 138.56 35.93 69.28 71.86"/><path class="cls-2" d="M117.74,39.54l-44.35,23a9,9,0,0,1-8.23,0l-44.34-23a4,4,0,0,1,0-7.22L51.47,16.43,65.16,9.32a9,9,0,0,1,8.23,0l13.7,7.11,30.65,15.89A4,4,0,0,1,117.74,39.54Z"/><path class="cls-3" d="M87.09,16.43H51.47L65.16,9.32a9,9,0,0,1,8.23,0Z"/><rect class="cls-3" x="43.7" y="43.63" width="40.47" height="5.13"/><rect class="cls-3" x="89.08" y="43.63" width="5.78" height="5.13"/><rect class="cls-3" x="57.2" y="6.87" width="23.04" height="13.82"/><rect class="cls-4" x="67.35" y="12.63" width="2.3" height="5.76"/><polygon class="cls-4" points="69.16 12.4 65.6 8.85 66.42 8.03 63.09 7.98 63.05 11.4 63.91 10.54 67.47 14.09 69.16 12.4"/><polygon class="cls-4" points="73.69 13.53 74.66 10.24 71.46 9.3 72 10.33 67.55 12.68 68.67 14.79 73.12 12.44 73.69 13.53"/><circle class="cls-2" cx="68.5" cy="17.7" r="1.84"/></g></g></g></svg>