<svg xmlns="http://www.w3.org/2000/svg" width="125" height="70" viewBox="0 0 125 70"><defs><style>.cls-1{fill:#fff;}.cls-2{fill:#a6a6a6;}.cls-3{fill:#c2c2c2;}.cls-4{fill:#d9d9d9;}.cls-5{fill:#e6e6e6;}</style></defs><title>b-decision</title><g id="Layer_2" data-name="Layer 2"><g id="Lab_Page" data-name="Lab Page"><g id="Blocks"><rect class="cls-1" width="124.92" height="70"/><polygon class="cls-2" points="62.68 69.19 0.36 35 62.68 0.81 125 35 62.68 69.19"/><path class="cls-3" d="M106.27,38.44,66.38,60.32a7.66,7.66,0,0,1-7.4,0L19.08,38.44a4,4,0,0,1,0-6.88L46.66,16.44,59,9.68a7.66,7.66,0,0,1,7.4,0L78.7,16.44l27.57,15.12A3.94,3.94,0,0,1,106.27,38.44Z"/><path class="cls-4" d="M78.7,16.44h-32L59,9.68a7.66,7.66,0,0,1,7.4,0Z"/><rect class="cls-5" x="39.67" y="42.33" width="36.4" height="4.88"/><rect class="cls-5" x="80.49" y="42.33" width="5.2" height="4.88"/></g></g></g></svg>