<svg xmlns="http://www.w3.org/2000/svg" width="138.56" height="71.86" viewBox="0 0 138.56 71.86"><defs><style>.cls-1{fill:#8e10ad;}.cls-2{fill:#b924dd;}.cls-3{fill:#d154ef;}.cls-4{fill:#e6e6e6;}</style></defs><title>b-for-normal</title><g id="Layer_2" data-name="Layer 2"><g id="Lab_Page" data-name="Lab Page"><g id="Blocks"><polygon class="cls-1" points="69.28 71.86 0 35.93 69.28 0 138.56 35.93 69.28 71.86"/><path class="cls-2" d="M117.74,39.54l-44.35,23a9,9,0,0,1-8.23,0l-44.34-23a4,4,0,0,1,0-7.22L51.47,16.43,65.16,9.32a9,9,0,0,1,8.23,0l13.7,7.11,30.65,15.89A4,4,0,0,1,117.74,39.54Z"/><path class="cls-3" d="M87.09,16.43H51.47L65.16,9.32a9,9,0,0,1,8.23,0Z"/><rect class="cls-3" x="43.7" y="43.63" width="40.47" height="5.13"/><rect class="cls-3" x="89.08" y="43.63" width="5.78" height="5.13"/><rect class="cls-3" x="58.06" y="6.47" width="22.9" height="13.74"/><polygon class="cls-4" points="71.58 8.76 71.58 11.05 74.45 11.05 74.45 15.63 65.28 15.63 65.28 11.05 67 11.05 67 12.2 68.72 11.05 69.29 10.68 70.44 9.91 69.29 9.14 68.72 8.76 67 7.62 67 8.76 62.99 8.76 62.99 17.92 76.74 17.92 76.74 8.76 71.58 8.76"/><circle class="cls-2" cx="68.5" cy="16.58" r="1.84"/></g></g></g></svg>