<svg xmlns="http://www.w3.org/2000/svg" width="98.09" height="50.63" viewBox="0 0 98.09 50.63"><defs><style>.cls-1{fill:#c2c2c2;}</style></defs><title>b-input-output-shadow</title><g id="Layer_2" data-name="Layer 2"><g id="Lab_Page" data-name="Lab Page"><g id="Blocks"><polygon class="cls-1" points="82.27 50.63 0 50.63 15.82 0 98.09 0 82.27 50.63"/><path class="cls-1" d="M89.11,12.09,79.18,41.86a6.14,6.14,0,0,1-5.92,4H14.89c-4.16,0-7.13-3.69-5.91-7.34l9.68-29,.25-.73a6.14,6.14,0,0,1,5.91-4H83.19A6.05,6.05,0,0,1,89.3,9.49,5.28,5.28,0,0,1,89.11,12.09Z"/><path class="cls-1" d="M89.3,9.49H18.66l.25-.73a6.14,6.14,0,0,1,5.91-4H83.19A6.05,6.05,0,0,1,89.3,9.49Z"/><rect class="cls-1" x="15.03" y="38.36" width="45.05" height="3.96"/><rect class="cls-1" x="65.55" y="38.36" width="6.44" height="3.96"/></g></g></g></svg>