<svg xmlns="http://www.w3.org/2000/svg" width="98.09" height="50.68" viewBox="0 0 98.09 50.68"><defs><style>.cls-1{fill:#bd7500;}.cls-2{fill:#e59a03;}.cls-3{fill:#f9af2b;}.cls-4{fill:#e6e6e6;}</style></defs><title>b-operation-normal</title><g id="Layer_2" data-name="Layer 2"><g id="Lab_Page" data-name="Lab Page"><g id="Blocks"><rect class="cls-1" x="0.08" y="0.12" width="97.94" height="50.44" transform="translate(-0.06 0.12) rotate(-0.14)"/><path class="cls-2" d="M92.53,40.16l-.09-29.85a6.22,6.22,0,0,0-6.46-6L12,4.54a6.2,6.2,0,0,0-6.42,6l.09,29.85a5.52,5.52,0,0,0,0,.71,6.29,6.29,0,0,0,6.4,5.25l74-.19a6.27,6.27,0,0,0,6.37-5.28A5.49,5.49,0,0,0,92.53,40.16Z"/><path class="cls-3" d="M92.39,9.56,5.61,9.78A6.27,6.27,0,0,1,12,4.5l74-.18A6.28,6.28,0,0,1,92.39,9.56Z"/><rect class="cls-3" x="14.14" y="39.41" width="55.29" height="3.6" transform="translate(-0.1 0.1) rotate(-0.14)"/><rect class="cls-3" x="76.14" y="39.31" width="7.9" height="3.6" transform="translate(-0.1 0.2) rotate(-0.14)"/><rect class="cls-3" x="37.4" y="0.3" width="22.9" height="13.74"/><rect class="cls-2" x="40.14" y="3.18" width="3.6" height="7.92"/><rect class="cls-2" x="50.22" y="3.18" width="7.2" height="7.92"/><rect class="cls-4" x="44.46" y="5.34" width="5.04" height="1.44"/><rect class="cls-4" x="44.46" y="7.5" width="5.04" height="1.44"/></g></g></g></svg>