<svg xmlns="http://www.w3.org/2000/svg" width="115.64" height="60.82" viewBox="0 0 115.64 60.82"><defs><style>.cls-1{fill:#c2c2c2;}</style></defs><title>b-termial-shadow</title><g id="Layer_2" data-name="Layer 2"><g id="Lab_Page" data-name="Lab Page"><g id="Blocks"><rect class="cls-1" width="115.64" height="60.82" rx="30.41"/><path class="cls-1" d="M108,30.41a23,23,0,0,1-7.34,16.73,25.78,25.78,0,0,1-17.73,6.92H32.75C18.9,54.06,7.68,43.47,7.68,30.41A23,23,0,0,1,15,13.68c.55-.51,1.12-1,1.71-1.46.26-.21.53-.42.8-.61A26,26,0,0,1,32.75,6.76H82.89a26,26,0,0,1,15.22,4.85c.27.19.54.4.81.61A23.1,23.1,0,0,1,108,30.41Z"/><rect class="cls-1" x="26.92" y="46.18" width="50.82" height="3.78"/><rect class="cls-1" x="83.53" y="46.18" width="7.72" height="3.78"/><path class="cls-1" d="M98.92,12.22H16.73c.26-.21.53-.42.8-.61A26,26,0,0,1,32.75,6.76H82.89a26,26,0,0,1,15.22,4.85C98.38,11.8,98.65,12,98.92,12.22Z"/></g></g></g></svg>