<svg xmlns="http://www.w3.org/2000/svg" width="104" height="50" viewBox="0 0 104 50"><defs><style>.cls-1{fill:#fff;}.cls-2{fill:#a6a6a6;}.cls-3{fill:#c2c2c2;}.cls-4{fill:#e6e6e6;}.cls-5{fill:#d9d9d9;}</style></defs><title>b-terminal</title><g id="Layer_2" data-name="Layer 2"><g id="Lab_Page" data-name="Lab Page"><g id="Blocks"><rect class="cls-1" width="104" height="50"/><rect class="cls-2" x="1.84" width="100" height="50" rx="25"/><path class="cls-3" d="M96,25a20.19,20.19,0,0,1-6.47,14.73,22.71,22.71,0,0,1-15.62,6.1H29.76C17.56,45.83,7.67,36.51,7.67,25a20.19,20.19,0,0,1,6.47-14.73A18.78,18.78,0,0,1,15.65,9c.23-.18.46-.36.7-.53A22.87,22.87,0,0,1,29.76,4.17H73.92A22.87,22.87,0,0,1,87.33,8.44L88,9A20.38,20.38,0,0,1,96,25Z"/><rect class="cls-4" x="24.62" y="38.89" width="44.77" height="3.33"/><rect class="cls-4" x="74.48" y="38.89" width="6.8" height="3.33"/><path class="cls-5" d="M88,9H15.65c.23-.18.46-.36.7-.53A22.87,22.87,0,0,1,29.76,4.17H73.92A22.87,22.87,0,0,1,87.33,8.44Z"/></g></g></g></svg>