<svg xmlns="http://www.w3.org/2000/svg" width="83.26" height="43.79" viewBox="0 0 83.26 43.79"><defs><style>.cls-1{fill:#c2c2c2;}</style></defs><title>b-termial-shadow</title><g id="Layer_2" data-name="Layer 2"><g id="Lab_Page" data-name="Lab Page"><g id="Blocks"><rect class="cls-1" width="83.26" height="43.79" rx="21.9"/><path class="cls-1" d="M77.73,21.9a16.52,16.52,0,0,1-5.28,12,18.56,18.56,0,0,1-12.77,5H23.58c-10,0-18-7.62-18-17a16.52,16.52,0,0,1,5.29-12,15.47,15.47,0,0,1,1.23-1l.57-.44a18.71,18.71,0,0,1,11-3.49h36.1a18.69,18.69,0,0,1,11,3.49c.2.14.39.29.58.44A16.62,16.62,0,0,1,77.73,21.9Z"/><rect class="cls-1" x="19.38" y="33.25" width="36.59" height="2.72"/><rect class="cls-1" x="60.14" y="33.25" width="5.56" height="2.72"/><path class="cls-1" d="M71.22,8.8H12.05l.57-.44a18.71,18.71,0,0,1,11-3.49h36.1a18.69,18.69,0,0,1,11,3.49C70.84,8.5,71,8.65,71.22,8.8Z"/></g></g></g></svg>