<svg xmlns="http://www.w3.org/2000/svg" width="155.93" height="80.87" viewBox="0 0 155.93 80.87"><defs><style>.cls-1{fill:#15329b;}.cls-2{fill:#d12c00;}.cls-3{fill:#213ecc;}.cls-4{fill:#3b60ea;}.cls-5{fill:#e6e6e6;}</style></defs><title>b-while-hover</title><g id="Layer_2" data-name="Layer 2"><g id="Lab_Page" data-name="Lab Page"><g id="Blocks"><polygon class="cls-1" points="4.34 40.44 77.97 2.25 151.59 40.44 77.97 78.62 4.34 40.44"/><path class="cls-2" d="M78,4.51l69.28,35.93L78,76.37,8.69,40.44,78,4.51M78,0,76.13,1,6.85,36.89,0,40.44,6.85,44,76.13,79.92l1.84,1,1.84-1L149.09,44l6.84-3.55-6.84-3.55L79.81,1,78,0Z"/><path class="cls-3" d="M126.43,44.05,82.08,67a8.93,8.93,0,0,1-8.23,0l-44.35-23a4,4,0,0,1,0-7.23L60.16,20.93l13.69-7.1a8.93,8.93,0,0,1,8.23,0l13.7,7.1,30.65,15.89A4,4,0,0,1,126.43,44.05Z"/><path class="cls-4" d="M95.78,20.93H60.16l13.69-7.1a8.93,8.93,0,0,1,8.23,0Z"/><rect class="cls-4" x="52.39" y="48.14" width="40.47" height="5.13"/><rect class="cls-4" x="97.77" y="48.14" width="5.78" height="5.13"/><rect class="cls-4" x="66.75" y="10.98" width="22.9" height="13.74"/><polygon class="cls-5" points="80.27 13.27 80.27 15.56 83.14 15.56 83.14 20.14 73.97 20.14 73.97 15.56 75.69 15.56 75.69 16.7 77.41 15.56 77.98 15.18 79.13 14.41 77.98 13.65 77.41 13.27 75.69 12.12 75.69 13.27 71.68 13.27 71.68 22.43 85.42 22.43 85.42 13.27 80.27 13.27"/><circle class="cls-3" cx="77.19" cy="21.09" r="1.84"/></g></g></g></svg>