<svg xmlns="http://www.w3.org/2000/svg" width="106.11" height="58.7" viewBox="0 0 106.11 58.7"><defs><style>.cls-1{fill:#bd7500;}.cls-2{fill:#d12c00;}.cls-3{fill:#e59a03;}.cls-4{fill:#f9af2b;}.cls-5{fill:#e6e6e6;}.cls-6{font-size:14px;fill:#fff;font-family:supermarket;}</style></defs><title>block_drink_price_hover</title><g id="Layer_2" data-name="Layer 2"><g id="Lab_Page" data-name="Lab Page"><g id="Blocks"><rect class="cls-1" x="2.09" y="2.13" width="101.94" height="54.44" transform="translate(-0.07 0.13) rotate(-0.14)"/><path class="cls-2" d="M102,4l.15,50.43-97.94.25L4,4.25,102,4m4-4h-4L4,.25H0v4L.16,54.7v4h4l97.94-.25h4v-4L106,4V0Z"/><path class="cls-3" d="M96.54,44.17l-.09-29.85a6.22,6.22,0,0,0-6.45-6L16,8.55a6.2,6.2,0,0,0-6.42,6l.09,29.85a5.52,5.52,0,0,0,.05.71,6.3,6.3,0,0,0,6.4,5.25l74-.19a6.27,6.27,0,0,0,6.37-5.28A5.49,5.49,0,0,0,96.54,44.17Z"/><path class="cls-4" d="M96.4,13.57l-86.78.22A6.27,6.27,0,0,1,16,8.51l74-.18A6.28,6.28,0,0,1,96.4,13.57Z"/><rect class="cls-4" x="18.15" y="43.42" width="55.29" height="3.6" transform="translate(-0.11 0.11) rotate(-0.14)"/><rect class="cls-4" x="80.15" y="43.32" width="7.9" height="3.6" transform="translate(-0.11 0.21) rotate(-0.14)"/><rect class="cls-4" x="41.41" y="4.31" width="22.9" height="13.74"/><rect class="cls-3" x="44.15" y="7.19" width="3.6" height="7.92"/><rect class="cls-3" x="54.23" y="7.19" width="7.2" height="7.92"/><rect class="cls-5" x="48.47" y="9.35" width="5.04" height="1.44"/><rect class="cls-5" x="48.47" y="11.51" width="5.04" height="1.44"/><text class="cls-6" transform="translate(26.24 28.13)">กำหนดราคา<tspan x="7.2" y="14">เครื่องดื่ม</tspan></text></g></g></g></svg>