<svg xmlns="http://www.w3.org/2000/svg" width="108.97" height="58.63" viewBox="0 0 108.97 58.63"><defs><style>.cls-1{fill:#007184;}.cls-2{fill:#d12c00;}.cls-3{fill:#07abd1;}.cls-4{fill:#42daea;}.cls-5{fill:#e6e6e6;}.cls-6{font-size:14px;fill:#fff;font-family:supermarket;}</style></defs><title>block_order_dessert_hover</title><g id="Layer_2" data-name="Layer 2"><g id="Lab_Page" data-name="Lab Page"><g id="Blocks"><polygon class="cls-1" points="2.72 56.63 19.79 2 106.25 2 89.18 56.63 2.72 56.63"/><path class="cls-2" d="M103.53,4,87.71,54.63H5.44L21.26,4h82.27M109,0H18.32l-.88,2.81L1.62,53.43,0,58.63H90.65l.87-2.81L107.34,5.19,109,0Z"/><path class="cls-3" d="M94.55,16.09,84.62,45.86a6.14,6.14,0,0,1-5.92,4H20.34c-4.17,0-7.14-3.69-5.92-7.34l9.68-29,.25-.73a6.14,6.14,0,0,1,5.91-4H88.63a6.05,6.05,0,0,1,6.11,4.74A5.28,5.28,0,0,1,94.55,16.09Z"/><path class="cls-4" d="M94.74,13.49H24.1l.25-.73a6.14,6.14,0,0,1,5.91-4H88.63A6.05,6.05,0,0,1,94.74,13.49Z"/><rect class="cls-4" x="20.47" y="42.36" width="45.05" height="3.96"/><rect class="cls-4" x="70.99" y="42.36" width="6.44" height="3.96"/><rect class="cls-4" x="42.84" y="4.07" width="22.9" height="13.74"/><rect class="cls-3" x="52.77" y="6.43" width="8.98" height="9.48"/><polygon class="cls-5" points="45.13 8.8 49.88 8.8 49.88 6.43 55.71 11.17 50.33 15.91 50.33 13.07 45.13 13.07 45.13 8.8"/><text class="cls-6" transform="translate(29.04 25.88)">รับออร์เดอร์<tspan x="6.14" y="14">ของหวาน</tspan></text></g></g></g></svg>