<svg xmlns="http://www.w3.org/2000/svg"  width="91.26" height="51.79" viewBox="0 0 91.26 51.79"><defs><style>.cls-1{fill:#8d0400;}.cls-2{fill:#d12c00;}.cls-3{fill:#bf0400;}.cls-4{fill:#e0180e;}.cls-5{fill:#e6e6e6;}.cls-6{font-size:16px;fill:#fff;font-family:supermarket;}</style></defs><title>block_start_hover</title><g id="Layer_2" data-name="Layer 2"><g id="Lab_Page" data-name="Lab Page"><g id="Blocks"><path class="cls-1" d="M25.9,49.79A23.9,23.9,0,1,1,25.9,2H65.37a23.9,23.9,0,0,1,0,47.79Z"/><path class="cls-2" d="M65.37,4a21.9,21.9,0,0,1,0,43.79H25.9A21.9,21.9,0,1,1,25.9,4H65.37m0-4H25.9a25.9,25.9,0,1,0,0,51.79H65.37A25.9,25.9,0,0,0,65.37,0Z"/><path class="cls-3" d="M81.73,25.9a16.52,16.52,0,0,1-5.28,12,18.56,18.56,0,0,1-12.77,5H27.58c-10,0-18-7.62-18-17a16.52,16.52,0,0,1,5.29-12,15.47,15.47,0,0,1,1.23-1l.57-.44a18.71,18.71,0,0,1,11-3.49h36.1a18.69,18.69,0,0,1,11,3.49c.2.14.39.29.58.44A16.62,16.62,0,0,1,81.73,25.9Z"/><rect class="cls-4" x="23.38" y="37.25" width="36.59" height="2.72"/><rect class="cls-4" x="64.14" y="37.25" width="5.56" height="2.72"/><path class="cls-4" d="M75.22,12.8H16.05l.57-.44a18.71,18.71,0,0,1,11-3.49h36.1a18.69,18.69,0,0,1,11,3.49C74.84,12.5,75,12.65,75.22,12.8Z"/><rect class="cls-4" x="34.26" y="4.03" width="22.77" height="13.66"/><circle class="cls-3" cx="45.5" cy="10.86" r="5.76"/><rect class="cls-5" x="42.62" y="7.62" width="5.76" height="3.6"/><rect class="cls-5" x="42.62" y="7.26" width="0.72" height="7.2"/><text class="cls-6" transform="translate(26.28 32.25)">START</text></g></g></g></svg>