<svg xmlns="http://www.w3.org/2000/svg" width="357.09" height="169.71" viewBox="0 0 357.09 169.71"><defs><style>.cls-1{fill:#00841f;}.cls-2{fill:#02bc2e;}.cls-3{fill:#1df250;}.cls-4,.cls-5{fill:#e6e6e6;}.cls-5{font-size:11.52px;font-family:ThaiSansNeue-ExtraBold, ThaiSans Neue;font-weight:800;}.cls-6{fill:#e0180e;}.cls-7{fill:#232323;}.cls-8{fill:#007184;}.cls-9{fill:#07abd1;}.cls-10{fill:#42daea;}.cls-11{font-size:14px;fill:#fff;font-family:supermarket;}</style></defs><title>block_condition_isdessert_full</title><g id="Layer_2" data-name="Layer 2"><g id="Lab_Page" data-name="Lab Page"><g id="Blocks"><polygon class="cls-1" points="178.06 71.86 108.78 35.93 178.06 0 247.34 35.93 178.06 71.86"/><path class="cls-2" d="M226.52,39.54l-44.35,23a9,9,0,0,1-8.22,0l-44.35-23a4,4,0,0,1,0-7.22l30.65-15.89L174,9.32a9,9,0,0,1,8.22,0l13.7,7.11,30.65,15.89A4,4,0,0,1,226.52,39.54Z"/><path class="cls-3" d="M195.87,16.43H160.25L174,9.32a9,9,0,0,1,8.22,0Z"/><rect class="cls-3" x="152.48" y="43.63" width="40.47" height="5.13"/><rect class="cls-3" x="197.86" y="43.63" width="5.78" height="5.13"/><rect class="cls-3" x="165.98" y="6.87" width="23.04" height="13.82"/><rect class="cls-4" x="176.13" y="12.63" width="2.3" height="5.76"/><polygon class="cls-4" points="177.94 12.4 174.38 8.85 175.2 8.03 171.87 7.98 171.83 11.4 172.69 10.54 176.25 14.09 177.94 12.4"/><polygon class="cls-4" points="182.47 13.53 183.44 10.24 180.24 9.3 180.78 10.33 176.34 12.68 177.45 14.79 181.9 12.44 182.47 13.53"/><circle class="cls-2" cx="177.28" cy="17.7" r="1.84"/><rect class="cls-2" x="31.9" y="9.47" width="25.92" height="14.4"/><text class="cls-5" transform="translate(37.6 19.68)">YES</text><rect class="cls-6" x="295.98" y="9.47" width="25.92" height="14.4"/><text class="cls-5" transform="translate(302.78 19.68)">NO</text><polygon class="cls-7" points="56.29 58.27 56.29 44.23 41.76 44.23 41.76 58.27 35.75 58.27 39.95 63.09 49.02 73.27 58.09 63.09 62.3 58.27 56.29 58.27"/><polygon class="cls-7" points="315.29 58.27 315.29 44.23 300.75 44.23 300.75 58.27 294.75 58.27 298.95 63.09 308.02 73.27 317.09 63.09 321.3 58.27 315.29 58.27"/><polygon class="cls-8" points="82.27 123.56 0 123.56 15.82 72.94 98.09 72.94 82.27 123.56"/><path class="cls-9" d="M89.11,85,79.18,114.8a6.14,6.14,0,0,1-5.92,4H14.89c-4.16,0-7.13-3.68-5.91-7.34l9.68-29,.25-.73a6.13,6.13,0,0,1,5.91-4H83.19a6.06,6.06,0,0,1,6.11,4.75A5.24,5.24,0,0,1,89.11,85Z"/><path class="cls-10" d="M89.3,82.43H18.66l.25-.73a6.13,6.13,0,0,1,5.91-4H83.19A6.06,6.06,0,0,1,89.3,82.43Z"/><rect class="cls-10" x="15.03" y="111.3" width="45.05" height="3.96"/><rect class="cls-10" x="65.55" y="111.3" width="6.44" height="3.96"/><rect class="cls-10" x="37.4" y="73" width="22.9" height="13.74"/><rect class="cls-9" x="47.33" y="75.37" width="8.98" height="9.48"/><polygon class="cls-4" points="39.7 77.74 44.44 77.74 44.44 75.37 50.27 80.11 44.88 84.85 44.88 82 39.7 82 39.7 77.74"/><text class="cls-11" transform="translate(23.6 94.82)">รับออร์เดอร์<tspan x="6.14" y="14">ของหวาน</tspan></text><text class="cls-11" transform="translate(153.37 29.82)">รายการที่รับ<tspan x="-15.4" y="14">คือของหวานหรือไม่</tspan></text><polygon class="cls-8" points="341.27 123.56 259 123.56 274.82 72.94 357.09 72.94 341.27 123.56"/><path class="cls-9" d="M348.11,85l-9.93,29.78a6.14,6.14,0,0,1-5.92,4H273.89c-4.16,0-7.13-3.68-5.91-7.34l9.68-29,.25-.73a6.13,6.13,0,0,1,5.91-4h58.37a6.06,6.06,0,0,1,6.11,4.75A5.24,5.24,0,0,1,348.11,85Z"/><path class="cls-10" d="M348.3,82.43H277.66l.25-.73a6.13,6.13,0,0,1,5.91-4h58.37A6.06,6.06,0,0,1,348.3,82.43Z"/><rect class="cls-10" x="274.03" y="111.3" width="45.05" height="3.96"/><rect class="cls-10" x="324.55" y="111.3" width="6.44" height="3.96"/><rect class="cls-10" x="296.4" y="73" width="22.9" height="13.74"/><rect class="cls-9" x="306.33" y="75.37" width="8.98" height="9.48"/><polygon class="cls-4" points="298.69 77.74 303.44 77.74 303.44 75.37 309.27 80.11 303.88 84.85 303.88 82 298.69 82 298.69 77.74"/><text class="cls-11" transform="translate(281.6 95.82)">รับออร์เดอร์<tspan x="6.82" y="14">เครื่องดื่ม</tspan></text><rect class="cls-7" x="41.75" y="29.42" width="67" height="15"/><rect class="cls-7" x="248.75" y="29.42" width="67" height="15"/><rect class="cls-7" x="42.75" y="147.42" width="125" height="15"/><rect class="cls-7" x="37.75" y="128.42" width="25" height="15" transform="translate(186.16 85.67) rotate(90)"/><rect class="cls-7" x="295.75" y="128.42" width="25" height="15" transform="translate(444.16 -172.33) rotate(90)"/><rect class="cls-7" x="188.75" y="147.42" width="127" height="15"/><circle class="cls-1" cx="178.18" cy="155.15" r="14.56"/><circle class="cls-2" cx="178.18" cy="155.15" r="9.27"/></g></g></g></svg>