<svg xmlns="http://www.w3.org/2000/svg" width="108.97" height="58.63" viewBox="0 0 108.97 58.63"><defs><style>.cls-1{fill:#8e10ad;}.cls-2{fill:#d12c00;}.cls-3{fill:#b924dd;}.cls-4{fill:#d154ef;}.cls-5{font-size:14px;fill:#fff;font-family:supermarket;}.cls-6{fill:#e6e6e6;}</style></defs><title>block_tell_price_hover</title><g id="Layer_2" data-name="Layer 2"><g id="Lab_Page" data-name="Lab Page"><g id="Blocks"><polygon class="cls-1" points="2.72 56.63 19.79 2 106.25 2 89.18 56.63 2.72 56.63"/><path class="cls-2" d="M103.53,4,87.71,54.63H5.44L21.26,4h82.27M109,0H18.32l-.88,2.81L1.62,53.43,0,58.63H90.65l.87-2.81L107.34,5.19,109,0Z"/><path class="cls-3" d="M94.55,16.09,84.62,45.86a6.14,6.14,0,0,1-5.92,4H20.34c-4.17,0-7.14-3.69-5.92-7.34l9.68-29,.25-.73a6.14,6.14,0,0,1,5.91-4H88.63a6.05,6.05,0,0,1,6.11,4.74A5.28,5.28,0,0,1,94.55,16.09Z"/><path class="cls-4" d="M94.74,13.49H24.1l.25-.73a6.14,6.14,0,0,1,5.91-4H88.63A6.05,6.05,0,0,1,94.74,13.49Z"/><rect class="cls-4" x="20.47" y="42.36" width="45.05" height="3.96"/><rect class="cls-4" x="70.99" y="42.36" width="6.44" height="3.96"/><text class="cls-5" transform="translate(32.79 34.09)">บอกราคา</text><rect class="cls-4" x="42.98" y="4.07" width="22.77" height="13.66"/><rect class="cls-1" x="45.65" y="6.43" width="8.93" height="9.42"/><polygon class="cls-6" points="53.17 8.79 58.6 8.79 58.6 6.43 64.4 11.14 59.05 15.85 59.05 13.02 53.17 13.02 53.17 8.79"/></g></g></g></svg>