<svg xmlns="http://www.w3.org/2000/svg" width="98.09" height="50.63" viewBox="0 0 98.09 50.63"><defs><style>.cls-1{fill:#007184;}.cls-2{fill:#07abd1;}.cls-3{fill:#42daea;}.cls-4{fill:#e6e6e6;}.cls-5{font-size:14px;fill:#fff;font-family:supermarket;}</style></defs><title>block_count_customer</title><g id="Layer_2" data-name="Layer 2"><g id="Lab_Page" data-name="Lab Page"><g id="Blocks"><polygon class="cls-1" points="82.27 50.63 0 50.63 15.82 0 98.09 0 82.27 50.63"/><path class="cls-2" d="M89.11,12.09,79.18,41.86a6.14,6.14,0,0,1-5.92,4H14.89c-4.16,0-7.13-3.69-5.91-7.34l9.68-29,.25-.73a6.14,6.14,0,0,1,5.91-4H83.19A6.05,6.05,0,0,1,89.3,9.49,5.28,5.28,0,0,1,89.11,12.09Z"/><path class="cls-3" d="M89.3,9.49H18.66l.25-.73a6.14,6.14,0,0,1,5.91-4H83.19A6.05,6.05,0,0,1,89.3,9.49Z"/><rect class="cls-3" x="15.03" y="38.36" width="45.05" height="3.96"/><rect class="cls-3" x="65.55" y="38.36" width="6.44" height="3.96"/><rect class="cls-3" x="37.4" y="0.07" width="22.9" height="13.74"/><rect class="cls-2" x="47.33" y="2.43" width="8.98" height="9.48"/><polygon class="cls-4" points="39.7 4.8 44.44 4.8 44.44 2.44 50.27 7.17 44.88 11.91 44.88 9.07 39.7 9.07 39.7 4.8"/><text class="cls-5" transform="translate(39.46 21.88)">ถาม<tspan x="-19.09" y="14">จำนวนลูกค้า</tspan></text></g></g></g></svg>