<svg xmlns="http://www.w3.org/2000/svg" width="155.93" height="80.87" viewBox="0 0 155.93 80.87"><defs><style>.cls-1{fill:#00841f;}.cls-2{fill:#d12c00;}.cls-3{fill:#02bc2e;}.cls-4{fill:#1df250;}.cls-5{fill:#e6e6e6;}.cls-6{font-size:14px;fill:#fff;font-family:supermarket;}</style></defs><title>block_condition_isdessert_hover</title><g id="Layer_2" data-name="Layer 2"><g id="Lab_Page" data-name="Lab Page"><g id="Blocks"><polygon class="cls-1" points="4.34 40.44 77.97 2.25 151.59 40.44 77.97 78.62 4.34 40.44"/><path class="cls-2" d="M78,4.51l69.28,35.93L78,76.37,8.69,40.44,78,4.51M78,0,76.13,1,6.85,36.88,0,40.44,6.85,44,76.13,79.92l1.84,1,1.84-1L149.09,44l6.84-3.55-6.84-3.56L79.81,1,78,0Z"/><path class="cls-3" d="M126.43,44.05,82.08,67a8.93,8.93,0,0,1-8.23,0l-44.35-23a4,4,0,0,1,0-7.23L60.16,20.93l13.69-7.1a8.93,8.93,0,0,1,8.23,0l13.7,7.1,30.65,15.89A4,4,0,0,1,126.43,44.05Z"/><path class="cls-4" d="M95.78,20.93H60.16l13.69-7.1a8.93,8.93,0,0,1,8.23,0Z"/><rect class="cls-4" x="52.39" y="48.14" width="40.47" height="5.13"/><rect class="cls-4" x="97.77" y="48.14" width="5.78" height="5.13"/><rect class="cls-4" x="65.89" y="11.38" width="23.04" height="13.82"/><rect class="cls-5" x="76.04" y="17.14" width="2.3" height="5.76"/><polygon class="cls-5" points="77.85 16.91 74.29 13.35 75.11 12.53 71.78 12.49 71.73 15.91 72.6 15.04 76.16 18.6 77.85 16.91"/><polygon class="cls-5" points="82.38 18.03 83.35 14.75 80.15 13.81 80.69 14.84 76.24 17.19 77.36 19.3 81.81 16.95 82.38 18.03"/><circle class="cls-3" cx="77.19" cy="22.21" r="1.84"/><text class="cls-6" transform="translate(53.27 34.32)">รายการที่รับ<tspan x="-15.4" y="14">คือของหวานหรือไม่</tspan></text></g></g></g></svg>