<svg xmlns="http://www.w3.org/2000/svg" width="357.09" height="168.71" viewBox="0 0 321.9 168.71"><defs><style>.cls-1{fill:#8e10ad;}.cls-2{fill:#b924dd;}.cls-3{fill:#d154ef;}.cls-4{font-size:14px;fill:#fff;font-family:supermarket;}.cls-5,.cls-9{fill:#e6e6e6;}.cls-6{fill:#00841f;}.cls-7{fill:#02bc2e;}.cls-8{fill:#1df250;}.cls-9{font-size:11.52px;font-family:ThaiSansNeue-ExtraBold, ThaiSans Neue;font-weight:800;}.cls-10{fill:#e0180e;}.cls-11{fill:#232323;}</style></defs><title>block_condition_price_full</title><g id="Layer_2" data-name="Layer 2"><g id="Lab_Page" data-name="Lab Page"><g id="Blocks"><polygon class="cls-1" points="82.27 122.35 0 122.35 15.82 71.73 98.09 71.73 82.27 122.35"/><path class="cls-2" d="M89.11,83.81l-9.93,29.78a6.14,6.14,0,0,1-5.92,4H14.89c-4.16,0-7.13-3.69-5.91-7.34l9.68-29,.25-.73a6.13,6.13,0,0,1,5.91-4H83.19a6.06,6.06,0,0,1,6.11,4.75A5.24,5.24,0,0,1,89.11,83.81Z"/><path class="cls-3" d="M89.3,81.22H18.66l.25-.73a6.13,6.13,0,0,1,5.91-4H83.19A6.06,6.06,0,0,1,89.3,81.22Z"/><rect class="cls-3" x="15.03" y="110.09" width="45.05" height="3.96"/><rect class="cls-3" x="65.55" y="110.09" width="6.44" height="3.96"/><text class="cls-4" transform="translate(27.35 101.82)">บอกราคา</text><rect class="cls-3" x="37.54" y="71.8" width="22.77" height="13.66"/><rect class="cls-1" x="40.21" y="74.16" width="8.93" height="9.42"/><polygon class="cls-5" points="47.73 76.51 53.16 76.51 53.16 74.16 58.96 78.87 53.61 83.58 53.61 80.75 47.73 80.75 47.73 76.51"/><polygon class="cls-6" points="177.06 71.86 107.78 35.93 177.06 0 246.34 35.93 177.06 71.86"/><path class="cls-7" d="M225.52,39.54l-44.35,23a9,9,0,0,1-8.22,0l-44.35-23a4,4,0,0,1,0-7.22l30.65-15.89L173,9.32a9,9,0,0,1,8.22,0l13.7,7.11,30.65,15.89A4,4,0,0,1,225.52,39.54Z"/><path class="cls-8" d="M194.87,16.43H159.25L173,9.32a9,9,0,0,1,8.22,0Z"/><rect class="cls-8" x="151.48" y="43.63" width="40.47" height="5.13"/><rect class="cls-8" x="196.86" y="43.63" width="5.78" height="5.13"/><rect class="cls-8" x="164.98" y="6.87" width="23.04" height="13.82"/><rect class="cls-5" x="175.13" y="12.63" width="2.3" height="5.76"/><polygon class="cls-5" points="176.94 12.4 173.38 8.85 174.2 8.03 170.87 7.98 170.83 11.4 171.69 10.54 175.25 14.09 176.94 12.4"/><polygon class="cls-5" points="181.47 13.53 182.44 10.24 179.24 9.3 179.78 10.33 175.34 12.68 176.45 14.79 180.9 12.44 181.47 13.53"/><circle class="cls-7" cx="176.28" cy="17.7" r="1.84"/><text class="cls-4" transform="translate(159.44 29.82)">ราคารวม<tspan x="-22.01" y="14">มากกว่า 10 หรือไม่</tspan></text><rect class="cls-7" x="31.9" y="8.47" width="25.92" height="14.4"/><text class="cls-9" transform="translate(37.6 18.68)">YES</text><rect class="cls-10" x="295.98" y="8.47" width="25.92" height="14.4"/><text class="cls-9" transform="translate(302.78 18.68)">NO</text><polygon class="cls-11" points="56.29 57.27 56.29 43.23 41.76 43.23 41.76 57.27 35.75 57.27 39.95 62.09 49.02 72.27 58.09 62.09 62.3 57.27 56.29 57.27"/><rect class="cls-11" x="41.75" y="28.42" width="67" height="15"/><rect class="cls-11" x="248.75" y="28.42" width="67" height="15"/><rect class="cls-11" x="42.75" y="146.42" width="125" height="15"/><rect class="cls-11" x="37.75" y="127.42" width="25" height="15" transform="translate(185.16 84.67) rotate(90)"/><rect class="cls-11" x="249.25" y="80.92" width="118" height="15" transform="translate(396.66 -219.83) rotate(90)"/><rect class="cls-11" x="188.75" y="146.42" width="127" height="15"/><circle class="cls-6" cx="178.18" cy="154.15" r="14.56"/><circle class="cls-7" cx="178.18" cy="154.15" r="9.27"/></g></g></g></svg>