<svg xmlns="http://www.w3.org/2000/svg" xmlns:xlink="http://www.w3.org/1999/xlink" width="121.62" height="49.41" viewBox="0 0 121.62 49.41"><defs><style>.cls-1{fill:#fff;}.cls-2{fill:url(#linear-gradient);}.cls-3{font-size:24.32px;fill:#00d13b;font-family:Quark-Bold, Quark;font-weight:700;}.cls-4{fill:url(#linear-gradient-2);}</style><linearGradient id="linear-gradient" x1="60.81" x2="60.81" y2="49.41" gradientUnits="userSpaceOnUse"><stop offset="0" stop-color="#81ef37"/><stop offset="1" stop-color="#00d13b"/></linearGradient><linearGradient id="linear-gradient-2" x1="32.69" y1="9.88" x2="32.69" y2="39.53" xlink:href="#linear-gradient"/></defs><title>c-step</title><g id="Layer_2" data-name="Layer 2"><g id="Lab_Page" data-name="Lab Page"><rect class="cls-1" width="121.62" height="49.41" rx="24.7"/><path class="cls-2" d="M96.92,3a21.71,21.71,0,0,1,0,43.41H24.7A21.71,21.71,0,0,1,24.7,3H96.92m0-3H24.7a24.71,24.71,0,0,0,0,49.41H96.92A24.71,24.71,0,0,0,96.92,0Z"/><text class="cls-3" transform="translate(49.26 33.57)">STEP</text><polygon class="cls-4" points="39.53 9.88 39.53 23.72 22.04 9.88 22.04 39.53 39.53 24.96 39.53 39.53 43.33 39.53 43.33 9.88 39.53 9.88"/></g></g></svg>