<svg xmlns="http://www.w3.org/2000/svg" viewBox="0 0 373.11 67.88"><defs><style>.cls-1,.cls-8{fill:#381e14;}.cls-2{fill:#141414;}.cls-3{fill:#542f1f;}.cls-4{fill:#693b27;}.cls-5{fill:#78422c;}.cls-6{font-size:18px;fill:#f0f0f0;}.cls-6,.cls-8{font-family:ThaiSansNeue-Black, ThaiSans Neue;font-weight:800;}.cls-7{letter-spacing:-0.02em;}.cls-8{font-size:54.96px;stroke:#381e14;stroke-miterlimit:10;}.cls-9{letter-spacing:-0.02em;}.cls-10{font-size:30px;fill:#07abd1;font-family:Quark-Bold, Quark;font-weight:700;}</style></defs><title>logo-lesson</title><g id="Layer_2" data-name="Layer 2"><g id="LessonList_Page" data-name="LessonList Page"><g id="Navbar"><rect class="cls-1" y="11.42" width="53.29" height="35.02"/><rect class="cls-2" x="21.01" width="12.04" height="5.07"/><polygon class="cls-2" points="35.78 5.07 33.04 8.49 27.02 16.01 21.01 8.49 18.27 5.07 35.78 5.07"/><rect class="cls-2" x="21.01" y="40.47" width="12.04" height="8.59"/><polygon class="cls-2" points="35.78 49.06 33.04 52.48 27.02 60 21.01 52.48 18.27 49.06 35.78 49.06"/><path class="cls-3" d="M48.72,19.53V38.32a4.57,4.57,0,0,1-4.79,4.31H9.36a4.57,4.57,0,0,1-4.79-4.31V19.53a2.89,2.89,0,0,1,0-.5,2.5,2.5,0,0,1,.06-.38,4.68,4.68,0,0,1,4.69-3.42H43.93a4.69,4.69,0,0,1,4.69,3.42,2.5,2.5,0,0,1,.06.38A2.89,2.89,0,0,1,48.72,19.53Z"/><rect class="cls-4" x="38.06" y="36.16" width="5.33" height="3.05"/><rect class="cls-4" x="11.42" y="36.16" width="23.6" height="3.05"/><path class="cls-5" d="M48.68,19H4.61a2.5,2.5,0,0,1,.06-.38,4.68,4.68,0,0,1,4.69-3.42H43.93a4.69,4.69,0,0,1,4.69,3.42A2.5,2.5,0,0,1,48.68,19Z"/><text class="cls-6" transform="translate(9.2 33.67)">F<tspan class="cls-7" x="6.71" y="0">LO</tspan><tspan x="23.13" y="0">W</tspan></text><text class="cls-8" transform="translate(66.44 45.31)">F<tspan class="cls-9" x="20.5" y="0">LO</tspan><tspan x="70.62" y="0">TERIA</tspan></text><text class="cls-10" transform="translate(255.48 55.28)">LESSONS</text></g></g></g></svg>