<svg xmlns="http://www.w3.org/2000/svg" width="76.145" height='40' viewBox="0 0 152.29 80"><defs><style>.cls-1{isolation:isolate;}.cls-2{fill:#f1a848;}.cls-3{fill:#f7c56b;}.cls-4{fill:#e38238;}.cls-5{fill:#e89c49;}.cls-6{fill:#b36124;}.cls-7{fill:#d3712f;}.cls-8{fill:#e89842;}.cls-9{mix-blend-mode:screen;}.cls-10{fill:#240d00;}.cls-11{mix-blend-mode:multiply;}.cls-12{fill:#faf2f2;}</style></defs><title>o_bread</title><g class="cls-1"><g id="Layer_2" data-name="Layer 2"><g id="action_font" data-name="action font"><g id="desk"><path class="cls-2" d="M103.5,3.29s9.7,11.23,14.33,22.92C112.54,18.27,96.45,3.29,96.45,3.29A20.52,20.52,0,0,1,103.5,3.29Z"/><path class="cls-2" d="M74,11.89s10.36,12.78,15.65,22.8c-11.9-5-22.92-22.8-22.92-22.8Z"/><path class="cls-2" d="M44.22,23.12a257.22,257.22,0,0,0,22.7,25.79c-15.64-5.3-28.43-25.12-28.43-25.12Z"/><path class="cls-2" d="M35.82,57.7A41.34,41.34,0,0,1,14.91,42.3l2.43-1.76S26.8,48.89,35.82,57.7Z"/><path class="cls-3" d="M107,.64c11.16,8.82,10.87,25.57,10.87,25.57C113.2,14.52,103.5,3.29,103.5,3.29,104.17,1.31,107,.64,107,.64Z"/><path class="cls-3" d="M74,11.89l2.43-3.1c11.9,9,13.22,25.9,13.22,25.9C84.33,24.67,74,11.89,74,11.89Z"/><path class="cls-3" d="M44.22,23.12c.66-1.55,3.3-2.64,3.3-2.64,16.75,8.6,19.4,28.43,19.4,28.43A257.22,257.22,0,0,1,44.22,23.12Z"/><path class="cls-3" d="M18.44,37.67a54.07,54.07,0,0,1,17.41,20h0c-9-8.81-18.48-17.16-18.48-17.16Z"/><path class="cls-4" d="M1.91,69.17c-5.95-13.06,13-26.87,13-26.87A41.34,41.34,0,0,0,35.82,57.7h0a54.07,54.07,0,0,0-17.41-20c3.31-5.29,20.05-13.88,20.05-13.88S51.28,43.61,66.92,48.91c0,0-2.65-19.83-19.4-28.43C57.66,13.2,66.7,11.89,66.7,11.89s11,17.84,22.92,22.8c0,0-1.32-16.86-13.22-25.9,7.49-4.18,20-5.5,20-5.5s16.09,15,21.38,22.92c0,0,.29-16.75-10.87-25.57,0,0,32-2.35,42.6,13.23s-18.8,35-53.77,47.89C49.93,78.71,10.73,88.58,1.91,69.17Z"/><path class="cls-5" d="M149.71,27c-.15-2.84-.51-5.19-1.53-6.86a9.57,9.57,0,0,0-1.59-2.1c-.31-.3-.6-.59-.93-.86-.14-.11-.37-.33-.47-.34-.22-.18-.5-.51-.65-.59a42.94,42.94,0,0,0-10.3-5.35c-4-1.51-8.3-2.88-12.85-4.36A128.81,128.81,0,0,1,107,1l-.06-.76a78.46,78.46,0,0,1,15.17.23A61.54,61.54,0,0,1,137,3.8c4.74,1.86,9.32,4.62,12.48,8.82a13.08,13.08,0,0,1,2.85,7.22,14.5,14.5,0,0,1-1.89,7.47Z"/><path class="cls-6" d="M17.9,79.25a74.09,74.09,0,0,0,18-1.7A171.1,171.1,0,0,0,53.4,73.23c5.77-1.78,11.55-3.51,17.26-5.49s11.46-3.9,17.14-6a307,307,0,0,0,33.46-13.59,117.82,117.82,0,0,0,15.61-8.91c5-3.29,9.72-7.11,13-12.19l.27.14a30.6,30.6,0,0,1-5.45,7.33,61.55,61.55,0,0,1-6.9,6,119.69,119.69,0,0,1-15.46,9.71A241.94,241.94,0,0,1,88.83,64.62c-11.47,4.07-23,7.88-34.84,10.9a167.34,167.34,0,0,1-17.9,3.62,67.8,67.8,0,0,1-18.22.41Z"/><path class="cls-5" d="M15.13,42.6c-1.72,4.7-3.59,8.54-5.06,12.1a27.89,27.89,0,0,0-2.49,8.84,7.24,7.24,0,0,0,0,1.55,7,7,0,0,0,.3,1.64A15,15,0,0,0,9.52,70.5C11,73.14,14.07,75.81,17.94,79l-.11.75a30,30,0,0,1-6.44-1.4,19.1,19.1,0,0,1-5.81-3.27,16.24,16.24,0,0,1-4.14-5.3A13.52,13.52,0,0,1,0,63.19C.29,58.58,2.58,54.51,5.22,51A44.41,44.41,0,0,1,14.68,42Z"/><path class="cls-3" d="M18.51,37.69a3.86,3.86,0,0,1,.39,1.8A4.14,4.14,0,0,1,18.6,41l-.15.4-.32.21a4.15,4.15,0,0,1-1.38.64,3.8,3.8,0,0,1-1.8.07l-.09-.12,2.38-1.81,0,.07,1.17-2.85Z"/><path class="cls-5" d="M38.59,24a19.18,19.18,0,0,1-3.86,5.58,26.36,26.36,0,0,1-4.68,3.79A29.66,29.66,0,0,1,24.79,36c-.93.36-1.92.62-2.9.93s-2,.53-3.26.88l-.39-.24a17.62,17.62,0,0,1,4.33-4.45c1.62-1.28,3.32-2.45,5-3.58s3.52-2.12,5.32-3.11,3.6-2,5.47-2.82Z"/><path class="cls-3" d="M47.55,20.54c-.46.71-.92,1.26-1.32,1.8a5,5,0,0,0-.79,1.3l-.17.62-.9.18a9.79,9.79,0,0,1-1.43.17,14,14,0,0,1-1.45,0,8.46,8.46,0,0,1-3-.76l0-.15,2.86-.37c.95-.11,1.9-.27,2.86-.35l-.11.08a4.31,4.31,0,0,1,1.5-1.61,10.33,10.33,0,0,1,1.9-1.05Z"/><path class="cls-5" d="M66.73,12.1a21.53,21.53,0,0,1-4.11,4.22,21.18,21.18,0,0,1-4.26,2.57,22.1,22.1,0,0,1-4.76,1.53,18.87,18.87,0,0,1-5.94.24l-.27-.37a47.61,47.61,0,0,1,9.09-5.54,51.5,51.5,0,0,1,5-1.89,27.86,27.86,0,0,1,5.2-1.21Z"/><path class="cls-3" d="M76.45,8.84a7.94,7.94,0,0,1-.58,2A11.91,11.91,0,0,1,75,12.66l-.23.37-.76.11a15.86,15.86,0,0,1-1.82.1,16.1,16.1,0,0,1-1.82-.14,10,10,0,0,1-1.82-.39A7.72,7.72,0,0,1,66.7,12V11.8c2.42,0,4.85-.11,7.27-.05l-.1.05,2.46-3.05Z"/><path class="cls-5" d="M96.47,3.51a16.51,16.51,0,0,1-4.6,3.77,18.86,18.86,0,0,1-4.69,1.86,20.46,20.46,0,0,1-4.92.61A23.71,23.71,0,0,1,76.5,9l-.22-.39A25.07,25.07,0,0,1,81,6.32c1.65-.61,3.33-1.13,5-1.59s3.43-.74,5.15-1a48.09,48.09,0,0,1,5.21-.63Z"/><path class="cls-3" d="M107,.72a15.77,15.77,0,0,0-1.53,1.62,2.85,2.85,0,0,0-.7,1.36l-.12,1.1-1.39-.23c-.46-.08-1.06-.08-1.59-.17s-1.1-.13-1.66-.22a19.48,19.48,0,0,1-3.52-.82l0-.15A22.21,22.21,0,0,1,100,2.87a16.4,16.4,0,0,1,3.56.28l-.16.09a3.63,3.63,0,0,1,1.47-1.76,7.06,7.06,0,0,1,2.09-.91Z"/><path class="cls-7" d="M35.82,57.79a37.06,37.06,0,0,1-6.13-2.51A44.4,44.4,0,0,1,24,51.82a38.86,38.86,0,0,1-9.18-9.49l.12-.08c.86.74,1.62,1.53,2.47,2.23S19,46,19.87,46.64c1.67,1.37,3.31,2.72,5.06,4s3.5,2.44,5.31,3.61,3.68,2.32,5.62,3.44Z"/><path class="cls-8" d="M18.47,37.6a22.41,22.41,0,0,1,6,3.42,34.67,34.67,0,0,1,5,4.72,33,33,0,0,1,3.91,5.62c.54,1,1.06,2,1.52,3.07a25.31,25.31,0,0,1,1.09,3.25l-.13.07a57.18,57.18,0,0,0-7.54-11,55.53,55.53,0,0,0-4.63-4.83,41.85,41.85,0,0,0-5.22-4.17Z"/><path class="cls-8" d="M66.84,48.91a42.14,42.14,0,0,0-2.42-8.53,43.26,43.26,0,0,0-4.06-7.89,33.9,33.9,0,0,0-12.87-12l.07-.13a23.28,23.28,0,0,1,4.18,1.79,33.35,33.35,0,0,1,3.78,2.6,29.81,29.81,0,0,1,6.11,6.86,34.42,34.42,0,0,1,3.9,8.28,28.49,28.49,0,0,1,1.46,9Z"/><path class="cls-7" d="M38.55,23.74a88.17,88.17,0,0,0,5.83,7.65,89,89,0,0,0,6.61,7c4.64,4.38,9.88,8.34,15.95,10.46l0,.14a24.6,24.6,0,0,1-4.72-1.34,41.11,41.11,0,0,1-4.4-2.21,51,51,0,0,1-7.82-6,66.94,66.94,0,0,1-6.47-7.32q-1.44-2-2.76-4a43.3,43.3,0,0,1-2.29-4.31Z"/><path class="cls-8" d="M89.54,34.69a43.11,43.11,0,0,0-1.48-7.28,44.1,44.1,0,0,0-2.65-6.94A31.22,31.22,0,0,0,76.35,8.86l.09-.13a19.64,19.64,0,0,1,3.26,2,29.17,29.17,0,0,1,2.8,2.65,26.45,26.45,0,0,1,4.27,6.41,31.59,31.59,0,0,1,2.44,7.27,24.88,24.88,0,0,1,.48,7.6Z"/><path class="cls-7" d="M66.76,11.84a92.75,92.75,0,0,0,10,12.88,56.14,56.14,0,0,0,5.94,5.6,29.94,29.94,0,0,0,6.91,4.3l-.06.14a18.88,18.88,0,0,1-4-1.38A34.74,34.74,0,0,1,82,31.24a38.36,38.36,0,0,1-6.3-5.49,51.24,51.24,0,0,1-5.15-6.52,39.81,39.81,0,0,1-3.92-7.31Z"/><path class="cls-8" d="M117.75,26.2a40.16,40.16,0,0,0-.77-7.09,39.86,39.86,0,0,0-2-6.86A26.78,26.78,0,0,0,106.91.7L107,.58a17.3,17.3,0,0,1,3.1,2,24.21,24.21,0,0,1,2.59,2.67,23.31,23.31,0,0,1,3.72,6.44,28.63,28.63,0,0,1,1.74,7.18,23,23,0,0,1-.25,7.32Z"/><path class="cls-7" d="M96.5,3.23q5.75,5.35,11.23,11c1.81,1.89,3.58,3.81,5.3,5.79a62.75,62.75,0,0,1,4.86,6.17l-.13.08-5.61-5.48c-1.89-1.79-3.68-3.66-5.51-5.51A112.77,112.77,0,0,1,96.4,3.34Z"/><g class="cls-9"><path class="cls-10" d="M130.13,11.88c1.15,1.15,2.74,2,3,0,.49.22,1.27-.08,2.46-1.35l0,0c1,.92,1.68-.36,1.5-1.14a1.65,1.65,0,0,0-.91-1.83c-1-.87-3.22-.73-3.55.45a5.93,5.93,0,0,0-.13.66,1.3,1.3,0,0,0-1.66-.48,2.63,2.63,0,0,0,.75-1c1.24-2.51-2-2-2-.89,0,.78.37,2.11,1,2a2.72,2.72,0,0,0-.53.38c-1.41-1.46-3.57-2.6-3.08,1.51C127.34,13.11,129.06,12.89,130.13,11.88Z"/><path class="cls-10" d="M135.88,21.9a5.86,5.86,0,0,0-.53.41,1.61,1.61,0,0,0-.68-.26c.54-.62.58-1.28-1-1.43a1.9,1.9,0,0,0-1-2,8.58,8.58,0,0,0-2.7-.46l-.41-.27c-3.67-2.24-3.37,2.82-1.64,2.92a6,6,0,0,0,1,0,8.64,8.64,0,0,0,.68.83c1.12,1.23,2,1.5,2.7,1.27a.93.93,0,0,0,.94.17c-.32.85-.21,2,.49,2.25l.07,0a2.27,2.27,0,0,0,1.61.42,3.2,3.2,0,0,0,1.08,0c1,.84,1.74.06,1.94-.82C139.83,23.55,137.19,21,135.88,21.9Z"/><path class="cls-10" d="M147.26,14.29c.39-.67,0-1.44-2.22-2.16-4.25-1.38-3.52,2.78-1.91,3.69a1.25,1.25,0,0,0-.32.58,2.14,2.14,0,0,0-1.65-.88,5.88,5.88,0,0,0-.73-.85c-1.62-1.59-2.5-.53-2.59.58-.24.16-.34.53-.2,1.2-1.3-.12-2.52.27-.72,2.2.7.75,1.26.93,1.68.82.26,1.5,1.16,2.34,3.35-.2a3.47,3.47,0,0,0,1-2.15,5,5,0,0,0,2.4,1.49C150.6,20.6,149.4,14.71,147.26,14.29Z"/><path class="cls-10" d="M145.44,26c-1.38-.94-4.73-2.08-2.8,1.6S146.83,27,145.44,26Z"/><path class="cls-10" d="M140.66,9.07c1.06.25,3.35.15,1.32-1.62S139.6,8.83,140.66,9.07Z"/><path class="cls-10" d="M136.31,5.69c2-2.27-1.53-2.69-1.82-1.5S134.3,8,136.31,5.69Z"/><path class="cls-10" d="M122.34,5.78c.4,5.08,5,1.29,3.93-.45S121.93.7,122.34,5.78Z"/><path class="cls-10" d="M119.37,11.63c1.51-.51,4.26-2.39.39-3S117.87,12.14,119.37,11.63Z"/><path class="cls-10" d="M121.83,3.08c.71-1,1.61-3.27-1-2S121.11,4,121.83,3.08Z"/><path class="cls-10" d="M114.07,4.86A4.05,4.05,0,0,0,116,4.81c-1,1.37-1.17,2.83,2.34,2.33,5.13-.73,1-5.2-.7-4a7.62,7.62,0,0,0-1.18,1.07c0-.3-.27-.7-.93-1.25C113.2,1,112.87,4.6,114.07,4.86Z"/><path class="cls-10" d="M106.52,34.25c.49-3.54-3.26-1.64-2.76-.28S106,37.8,106.52,34.25Z"/><path class="cls-10" d="M114,10.86c.24-1,.16-3.21-1.55-1.28S113.7,11.87,114,10.86Z"/><path class="cls-10" d="M117.82,15.5c-.14-.15-.27-.26-.39-.37a8.13,8.13,0,0,0-.32-1.09,4.14,4.14,0,0,0-.63-1.18,6.18,6.18,0,0,0,.3-.58c1.62-3.52-2.87-2.73-2.78-1.16a4.94,4.94,0,0,0,.19,1.13c-1.22-.14-2.58.16-.83,1.91l.19.16a1.17,1.17,0,0,0,.32,1,6.44,6.44,0,0,0,1.49,1,1.09,1.09,0,0,0,.6,1C117.26,17.81,120.14,18,117.82,15.5Z"/><path class="cls-10" d="M125.65,15.13a5.72,5.72,0,0,0-.84-1.4c.13-1.1-.13-2-1.28-1.76-.2-.46-.87-.6-2.37,0-1.92.79-1.81,1.85-1.1,2.53-.5,1.2.56,2.09,1.73,2.37a2.39,2.39,0,0,0,.76,1.51,3.34,3.34,0,0,0-.15.38c-2.57-.08-1.61,4.12.12,4,1.56-.08,4.3-.91,3.41-2.25.53-.68.71-1.4-.27-1.6a1,1,0,0,0-.17-.51C126.86,17.27,128.17,15.33,125.65,15.13Z"/><path class="cls-10" d="M115.58,20.82c-1-.16-3.17.08-1.14,1.62S116.59,21,115.58,20.82Z"/><path class="cls-10" d="M125.93,26.19c0-.11.09-.2.14-.33,1.43-3.9-3-2.88-3.2-1.25a5.42,5.42,0,0,0-.57,2.16c-.55,5.19,4.84,2.24,4,.28A7.49,7.49,0,0,0,125.93,26.19Z"/><path class="cls-10" d="M123.37,30.86a7,7,0,0,0-1.87-.75c.37-2,.09-4.89-3-1.85-2.23,2.23-.68,3.44.86,3.52-.22.27-.31.81-.16,1.81.37,2.53,2.06,1.72,2.63.65C123.55,34.78,124.62,31.61,123.37,30.86Z"/><path class="cls-10" d="M115.78,32.17c-2.08,3,2.26,3,2.43,1.53S117.87,29.12,115.78,32.17Z"/><path class="cls-10" d="M114.13,34.06c.62-1.72-2.5-2.16-2.91-.94s-.58,3.69,1,2.88a.57.57,0,0,0,.28.08C113.8,36.15,116.35,35.58,114.13,34.06Z"/><path class="cls-10" d="M112.69,28.24a2.71,2.71,0,0,0-.26-1.27.7.7,0,0,0,.35,0c.7-.14,1.77-.6,1.9-1.13.12.83.79,1.71,1.49,1.58a5.54,5.54,0,0,0,1.76-.7c.68.22,1.51.12,1.75-.43.51-1.2.88-3.82-1.25-2.42,0,0,0,0,0,0,.28-1,.24-3.31-1.57-1.35-1.35,1.47,0,2.08.94,1.86a3.32,3.32,0,0,0-.46.46l-.45-.15c-1.66-.5-2.23.14-2.24.93-.1-.27-.48-.54-1.31-.79l-.26-.06c0-.9-.3-1.71-1.55-.39l0,.05a1,1,0,0,1,0-.17c.68-.33.83-1.32-.31-3.45a6.19,6.19,0,0,0-.66-1c.19-1.43-.75-3.31-2-3.22l-.45.05c.59-.28.67-1-.55-2.4-2.63-3.1-3.87,1.52-2.34,2.14a6.25,6.25,0,0,0,2.07.41,7.8,7.8,0,0,0-1.37.43c-.26-1.1-1.29-.92-1.94-.38,0,0,0,0,0-.05a8.11,8.11,0,0,0,.33-2.69,1,1,0,0,0,.66-.93c-.13-1.27-1.12-3.76-2.3-.84-.06.14-.09.27-.13.39A6.49,6.49,0,0,0,101,14c-3.3,3.29,1,4.57,2.54,3.48a.77.77,0,0,0,0,.63c.31.72,1.06,1.79,1.66,1.8a8.31,8.31,0,0,0,1.66,1,2.92,2.92,0,0,0-.06,1.46,2.89,2.89,0,0,0-3-.64,1.49,1.49,0,0,0-1-.79c-2.3-.42-7.19,0-2.65,3.62a4.22,4.22,0,0,0,2.12,1c.13,1,1,1.39,3.27.06a5.14,5.14,0,0,0,1.21-.94c-.9,2.11,2.24,3.14,3.69,2.33a1.28,1.28,0,0,0-.44,1.41C110.62,29.62,112.72,31.78,112.69,28.24Zm-5.53-4.36a1.43,1.43,0,0,0,0-.84l.06.06a4.66,4.66,0,0,0,.4.25A6,6,0,0,0,107.16,23.88Zm3.62,2.76a1.21,1.21,0,0,0,.2-.33c.07-.16.13-.34.2-.53a1,1,0,0,0,.5.29,2,2,0,0,0,.17.36A1.36,1.36,0,0,0,110.78,26.64Z"/><path class="cls-10" d="M97.38,16.14c-.54-1.15-2.29-3.17-2.44,0S97.91,17.29,97.38,16.14Z"/><path class="cls-10" d="M99.07,12.26c.81,2.79,3.92,0,3.07-1.27a5.89,5.89,0,0,0-1.7-1.71,1.14,1.14,0,0,0,.26-1c-.46-1.71-2.38-4.91-3.34-.64-.36,1.54,0,2.27.68,2.5-1.29-.27-2.91-.12-1.14,1.9C98,13.28,98.73,13,99.07,12.26Zm-.18-2c0,.07,0,.16,0,.24a.54.54,0,0,0-.16-.1l-.42-.13A1.68,1.68,0,0,0,98.89,10.21Z"/><path class="cls-10" d="M84.82,11.32c-.32.1-.63.55-.85,1.6-.57,2.63,1.69,2.14,2.37,1.17-.48,1.83,1,1.88,1.89,1.32a4.8,4.8,0,0,0,.69,1.16c2.28,2.94,3.59-1.23,2.22-1.85a4.66,4.66,0,0,0-2.41-.42c0-.14-.07-.28-.11-.43a2.09,2.09,0,0,0,1.23-.11c1.1,2.12,4-.57,3.18-1.92a7,7,0,0,0-1.24-1.43c1.46-.73.88-3.17-.29-4.1,1-1.26,1.23-2.68-2-2.16A2.88,2.88,0,0,0,87.64,5a7.85,7.85,0,0,0-.94,0C84,5.27,84,6.81,84.84,7.87c-.08.14-.16.28-.24.45C83.81,10,84.12,10.94,84.82,11.32Zm1.7,2.23a1.09,1.09,0,0,0,0-.18,4.24,4.24,0,0,0-1.08-1.86,2.77,2.77,0,0,0,.95,0A1.5,1.5,0,0,0,86.81,13,4.84,4.84,0,0,0,86.52,13.55Z"/><path class="cls-10" d="M82.73,12.6c2,.06,1.61-1.82.73-2.59a1.11,1.11,0,0,0-.35-.48c-1.6-1.19-5.52-2.7-3.41,1.77C80.73,13.47,81.94,13.39,82.73,12.6Z"/><path class="cls-10" d="M88.81,26.18a2,2,0,0,0,2.24-.32,8.84,8.84,0,0,0,1-1.73c1.92-.09,2.08-3.83.48-4.26s-4.09-.48-4.25.73c-.5-.19-1,0-1.47,1A1.57,1.57,0,0,0,86,20.44,9.59,9.59,0,0,0,84.21,20a4.63,4.63,0,0,0,.07-.5c.24-2.5-2.34-1.06-2-.12a4.44,4.44,0,0,0,.27.53A2.5,2.5,0,0,0,82,20c-.46-.3-1-.08-1.31,1.41-.46,2,.75,2.12,1.62,1.68.11.13.2.26.32.41,1.59,1.89,2.83,1.79,3.56,1a2.81,2.81,0,0,0,.17,1c-1-.15-2.13.13-2.43.93-.82,2.16-1.23,7,3.05,3.22a6.1,6.1,0,0,0,.76-.8,7.07,7.07,0,0,0,.71.25c3.36,1,2.06-2.92.67-2.64a6,6,0,0,0-.84.26,1.54,1.54,0,0,0-.17-.31A3.51,3.51,0,0,0,88.81,26.18Z"/><path class="cls-10" d="M96.77,36.71c-3.49-.68-1.8,3.14-.43,2.72S100.25,37.38,96.77,36.71Z"/><path class="cls-10" d="M96.3,42.82c-2,.11-6,1.48-1.5,3.57S98.31,42.7,96.3,42.82Z"/><path class="cls-10" d="M92.5,39.7a1.6,1.6,0,0,0,1-1.61.73.73,0,0,0,.33-.47,1.67,1.67,0,0,0,1-1.61,7.56,7.56,0,0,0-.56-1.71c2.35.7,2.78-2.22,1.93-3.68a1.31,1.31,0,0,0,.91-1A6.15,6.15,0,0,0,96.71,27,8.94,8.94,0,0,0,97,25.61c.69-5.1-4.71-2.35-4-.39a7.9,7.9,0,0,0,1.31,2.23l-.25.36A4.17,4.17,0,0,0,93.52,29c-.15-.88-1.67-1.57-2.23-.93-.69.79-1.57,2.53-.34,2.59-.37.5-.19,1.23,1,2.29a1.81,1.81,0,0,0-.27.32,1.93,1.93,0,0,0-.34.11c-.95,0-2.15,1-1.83,1.82a3.31,3.31,0,0,0,.22.48c-1.12.38-2.19,1-2.32,1.7-.75.05-1.58.56-1.52,1.2.09,1,.7,2.78,1.54,2.26a3.2,3.2,0,0,0,.86.94,6,6,0,0,0,0,.73l-.07,0c-2.06-.07-6.26,1-1.86,3.49,3.17,1.83,3.8-.74,3.14-2.35a3.48,3.48,0,0,0,.72-.8,2.86,2.86,0,0,0,.42-.81A7.49,7.49,0,0,0,92.5,39.7Zm.94-10.21a1,1,0,0,0,0,.3l-.28,0A1.4,1.4,0,0,0,93.44,29.49Z"/><path class="cls-10" d="M83.88,42.77c1.37-.21,4-1.4.8-2.54a2.25,2.25,0,0,0-1.51-.13c.7-1-1.09-2.28-2-1.83.11-1-.37-2.16-1.2-2.23h-.34c.56-1.26-1-3.41-2.19-3a6.7,6.7,0,0,0-1,.47c.38-.53.1-1.27-1.64-2.27-3.75-2.15-3.65,2.32-2.14,3.11a3.19,3.19,0,0,0,.51,1.27c.8,1.33,1.57,1.18,2,.62a3.42,3.42,0,0,0,.94.36,1.06,1.06,0,0,0,.62.81h0c.11.4.56.91,1.54,1.54a2.81,2.81,0,0,0,1.91.57c-.56,1-.59,2.1,1.71,1.36a3.44,3.44,0,0,0,.74-.34C82.27,41.39,83,42.9,83.88,42.77Zm-8.65-8.45,0,0-.1,0,.37-.12A2.43,2.43,0,0,0,75.23,34.32Z"/><path class="cls-10" d="M82.61,44c-.09-.17-.19-.34-.31-.54-1.09-1.71-2.08-1.38-2.6-.57a1,1,0,0,0-1.07.2v0a1.73,1.73,0,0,0-2-.12l-.07.06a.36.36,0,0,0,0-.09c-.06-1-.59-2-1.43-2.11l-.44,0c-.27-2.09-3.74-.91-3.53.57,0,.15.06.31.1.48-.2.38-.09.86.53,1.48a2.76,2.76,0,0,0,.56.8c.22.35.8.68,1.94.94a6.31,6.31,0,0,0,.65.11c-.56,1.22-.25,2.26,2.72,1.59,1.49-.34,2.13-.94,2.25-1.58a6.29,6.29,0,0,0,.82.37c-.47,1-.35,1.87,1.88,1.22C85.26,46,83.84,44.21,82.61,44Z"/><path class="cls-10" d="M76.45,28.67c.8,2.67,3.27,0,2.45-1a6.94,6.94,0,0,0-.54-.56c1.2-1.86-2.08-2.46-2.5-1.26C75.5,26.92,75.32,28.93,76.45,28.67Z"/><path class="cls-10" d="M67.84,25.49a1.23,1.23,0,0,0,0,.78c.47,1.29,1.65,3.18,2.71,3.36.46.79,1.28.87,2.6-1h0c3.86.69,1.94-3.5.43-3l0,0a2,2,0,0,0-1.27-.44c0-.16,0-.3-.08-.44a2,2,0,0,0-1-2C69.12,22.06,64.63,21.87,67.84,25.49Z"/><path class="cls-10" d="M69.6,18.15c2.52-2.79-1.86-3.36-2.23-1.89S67.08,20.93,69.6,18.15Z"/><path class="cls-10" d="M63.49,17.59c-.48,1.79-.47,5.15,2.56,2.16,1.09-1.08,1.18-1.89.82-2.43a.75.75,0,0,0,.09-.15c.6-1.39,1-4.56-1.91-2.2-.91.73-1.12,1.36-1,1.83a1.07,1.07,0,0,0-.52.57,1.39,1.39,0,0,0-.37-1.59c-1.38-.84-4.64-1.75-2.6,1.67C61.84,19.58,63.07,18.74,63.49,17.59Z"/><path class="cls-10" d="M53.8,20.74a1.74,1.74,0,0,0,.25.11,4.57,4.57,0,0,0,.09,2.42c.83,3.78,3.33,2.28,4,.6a2.92,2.92,0,0,0,1-.82.75.75,0,0,0,.59.21c1.12-.2,3.28-1.22.61-2.1A2.18,2.18,0,0,0,59.22,21C58.58,19,57,16.59,55.64,19.62l-.13,0a2.09,2.09,0,0,0-.24,0,.8.8,0,0,0-.65-.55C53.63,19,51.64,19.62,53.8,20.74Z"/><path class="cls-10" d="M59.46,34.75a3.73,3.73,0,0,0,.22-.69,1.15,1.15,0,0,0,.83-.24c1-.82,2.27-2.54,1.8-3.38a.62.62,0,0,0,.17-.22c.05-.12.1-.26.15-.4a2.84,2.84,0,0,0,.81-1.24c1.67-1.12,3.93-3.68.14-3.77a1.46,1.46,0,0,0-.06-.46c.62.26,1.38-.49,1.49-1.15.56.89,1.43,1.54,1.73-.56.38-2.66-2.34-1.35-2.14-.32-.84-.81-2.3-1.59-1.81.82,0,.12.06.22.09.32a.73.73,0,0,0-.6-.12,3.81,3.81,0,0,0-1.51.87.58.58,0,0,0-.3.68c-.75-.08-1.31.63-1.24,2.93a3.56,3.56,0,0,0,.67,2.27l-.33.06c-2.64.58-2.52,2-1.64,3C55.87,34.91,59,35.8,59.46,34.75Z"/><path class="cls-10" d="M64.71,30.05c-.88,1.76-1.65,5.82,2.3,3S65.59,28.3,64.71,30.05Z"/><path class="cls-10" d="M60.92,39c3.83-3.6-2.22-4.88-2.9-2.87S57.1,42.63,60.92,39Z"/><path class="cls-10" d="M48,61.54c.43,1.18,2,3.33,2.4.26S47.54,60.36,48,61.54Z"/><path class="cls-10" d="M70.77,36.48c-.58-2.21-3-6.34-4.31-.84S71.35,38.69,70.77,36.48Z"/><path class="cls-10" d="M67,42.63c.75-.67,1.12-1.46,0-1.84a.85.85,0,0,0-.38-.39,6.65,6.65,0,0,0-2-.65c.33-1.35-2-1.34-2.17-.41s0,2.37.76,2.09a7.25,7.25,0,0,0,.55,1,2.34,2.34,0,0,0,.94,1.07C65.77,44.28,66.63,43.58,67,42.63Z"/><path class="cls-10" d="M64.24,44c-.66-1.1-2.62-3-2.47.21S64.89,45.13,64.24,44Z"/><path class="cls-10" d="M71.16,47.33c.21,1.2,1.32,3.52,2.26.65S71,46.13,71.16,47.33Z"/><path class="cls-10" d="M67.71,46.25c-1.74-.34-3.64,0-1.36,2.73a5.26,5.26,0,0,0,.66.67c-.63.22-.83.75.44,1.79,1.84,1.49,2.38-.41,1.94-1.37,1.14.58,2.14.33,1.6-2.52S68.64,45.1,67.71,46.25Z"/><path class="cls-10" d="M67.22,53.22c-1.49.42-4.27,2.15-.51,2.94S68.71,52.79,67.22,53.22Z"/><path class="cls-10" d="M64.24,51.45c.26-.16.48-.59.62-1.48.47-3-2.78-1.45-2.37-.28a4.85,4.85,0,0,0,.51,1c-.76.25-1.46,1.29-1,1.89.74,1.07,2.85,2.82,2.47-.38A3.37,3.37,0,0,0,64.24,51.45Z"/><path class="cls-10" d="M58.15,51.65c-4.19-2.28-3.66,3.41-1.67,3.47A7.16,7.16,0,0,0,57.66,55c1.43,4.35,5.09,0,3.71-1.52C60.59,52.67,59.11,51.61,58.15,51.65Z"/><path class="cls-10" d="M52.08,55.09c.57,2.5,2.61.27,1.93-.51S51.51,52.58,52.08,55.09Z"/><path class="cls-10" d="M57.74,47a.44.44,0,0,1,0-.1l0,0a1.47,1.47,0,0,0,.88,1.34c1.8.54,5.75.6,2.44-2.66-.89-.88-1.6-1.12-2.14-1-.59-.53-1.81-.61-2.12,0l0,.07a.77.77,0,0,0-1-.32c1.11-1.59,1.5-3.42-2-2.75a5.94,5.94,0,0,0-.68-.79,2.24,2.24,0,0,0-1.54-.83s0-.09,0-.13c-.47-1.39-2.22-3.93-2.8-.35-.33,2,.76,2.31,1.69,1.93a1.4,1.4,0,0,0,.66,1.48v0a1.28,1.28,0,0,0-1.4.55c-.57,1.35-.94,4.41,1.86,2.12.1-.08.16-.15.24-.22a3,3,0,0,0,1.71.74,2.11,2.11,0,0,0-.24,1.44c-.88-1.65-4.4-.5-4.26,1.16.19,2.23,1.84,6.63,4,1.54a3.47,3.47,0,0,0,.33-2.5.89.89,0,0,0,.15.27C54.94,49.73,58.86,52.46,57.74,47Z"/><path class="cls-10" d="M48.89,44.6c-.34-1.46-1.86-4.22-2.81-.63S49.23,46.06,48.89,44.6Z"/><path class="cls-10" d="M44.21,42c-.11,0-.2,0-.3-.08.34-.31.24-.88-.81-1.84a2,2,0,0,0-1.51-.71.79.79,0,0,0-.45-.32c-1.24-.25-3.9-.06-1.48,1.94a2.14,2.14,0,0,0,1.17.58.88.88,0,0,0,.55.52,4.77,4.77,0,0,0,.71.12c-.62.87.25,2.74,1.26,2.59C44.85,44.54,47.77,43.21,44.21,42Z"/><path class="cls-10" d="M41.82,37.59c.62-.64,1.42-2,.78-2.38A.65.65,0,0,0,43,35a4.19,4.19,0,0,0,.53-1.24c.69-.36,1.24-1,1.06-1.63-.46-1.65-2.33-4.71-3.23-.59a2.52,2.52,0,0,0,.18,2c-.81.67-.33,1.32.31,1.57a5.17,5.17,0,0,0-.88.21C38.06,36.28,41,38.48,41.82,37.59Z"/><path class="cls-10" d="M28.5,72.61c-1.71.47-4.89,2.39-.62,3.34S30.2,72.14,28.5,72.61Z"/><path class="cls-10" d="M23.68,39.25C25.31,37.13,22.17,37,22,38S22.06,41.36,23.68,39.25Z"/><path class="cls-10" d="M30.18,34.8c.14,1.08.64,1.83,1.73,1.25a1.28,1.28,0,0,0-.07.81c-.4,1.31.43,3.34,1.68,3.31,2-.05,5.78-1.18,2.91-3.19a1.82,1.82,0,0,0,.73-1.81,9,9,0,0,0-.87-1.86c.9-.37,1.07-1.34-.76-3.35-2.64-2.9-4.17-.69-4.15,1.2a1.45,1.45,0,0,0-1,.94l0,.13a.66.66,0,0,0-.3.27C29.59,33.3,29.16,34.93,30.18,34.8Z"/><path class="cls-10" d="M26.67,40.44c.24-2.71-2.54-1.13-2.12-.11S26.43,43.15,26.67,40.44Z"/><path class="cls-10" d="M32.41,41c-2.23,1.37.59,2.6,1.13,1.69S34.64,39.58,32.41,41Z"/><path class="cls-10" d="M30,48.86a9.39,9.39,0,0,0,1.69-1.15,4.45,4.45,0,0,0,1.74-1.49c.17,1.11,2,2.11,2.77,1.36a6.23,6.23,0,0,0,1.26-1.76,6,6,0,0,0,1.76-.25c-.16.45.17.85,1.55,1,2.37.16,1.73-1.7.81-2.24,1.19-1.74-2.12-4-3.35-2.77a7.28,7.28,0,0,0-1.79,2.75,6.23,6.23,0,0,0-1.25.24,2.53,2.53,0,0,0-1.65,1.06c-.12-.58-.88-1.12-2.76-1.49a5.47,5.47,0,0,0-.65-.08c.32-.13.69-.53,1.11-1.37,1.58-3.14-2.51-2.56-2.48-1.14,0,.83.32,2.14.89,2.47a2,2,0,0,0-2,.86C25.44,46.08,28.27,49.72,30,48.86Z"/><path class="cls-10" d="M42.06,49.21c-1.81-.66-5.6-1-3.91,1.73a2,2,0,0,0-1.18.75,1.54,1.54,0,0,0-1.31-.41,4.86,4.86,0,0,0-.6-1.61c-.58-1.09-1.18-1.48-1.71-1.47-.32-.36-1-.3-2.21.63-2.47,1.88-.27,3.16,1.11,2.92-.33,1.65-.13,4,2.25,1.8.15.32.63.42,1.7,0a1.83,1.83,0,0,0,1.09-.8,3.74,3.74,0,0,0,.57.49,1.29,1.29,0,0,0-.21,1.44A6,6,0,0,0,38.85,56l-.12.09a3,3,0,0,0-2.54,1.31,5.36,5.36,0,0,0-2.56.51,6.27,6.27,0,0,0-1.1.54c.36-2.73-2.69-1.27-2.31-.15A3.57,3.57,0,0,0,31.36,60c-.15,1.74,2.94,3.27,4,2a8.94,8.94,0,0,0,1.23-1.89c.13.18.26.35.41.52,0,.61.34,1.23.84,1.27a4.71,4.71,0,0,0,.91,0,.77.77,0,0,0,.52-.1c.6-.15,1.05-.45.84-.93.85.32,1.56-.19,1.5-2.67,0-1.4-.43-2.13-1-2.42a4.74,4.74,0,0,0,0-1.5l0-.15a1.18,1.18,0,0,0,.66-.67C43.16,53.38,43.6,49.77,42.06,49.21Z"/><path class="cls-10" d="M34.81,64c-.68-1.17-2.55-2-3.52-1.28a7.55,7.55,0,0,0-.66-.45c-2.26-1.4-3.33-.58-3.57.64a.46.46,0,0,0-.26,0c.11-1.68-.3-3.89-1.95-2.66a1.26,1.26,0,0,0-.83-.09,6.61,6.61,0,0,0-.64.2,4.85,4.85,0,0,0-.82-.86,1.51,1.51,0,0,0,1-1c.34-1.48.33-4.09-.8-4.37a1.46,1.46,0,0,0,.2-1.61c-1-1.5-3.94-4-3.46.5a5.33,5.33,0,0,0,.16.83.92.92,0,0,0,.42.91,1.22,1.22,0,0,0,.65.44c-.17.17-.35.36-.55.59-1,1.14-1.21,2-1,2.65-.44.37-.56.81.05,1.25a1.8,1.8,0,0,0,.07.81c-.66.33-1.15,1.35-.7,1.84a3.27,3.27,0,0,0,1.77,1.07,2.7,2.7,0,0,0,.21.66,7.23,7.23,0,0,0-.94.66,4.67,4.67,0,0,0-.59.59c-.42-1.27-1.48-.88-2-.18.14-1.22-.6-2-3.42-.75l-.17.08c-.13-1.1-.84-2.2-1.75-2.17l-.3,0c-.45-2.43-2.12-5.81-4.15-.9a6.31,6.31,0,0,0-.37,1.25c-.59-.29-1.13,0-1.18,1.79-.09,3,2.34,1.83,2.74.64h0a6.8,6.8,0,0,0,1.58,1l.24.1s0,0,0,.06C6.53,64.88,6.88,70.54,9,70.73A6.6,6.6,0,0,0,13,70c-1.31,1.53,1.73,3.39,2.72,2.31,1.2-1.32,2.89-4.67-1.27-3.19a4.08,4.08,0,0,0-1.23.66.82.82,0,0,0,.18-.68l.31-.22a1.7,1.7,0,0,0,1.73-.43,8.27,8.27,0,0,0,1.26-2.19,1.47,1.47,0,0,0,.06.14c.53.77,1.8,1.92,2.25,1.13.85.6,2.42.61,2.78-.25a6.92,6.92,0,0,0,.4-1.51c1.24.12,2.86-.07,2.87-1a2.54,2.54,0,0,0,1.06-.33C25.92,66,27,66,27.72,65.5a1.24,1.24,0,0,0,.82.42,6.64,6.64,0,0,0,.78,0c-.3,1.3.34,2.2,3.39,1.13a7.15,7.15,0,0,0,.86-.37c.58.3,1.34.33,1.63-.12C35.84,65.6,36.57,63.46,34.81,64Z"/><path class="cls-10" d="M16.68,58c1.36-.44,3.86-2.1.39-2.72S15.32,58.42,16.68,58Z"/><path class="cls-10" d="M12.78,49.16c2.46-2.28-1.39-3.13-1.84-1.85S10.32,51.44,12.78,49.16Z"/><path class="cls-10" d="M106.26,44.75c-5.46,2.28.4,6,1.92,4.18S111.72,42.48,106.26,44.75Z"/><path class="cls-10" d="M8,53.09a4.62,4.62,0,0,0,.7-.7c-.6,2.06-.66,5.52,2.68,2.74a4.4,4.4,0,0,0,.72-.2c1.38.93,2.82,1,2.2-2.36C13.76,49.5,12,49.92,11,51.07a2.45,2.45,0,0,0-1.66.34c.16-.59-.2-1-1.8-.74C4.36,51.24,7,53.88,8,53.09Z"/></g><g class="cls-11"><path class="cls-12" d="M21.74,46.36c-2.17-3.4-3.09-1.2-3.25.77a2.55,2.55,0,0,0-.74.07c.67-.23.09-1.53-.39-2.16-.68-.87-3.42.78-.94,1.89a2.31,2.31,0,0,0,1.23.3,1.29,1.29,0,0,0-1,1.4,5.73,5.73,0,0,0-.51-.41c-1-.69-2.76.59-2.94,1.85a1.61,1.61,0,0,0,.44,2c.35.69,1.67,1.22,1.83-.09h0c1.68.23,2.44,0,2.68-.49,1.42,1.41,2.08-.25,2.23-1.83C21.87,49.72,23.31,48.82,21.74,46.36Z"/><path class="cls-12" d="M24.59,53.84c-.06.17-.1.31-.14.46a8.42,8.42,0,0,0-1.76,2,1.87,1.87,0,0,0,.5,2.08c-1.1,1.09-.66,1.56.12,1.7a1.53,1.53,0,0,0-.35.61c-.23,0-.45,0-.65,0-1.53.14-1.95,3.69-.08,3.9.7.54,1.75.66,2-.59a3.16,3.16,0,0,0,.82-.65,2.21,2.21,0,0,0,1-1.31L26,62c.34-.65-.26-1.55-1-2a.91.91,0,0,0,.59-.71c.65-.24,1.17-1,1.25-2.62a9.16,9.16,0,0,0,0-1,5.89,5.89,0,0,0,.78-.61C28.87,53.87,26,49.88,24.59,53.84Z"/><path class="cls-12" d="M17.62,57.71c-.31-.6-.62-.81-.89-.78-.76-.78-2.08-1-2.31,1.17a5,5,0,0,0,0,1.08,2.09,2.09,0,0,0-.7,1.69,1.16,1.16,0,0,0-.6-.24c.64-1.69-1.38-5.27-3.71-1.6-1.21,1.89-1.05,2.73-.34,3-1.36,1.64,1.38,6.81,4.07,2.1A5,5,0,0,0,14,61.52a3.39,3.39,0,0,0,2.1,1c3.22.56,3.39-.63,2.65-1.92.39-.18.7-.66.76-1.65C19.68,56.35,18.52,56.81,17.62,57.71Z"/><path class="cls-12" d="M4.87,58.29c-.45,1.57,3.92,3.43,3.1-.53S5.33,56.72,4.87,58.29Z"/><path class="cls-12" d="M8.79,53.61c-.43,2.59,1.35,1.25,2,.41.26-.34,0-.91-.34-1.28,1.44-.16.23-1.69-.58-2.3s-3.18,1.62-.69,2.19A2,2,0,0,0,8.79,53.61Z"/><path class="cls-12" d="M13.2,45.7c1.13-2.56-1.07-1.65-2-1S12.07,48.26,13.2,45.7Z"/><path class="cls-12" d="M22.54,40.22c-2.83-4.07-3.48.1-3.23,2.09S25.38,44.29,22.54,40.22Z"/><path class="cls-12" d="M33.28,67.61c-2.52,2.86.72,2.58,2.16,2S35.81,64.75,33.28,67.61Z"/><path class="cls-12" d="M51.4,63.94c-1.41,2.9,1.16,1.94,2.21,1.17S52.81,61,51.4,63.94Z"/><path class="cls-12" d="M21.26,37.86c1.12.28,2.29-2.87-.48-2.16S20.13,37.59,21.26,37.86Z"/><path class="cls-12" d="M26.39,38.77c2.21-1.34,2.18-2.24,1.36-2.77a7.47,7.47,0,0,0,.47-1.21.93.93,0,0,0,0-.47c.4-.74-.77-2.16-1.61-1.69-1.36-.54-3-.12-2.4,2.78C22.42,36,22.26,41.29,26.39,38.77Z"/><path class="cls-12" d="M30.81,35.22c-.58,2.53,0,3.34.84,3.33a3.11,3.11,0,0,0,.35.3c.54.41,1.62-.41,1.55-1.11a9.19,9.19,0,0,0,1.54-1.39c1-1.11-.52-3.51-2.05-3.68l0-.08c-.46-1.32-4.37-.46-2,1.85A4.82,4.82,0,0,0,30.81,35.22Z"/><path class="cls-12" d="M30.75,41.67c.21.1.4.19.58.26a4,4,0,0,0,.25,1.27,6.87,6.87,0,0,0,.44,1,3.85,3.85,0,0,0-.07.52c-.22,3.29,1.85,1.4,2.56.26a1,1,0,0,0-.18-1.13,6.57,6.57,0,0,0,.52-1.66,1.19,1.19,0,0,0-.41-1c0-.08,0-.15,0-.24.23-2.4-1-1.78-1.8-.92a6.21,6.21,0,0,0-.56-1C31.21,37.85,27.34,40,30.75,41.67Z"/><path class="cls-12" d="M38.79,47.87c.57-2.41-1.2-1.26-1.86-.51S38.22,50.28,38.79,47.87Z"/><path class="cls-12" d="M30.53,50a2.91,2.91,0,0,0-.35-.18,2.32,2.32,0,0,0-.36-1.61c.71-.93.95-2.26-.16-2.85.11-1-.46-1.82-2.4-1.23-1.51.47-1.92,1-1.79,1.46-1,.54-.65,1.37.13,2.11a5.22,5.22,0,0,0,.23,1.57c-1.77,1.71.41,2.36,2.18,2.41a1,1,0,0,0,.18.49c-.61.76,0,1.18.79,1.37.16,1.56,2.74.49,4-.42S32.42,48.39,30.53,50Z"/><path class="cls-12" d="M33.77,54.72c-1.12-1.13-5.12.87-1.62,2.92l.31.16a6.3,6.3,0,0,0,.21.9c.62,2,6.5.86,2.87-2.71A5,5,0,0,0,33.77,54.72Z"/><path class="cls-12" d="M40.82,58c1.11-1,1.53-2.88-1.52-3.18-4.18-.4-2.62,1.93-1.09,3.22a7,7,0,0,0-.94,1.73c-.48,1.33,2.29,3,3.21,1.61,1.09.45,2.86,0,1.59-2.12C41.56,58.39,41.15,58,40.82,58Z"/><path class="cls-12" d="M43.79,56c-3.46-1-1.93,1.64-.88,2.65S47.24,57,43.79,56Z"/><path class="cls-12" d="M47.81,53.92c-1.07-.66-3.14,1.6-1.62,2.51-.72,2.52,1.55,1.37,2.47.53a.63.63,0,0,0,.16-.24C50.53,56.34,48.87,54.59,47.81,53.92Z"/><path class="cls-12" d="M46.61,39.44a1.42,1.42,0,0,0-.26,1.21A2.83,2.83,0,0,0,44.49,43a2.61,2.61,0,0,0-1-1.07,7.27,7.27,0,0,0,.66-1.75c.45-.38.36-1.65.14-2.38a.79.79,0,0,0-.42-.46c1.86-.14,4.29-3.75-.23-4.18a6.28,6.28,0,0,0-2,.05A3.16,3.16,0,0,0,41.4,33c-2.7-1.47-1.9,1-1.22,2.06a1,1,0,0,0,1.08.29,7.77,7.77,0,0,0,1.9,1.82l.05,0c-.82,0-1.71.5-1.23,1.49a7.91,7.91,0,0,0-1.29.52A6.06,6.06,0,0,0,42,37.6c.77-1.4-3-4.13-3.08-.16,0,1.83.46,2.3,1.06,2.14-.13.08-.25.17-.36.25-1,.71-.56,2.71.46,3.67a6.73,6.73,0,0,0,.13,1.16c.46,2.31,1.18,3,1.9,2.79l.12.1h-.06c-1.75-.22-1.49.59-.92,1.25-.05.07-.11.13-.16.21-.47.7-.59,1.14-.5,1.41-.49-.6-1.32-.73-2.26.67-.1.15-.17.28-.25.4a3.62,3.62,0,0,0-.62-.06c.81-.4,1.48-1.72-.44-2-2.58-.36-1.2,1.37-.35,2l0,0c-2.47.26-.57,2,.56,2.59.51.26,1.2-.17,1.58-.76a5.07,5.07,0,0,0,1.75-.56c.62-.33.58-1.41.15-2.11.42.32,1.52,0,2.13-.33a.59.59,0,0,0,.23-.24,2.74,2.74,0,0,0,.59,1.11c2.17,2.69,2.41-.23,2.15-1.6-.09-.47-.63-.74-1.21-.79,1.6-.29,3.33-3,1.34-4a5.22,5.22,0,0,0,1.5,0c2.55-.42,2.93-1.25,2.42-2.06a4.15,4.15,0,0,0,1-2.09C52.05,35,48.08,37.71,46.61,39.44ZM43.2,49.28a1.64,1.64,0,0,0-.1-.38,1,1,0,0,0,.21-.53,4.83,4.83,0,0,0,.47.28,1.18,1.18,0,0,0,.36.12A1.32,1.32,0,0,0,43.2,49.28Zm1.25-4.91c.06-.16.1-.3.15-.44v-.08a1.36,1.36,0,0,0,.56.61A3.82,3.82,0,0,0,44.45,44.37Z"/><path class="cls-12" d="M49.55,31.05c-2.06-2.26-2.12.34-1.82,1.54S51.6,33.32,49.55,31.05Z"/><path class="cls-12" d="M41.19,29.32A5.64,5.64,0,0,0,41,31.65c.17,1.51,4.22,1.66,3.1-.94.68.31,1.45.09,1.51-1.48.09-2.63-1.24-1.74-2-.73.33-.57.19-1.36-1-2.31-3.38-2.62-2.84,1-2.13,2.55A1.11,1.11,0,0,0,41.19,29.32Zm2.19-.62a2.41,2.41,0,0,0-.23.36.51.51,0,0,0-.07.17,1.29,1.29,0,0,0-.16-.17A1.84,1.84,0,0,0,43.38,28.7Z"/><path class="cls-12" d="M48.44,24.57a6.5,6.5,0,0,0-.09,2.09c.18,1.55,4.06,1.76,3.58-.52a2.06,2.06,0,0,0,1-.68c.06.14.12.27.19.4a4.39,4.39,0,0,0-1.56,1.81c-.65,1.31,2.91,3.63,2.81,0a4.66,4.66,0,0,0-.19-1.3c1-.11,2.09-1.09.61-2.16,1.11.3,3.11-.73,1.06-2.35-.82-.65-1.33-.81-1.64-.68.29-.72,0-1.61-1.68-2.4-3.72-1.77-3.24.72-2.3,2.49a1.87,1.87,0,0,0-1.57,1.4C47.69,23.25,47.83,23.94,48.44,24.57Zm5.42-2.85a4.18,4.18,0,0,0,.34,2.07l.1.14a4.91,4.91,0,0,0-.58-.28,1.5,1.5,0,0,0-.59-1.38A2.51,2.51,0,0,0,53.86,21.72Z"/><path class="cls-12" d="M56.57,20.87c1.08.1,2-.58,1.47-2.85-1.17-4.67-3.19-1.11-3.65.78a1,1,0,0,0,0,.57C54.23,20.5,55.08,22.16,56.57,20.87Z"/><path class="cls-12" d="M57.33,30.32c-.86-.82-2.79.88-3.65,2.08s1.5,4,3,2.91A8.74,8.74,0,0,0,58.5,36a1.9,1.9,0,0,0,1.88-1.14,3.17,3.17,0,0,0,.7-.31,1.28,1.28,0,0,0,.06.34,5.87,5.87,0,0,0-.79.33c-1.22.64.22,4.38,2.14,1.57a5.05,5.05,0,0,0,.37-.63,7.61,7.61,0,0,0,1.08.13c5.55.2,2.25-3.19.3-4.31-.72-.42-1.72.05-2.4.81a2.51,2.51,0,0,0-.5-.86c1,.15,2-.54,2.07-3,0-.19,0-.34,0-.51.94-.2,1.74-1.08.19-2.26-1.19-.91-1.7-.76-1.86-.25a2.24,2.24,0,0,0-.57.3,3.91,3.91,0,0,0-.12-.56c-.29-1-3.13-.44-1.39,1.29.13.14.25.24.36.34a8.13,8.13,0,0,0-1,1.45,1.48,1.48,0,0,0,.06,1.38C58.12,29.71,57.6,29.87,57.33,30.32Z"/><path class="cls-12" d="M60.9,47.69c-2.2,2.66.72,2.31,2,1.78S63.11,45,60.9,47.69Z"/><path class="cls-12" d="M65,52c-1.58,1.16,1.22,6.13,3.33,1.76S66.61,50.84,65,52Z"/><path class="cls-12" d="M70.87,46.78l-.05.06a4.08,4.08,0,0,0-.44-.55,2.91,2.91,0,0,0,.07-1.24c1-.13.32-1.83-.24-2.66-.35-.51-1.29-.39-1.88,0-.55-.46-1.73-.25-2.8.15a5.16,5.16,0,0,0-.13-.5c-.27-.82-1.83-.85-2.51-.23a1.94,1.94,0,0,0-.3.13,1.91,1.91,0,0,0-.42-.08c.27-1.56-.05-2.22-.63-2.36.89-.81-.85-1.58-1.86-1.75-.81-.13-1.53,1.33-1.1,2.08a4.19,4.19,0,0,0-1.14-.54L57,39.21a7.39,7.39,0,0,0-.39-2.49c-.67-1.92-6.43-.65-2.75,2.76a7.62,7.62,0,0,0,1,.83,6,6,0,0,0,1.38,2.21,1.29,1.29,0,0,0,1.32.21c.26,1.63,2.39,3.55,3.72,1.57A7.79,7.79,0,0,0,62,45.94a1.62,1.62,0,0,0,1.71.62.7.7,0,0,0,.54.15,1.57,1.57,0,0,0,1.75.6,7.37,7.37,0,0,0,2.78.61,2.43,2.43,0,0,0,.82.35,3.32,3.32,0,0,0,1,.16c.5,1.62,2.55,3.17,3.81-.17C76.17,43.63,72.37,45.46,70.87,46.78ZM59.33,40.29l-.22.16A1,1,0,0,0,59,40.2,1.06,1.06,0,0,0,59.33,40.29Z"/><path class="cls-12" d="M78,32.28A3,3,0,0,0,77.59,31c.66-1.53-2-5-3.52-1-.7,1.83-.45,2.56.16,2.72a7,7,0,0,0-1.08.3c-1.19.45-1,3,.2,3.6l-.25.22c-.58.56-.21,1.75.48,2.42-.93.2-1.51,2.24-.34,2.59a2.24,2.24,0,0,0-1.06,1c-1.72,2.85,1,2.11,2.17,1.41.73-.44.36-2-.45-2.42a3.44,3.44,0,0,0,.76-.2c2.19-.86,1.51-1.65.45-2.08A2.7,2.7,0,0,0,76.19,38a3.14,3.14,0,0,0,.21-2.11v0a1,1,0,0,0,0-1,4.7,4.7,0,0,0,.49-.85C77.55,34.14,78.22,33.77,78,32.28Zm-2.32.16s0,.07,0,.11a0,0,0,0,0,0,0h-.31Z"/><path class="cls-12" d="M68.85,29.11a4.19,4.19,0,0,0-.07.75c0,1.27,3.5,1.73,2.45-.77,1-.51-.37-1.91-1.29-2.47S66.79,28.45,68.85,29.11Z"/><path class="cls-12" d="M71.51,25l-.05,0c-1.43.57-.29,4.91,2.19,2l0,0c2.15.6,2.72,0,2.58-.85.68-.79.4-3,0-4.21a1.32,1.32,0,0,0-.47-.6c.18-4.7-3.08-1.78-4.23,0A1.89,1.89,0,0,0,72,23.54a2.81,2.81,0,0,0,.2.38A1.89,1.89,0,0,0,71.51,25Z"/><path class="cls-12" d="M74.81,18.54c1.52,1.4,1.78.37,1.65-.65.49.43,1.52.53,1.83-.05a1.36,1.36,0,0,0,.24.38C75.73,20.63,79,21.16,81,21a2.81,2.81,0,0,0,1.38.43l.36.21a.83.83,0,0,0,.27.07c.17.92,2.2,1.41,3.44,1.43a1.11,1.11,0,0,0,.77-.34,4.27,4.27,0,0,0,.59.39c1,.52,2.81-2.1.17-2.16.06-1.27-.75-2.44-3.09-1.24-.11,0-.19.11-.29.16a3.41,3.41,0,0,0-.9-2.12c-1.37-1.78-2.23-2-2.74-1.44a.57.57,0,0,0-.65-.33,3.69,3.69,0,0,0-1.67.29.67.67,0,0,0-.38.45c0-.09-.08-.19-.13-.29-1.12-2.12-1.74-.62-1.86.5C75.74,16.07,72.88,16.78,74.81,18.54Z"/><path class="cls-12" d="M69.88,16.93c3.62.54,1.71-1.92.52-2.8S66.26,16.39,69.88,16.93Z"/><path class="cls-12" d="M71.26,14.57l.17,0c.06.62.63,1.18,2.11,1.32,4.3.39,1.89-2.37.43-3.32a1,1,0,0,0-.76-.12c-.19-.45-.73-.78-1.86-.78C67.68,11.75,70,13.88,71.26,14.57Z"/><path class="cls-12" d="M80.46,14.68a.72.72,0,0,0,.32-.52,2.92,2.92,0,0,0,1.25,0c1.55.84,4.36.42,2.66-2.94a4.66,4.66,0,0,0-1.43-1.87l.11-.23c.94-2.18-.92-1.39-1.67-.79a.74.74,0,0,0-.15.8l-.17.18-.07.1C78.38,8,78.7,10.75,79.48,12.69a2.07,2.07,0,0,0-.78.79C77.24,15.79,79.49,15.23,80.46,14.68Z"/><path class="cls-12" d="M80.92,22.87c-1.75-.78-4.6,4,.12,3.67S82.66,23.65,80.92,22.87Z"/><path class="cls-12" d="M86.78,25.24c-.82.21-1.43,1-.15,2.14,1.45,1.33,1.88.7,1.9-.21a5.42,5.42,0,0,0,.78.11c5.11.34,2.17-2.87.41-4C88.72,22.7,87.06,24,86.78,25.24Z"/><path class="cls-12" d="M83.05,28.15c-4.36-3.35-3.64,1.28-2.72,3.3S87.41,31.5,83.05,28.15Z"/><path class="cls-12" d="M88.37,28.44c-.69-.59-2.46.85-1.37,1.65a6.7,6.7,0,0,0-1.1,1.73,1,1,0,0,0-.05.53c-.62,1,.15,1.35,1.12,1.39.87.5,2,.49,2.25-.81a2.24,2.24,0,0,0,0-1.38,6,6,0,0,0-.18-1.05C89.87,30.21,89,29,88.37,28.44Z"/><path class="cls-12" d="M89.91,33.09c.19,1.24,3.82,1.12,2-1.36S89.72,31.85,89.91,33.09Z"/><path class="cls-12" d="M83.82,37.21c.08-.85-.14-1.28-.52-1.44-.08-.15-.15-.3-.23-.42-.75-1.25-4.09,0-3,1.75l-.32.29c-.59.57-.35,1.66.23,2.47A.32.32,0,0,0,80,40h-.09c-.65,0-1.16.57-1.42,1.3h0a.92.92,0,0,0-.93.51c-.89-.29-1.84.08-1.61,2,0,.22.06.42.1.6-.77,1-.74,3.16,1.76,2.09,2.08-.89,1.62-1.63.66-2.08a5.67,5.67,0,0,0,.39-.78c.49.4,1.34.46,2.67-.2,2.65-1.34,2.24-2.31,1.06-2.89a4,4,0,0,0,.42-.47,3.1,3.1,0,0,0,.89-1.91A3.18,3.18,0,0,0,83.82,37.21Z"/><path class="cls-12" d="M85.44,41.74c2.48,1.58,1.89-.85,1.3-1.88S83,40.16,85.44,41.74Z"/><path class="cls-12" d="M91.3,39a4.83,4.83,0,0,0,.09-.91c0-3.5-1.62-2.55-2.72-1.21-1.41-.3-3.07.41-1.66,3s2.26,2,2.76.9c.26,1,1.84,2.1,2.3-.16C92.39,39.09,91.92,38.82,91.3,39Z"/><path class="cls-12" d="M93.35,41.85c-1.39.6-.14,4.81,2.2,1.9S94.74,41.25,93.35,41.85Z"/><path class="cls-12" d="M95,37.36a4.65,4.65,0,0,0-.24-1.08c-.42-1.14-3.84-.32-1.61,1.67.65.58,1.09.77,1.38.73a2.91,2.91,0,0,0,.34.69c1.69,2.64,2.2,0,2.09-1.24C96.88,37.43,95.7,37.07,95,37.36Z"/><path class="cls-12" d="M99.21,35.07c-.75.56-1.21,2.28-1.28,3.39-.12,2,5.36,3,3.74-1.14a7.37,7.37,0,0,0,.94-.68C104.07,35.38,101,30.76,99.21,35.07Z"/><path class="cls-12" d="M104.13,34.71c0,1,2.88,1.43,1.77-.81S104.15,33.7,104.13,34.71Z"/><path class="cls-12" d="M100.43,29.43a1.47,1.47,0,0,0-.05-.29,3.33,3.33,0,0,0,1.79,1.68c4.77,2.49,3.29-1.84,2.06-3.63-.92-1.34-4.28,0-3.93,1.75A2,2,0,0,0,99.24,28a3,3,0,0,0,.82-1.62l.32,0c3.53,0,1.35-2.07.09-2.74a1.26,1.26,0,0,0-1.4.45h0a1.36,1.36,0,0,0-.41-1.53c.93-.29,1.57-1.18.07-2.5-2.64-2.33-2.38.66-1.88,2a.39.39,0,0,0,.06.11,2.25,2.25,0,0,0-.65,1.58,6,6,0,0,0,0,1c-3,1.66-1.62,2.79.2,3.3a.73.73,0,0,0-.52.83l-.07,0c-.62-.3-1.5.53-1.61,1.29-.47.25-.86.87-1,2.07-.48,4.51,2.46,2,3.48.5a1.42,1.42,0,0,0-.16-1.55h0l.05.09C99.17,36.11,100.43,31.64,100.43,29.43Z"/><path class="cls-12" d="M101.82,24c.64,1.31,4.65-.1,1.72-2.21S101.17,22.73,101.82,24Z"/><path class="cls-12" d="M105.44,18a4.28,4.28,0,0,0,.46-.54.84.84,0,0,0,.1-.73,2.28,2.28,0,0,0,.52-1.16c.58-3-1.54-1.5-2.31-.54a.66.66,0,0,0-.14.51,1.94,1.94,0,0,0-.71,1.47c-.19,1.37.08,1.86.53,1.89a1.56,1.56,0,0,0-.17.25c-1.92,3.13,1.1,2.32,2.38,1.57C107,20.23,106.44,18.29,105.44,18Z"/><path class="cls-12" d="M109.71,18.78a5.71,5.71,0,0,0,1.48-.91,5.75,5.75,0,0,0,2,.55c1,.09,1.8-1.79,1.24-2.74a4.25,4.25,0,0,0,2.24.06,9.21,9.21,0,0,0,2-.19c1.82-.4,1.7-4.89-.76-4.47a2,2,0,0,0-2,.56c.22-.59-.36-1.77-.85-2.4-.86-1.09-4.29,1-1.17,2.39a2.63,2.63,0,0,0,1.68.34c-.14.14-.28.28-.43.46-1.19,1.44-1.43,2.32-1.16,2.83a2.49,2.49,0,0,0-1.9.23,6.26,6.26,0,0,0-1.09.58,7,7,0,0,0-3-1c-1.67-.14-2.79,3.58-.82,4.15-.36,1,.31,2.78,2,1.19C110.11,19.52,110.11,19,109.71,18.78Z"/><path class="cls-12" d="M99.11,12.56a3.89,3.89,0,0,0,1.16.6.62.62,0,0,0,.49-.1c-.28.7,1.18,1.23,2,1.33,1.2.13,2-3.31-.78-2.21a3.86,3.86,0,0,0-.79.39c.32-.58.25-1.34-.74-1.35,0-.47-.33-1-1.13-1.67C96.14,7,96.63,10.47,97.3,12,97.55,12.56,98.37,12.72,99.11,12.56Z"/><path class="cls-12" d="M104.29,7.45a9.09,9.09,0,0,0,.53,2.24,1.76,1.76,0,0,0,1.67.91c-.92,3.29,2.62,1.79,4.15.6,1-.75.34-2.79-.78-3.53a1.21,1.21,0,0,0-.55-.57c1.18-.24,1.09-1.1.53-2,.85-.54-.48-1.5-1.31-1.83a.58.58,0,0,0-.39,0l-.1-.08c-.88-.65-2.42.27-3,1.38a6.06,6.06,0,0,0-1,.55C103.43,5.56,103.67,6.8,104.29,7.45Z"/><path class="cls-12" d="M115.43,39l0,0c1-.42,1.61-1.51,0-3.42-3-3.71-3.55-.21-3.28,1.95-1.61.54-3.06,3.62-.53,4.24-.06.11-.13.2-.19.32-.84,1.66-.62,2.32,0,2.47.13.44.65.34,1.16.08a5.44,5.44,0,0,0-.22,1.36c-.28,5.51,3.13,2.28,4.27.36.52-.87-.26-2.16-1.3-2.79a3.42,3.42,0,0,0,1.79-2.09,4.92,4.92,0,0,0,.37-.46C119.64,38.08,117,38.41,115.43,39Z"/><path class="cls-12" d="M114.38,31.64c1.08-1.49-2.87-5.11-3.48-.6S113.31,33.14,114.38,31.64Z"/><path class="cls-12" d="M117.48,4.43C120,5,118.8,3.17,118,2.48S115,3.84,117.48,4.43Z"/><path class="cls-12" d="M117.49,5.78c-.3-1-3.37-.5-1.52,1.39S117.8,6.8,117.49,5.78Z"/><path class="cls-12" d="M112.16,13.07c1,.36,2.33-2.31-.2-2S111.19,12.72,112.16,13.07Z"/><path class="cls-12" d="M120.12,30.8a3.71,3.71,0,0,0,.7-.55c.35-.34.21-1-.15-1.47,0-.22,0-.43,0-.65a9,9,0,0,0,2.09.67c1.58.26,3-2.8,1.77-4a3.37,3.37,0,0,0-.19-2c-.41-1.08-3.6-.29-1.64,1.55a5.36,5.36,0,0,0-1.16.26,5.29,5.29,0,0,0-2.25,1.21,2.83,2.83,0,0,0-2.72.58h-.14a6,6,0,0,0,.1-1.72,1.28,1.28,0,0,0-1-1,3.08,3.08,0,0,0,.13-.71,1.89,1.89,0,0,0,1.31-.07c1.06-.36,1.36-.74,1.27-1.07,3.16.2,1.84-1.71.59-2.75,1.18-.67,2-3-1-2.88-1.5.06-2,.42-2.05.89-.4.32-.62,1-.38,2.17a4.72,4.72,0,0,0,.54,1.58,1.55,1.55,0,0,0-.73,1.11,2,2,0,0,0-1.35.17c-.42-3.1-3.06-.5-4,1.12C109,24.66,111.56,27.11,113,26a1.16,1.16,0,0,0,.91.11,1.27,1.27,0,0,1,.07.12,4.68,4.68,0,0,0,1,1.1c-.21.56-.07,1.35.78,2.43,1.49,1.9,2.34,1.85,2.78,1.07.14.5.66.45,1.21.19A.79.79,0,0,0,120.12,30.8Z"/><path class="cls-12" d="M139.44,20.54c-.1-1.1-3-1.27-2.3.61a4.58,4.58,0,0,0-.8-.07,5.85,5.85,0,0,0-1.12.08,2.29,2.29,0,0,0-.25-.63,3.25,3.25,0,0,0,.67-1.9c0-.64-1-1.11-1.66-.95a2,2,0,0,0-.45-.66c.19-.7-.18-1-.74-1-.26-.6-1-1.12-2.41-1.37-.29,0-.54-.08-.79-.1a1.08,1.08,0,0,0,.22-.73.87.87,0,0,0-.24-.95,4.66,4.66,0,0,0-.39-.71c-2.4-3.67-3.08,0-2.91,1.76,0,.52.54.9,1.14,1.08-.68.92.93,2.88,2.1,3.78a1.43,1.43,0,0,0,1.33.15,4.22,4.22,0,0,0-.08,1.15,5.93,5.93,0,0,0-.61.25,1.19,1.19,0,0,0-.57.58c-2,.1-1,2,.18,3.21a.38.38,0,0,0-.19.16c-.94-.76-2.25-.72-3.09,1.73-.09.27-.16.51-.22.74-1.14.1-2.06,1.85-1.86,3.14-1.65.69.22,1.85,1.3,2.18.5.16,1-.33,1.31-.92a7.25,7.25,0,0,0,.86-.25c3-1.08,2.89-2.15,1.86-3a4.94,4.94,0,0,0,.58-.48,1.22,1.22,0,0,0,.36-.83c.82-.07,1.66-.74.55-1.8a2.42,2.42,0,0,0,1-.4c.56.66,1.9-.2,2.76-1.05a7.06,7.06,0,0,0,1.23.88c.8.43,2-.54,2.25-1.53C139.29,23.1,139.53,21.45,139.44,20.54Z"/><path class="cls-12" d="M132.36,12.39c-2.23,2.62.68,2.32,2,1.81S134.6,9.77,132.36,12.39Z"/><path class="cls-12" d="M132.76,8.66c1.65,2.95,2.66,2,3.12.42a3.29,3.29,0,0,0,.67-.3c4.56,0,1.67-2.95-.06-4a1.86,1.86,0,0,0-2.12.63C132.9,5.22,131.29,6,132.76,8.66Z"/><path class="cls-12" d="M131.81,5.15c3.26.19,1.37-1.84.24-2.52S128.55,5,131.81,5.15Z"/><path class="cls-12" d="M121.18,36.57c-2.71,1.5-.16,2.17,1.09,2.14S123.88,35.06,121.18,36.57Z"/></g></g></g></g></g></svg>