<svg xmlns="http://www.w3.org/2000/svg" width="53.6" height="39.97" viewBox="0 0 53.6 39.37"><defs><style>.cls-1{fill:#f3f1db;}.cls-1,.cls-2,.cls-3{fill-rule:evenodd;}.cls-2{fill:#fff;}.cls-3{fill:#f8f7ea;}</style></defs><title>o_cocoa</title><g id="Layer_2" data-name="Layer 2"><g id="action"><g id="coffee_machiene" data-name="coffee machiene"><path class="cls-1" d="M34,25.55,32.7,15,36,13.37h0c-.07-.43-.11,1-.11-1.32s-.3-6.61,3.67-6.61H51.63c1.42,0,1.84.71,1.93,2.2,1,14.93-17.34,20.59-19.57,17.9Zm2.7-8.23.59,4.88a16.64,16.64,0,0,0,1.62-.4,18.75,18.75,0,0,0,5.32-2.68,12.74,12.74,0,0,0,5.69-9.79H41.24l-1.46,4.21.56,1.94-.25.13.11.69-3,.76Z"/><path class="cls-2" d="M23.78,33.11H13.32c0-.81-3.35-3.48-3.82-3.78L3.7.59c-.07-.33,0-.6.42-.59H23.78Z"/><path class="cls-2" d="M47.55,33.11a6.36,6.36,0,0,1-6.42,6.26H6.42A6.36,6.36,0,0,1,0,33.11Z"/><path class="cls-3" d="M23.78,39.37V33.11H47.55a6.36,6.36,0,0,1-6.42,6.26Z"/><path class="cls-3" d="M23.78,33.11H34.23c0-.81,3.36-3.48,3.83-3.78L43.85.59c.08-.33,0-.6-.41-.59H23.78Z"/><path class="cls-3" d="M9.5,29.33H23.78v3.78H13.32C13.32,32.3,10,29.63,9.5,29.33Z"/><path class="cls-1" d="M38.06,29.33H23.78v3.78H34.23C34.23,32.3,37.59,29.63,38.06,29.33Z"/></g></g></g></svg>