<svg xmlns="http://www.w3.org/2000/svg" width="46.97" height="74.93" viewBox="0 0 46.97 74.93"><defs><style>.cls-1,.cls-3{fill:#f8f7ea;}.cls-1,.cls-10,.cls-11,.cls-12,.cls-2,.cls-6,.cls-7,.cls-8{fill-rule:evenodd;}.cls-2{fill:#dda868;}.cls-4{fill:#0f0e0e;}.cls-5,.cls-6{fill:#0c0c0b;}.cls-7{fill:#f3f1db;}.cls-8{fill:#d37c35;}.cls-9{fill:#0a0a0a;}.cls-11{fill:#825423;}.cls-12{fill:#a07338;}</style></defs><title>o_cocoa_cup</title><g id="Layer_2" data-name="Layer 2"><g id="action"><g id="coffee_machiene" data-name="coffee machiene"><polygon class="cls-1" points="23.48 72.76 9.75 72.76 1.85 17.62 23.48 17.62 23.48 72.76"/><polygon class="cls-2" points="4.77 38.02 23.48 38.02 23.48 53.49 6.99 53.49 4.77 38.02"/><rect class="cls-3" x="10.65" y="72.76" width="12.83" height="2.17"/><rect class="cls-4" y="14.39" width="23.49" height="3.23"/><rect class="cls-5" x="1.23" y="8.3" width="22.25" height="6.09"/><rect class="cls-4" y="5.07" width="23.49" height="3.23"/><polygon class="cls-6" points="23.48 5.07 3.21 5.07 8.97 0 23.48 0 23.48 5.07"/><polygon class="cls-7" points="23.48 72.76 37.22 72.76 45.12 17.62 23.48 17.62 23.48 72.76"/><polygon class="cls-8" points="42.2 38.02 23.48 38.02 23.48 53.49 39.98 53.49 42.2 38.02"/><rect class="cls-3" x="23.49" y="72.76" width="12.83" height="2.17"/><rect class="cls-9" x="23.49" y="14.39" width="23.49" height="3.23"/><rect x="23.49" y="8.3" width="22.25" height="6.09"/><rect class="cls-9" x="23.49" y="5.07" width="23.49" height="3.23"/><polygon class="cls-10" points="23.48 5.07 43.76 5.07 38 0 23.48 0 23.48 5.07"/><path class="cls-11" d="M23.49,55.91A10.16,10.16,0,1,0,13.14,45.75,10.27,10.27,0,0,0,23.49,55.91Z"/><path class="cls-12" d="M23.49,55.9a10.15,10.15,0,1,1,0-20.29Z"/></g></g></g></svg>