<svg xmlns="http://www.w3.org/2000/svg" width="60.21" height="38.07" viewBox="0 0 60.21 38.07"><defs><style>.cls-1{fill:#f3f1db;}.cls-1,.cls-2,.cls-3,.cls-4,.cls-5{fill-rule:evenodd;}.cls-2{fill:#f8f7ea;}.cls-3{fill:#fff;}.cls-4{fill:#825423;}.cls-5{fill:#a07338;}</style></defs><title>o_coffee</title><g id="Layer_2" data-name="Layer 2"><g id="action"><g id="coffee_machiene" data-name="coffee machiene"><path class="cls-1" d="M54.21,20.45a42.9,42.9,0,0,0-12.28,6.11l-1.45-11,3.69-1.73h0a7.79,7.79,0,0,1-.12-1.38,8,8,0,0,1,8.08-7.93,8.34,8.34,0,0,1,8.08,7.93c0,3.89-3,6.82-6,8ZM52.13,7.8a4.7,4.7,0,1,0,4.78,4.69A4.74,4.74,0,0,0,52.13,7.8Z"/><path class="cls-2" d="M48.22,0c0,1-1,28.18-13.12,33.1-.49.23-.41.57-.41,1.41H18.83c0-.69.21-.81,0-1.2a.58.58,0,0,0-.38-.21C5.72,27.92,4,.46,4,0Z"/><path class="cls-3" d="M26.69,34.51H18.83c0-.84.12-1.09-.41-1.41C5.72,27.92,4,.46,4,0H26.69Z"/><path class="cls-4" d="M27,12c2.67,0,4.82,3,4.82,6.61s-2.15,6.6-4.82,6.6Z"/><path class="cls-5" d="M26.42,12c-2.66,0-4.82,2.95-4.82,6.6s2.16,6.61,4.82,6.61Z"/><path class="cls-3" d="M53.39,33.21c0,2.18-3.25,4-7.21,4h-39c-4,0-7.21-1.78-7.21-4Z"/><polygon class="cls-1" points="6.73 37.17 46.66 37.17 44.07 38.07 9.32 38.07 6.73 37.17"/><path class="cls-2" d="M26.69,37.17v-4h26.7c0,2.18-3.25,4-7.21,4Z"/></g></g></g></svg>