<svg xmlns="http://www.w3.org/2000/svg" width="48.82" height="25" viewBox="0 0 97.64 50"><defs><style>.cls-1{isolation:isolate;}.cls-2{fill:#b46823;}.cls-3{fill:#e6aa47;}.cls-4{fill:#c77924;}.cls-5{fill:#a44c09;}.cls-6{mix-blend-mode:screen;}.cls-7{fill:#78170f;}.cls-8{fill:#b98561;}.cls-9{mix-blend-mode:multiply;}.cls-10{fill:#f9ebca;}.cls-11{fill:#d8893a;}.cls-12{fill:#e3d6ad;}.cls-13{fill:#f4c551;}.cls-14{fill:#a35d23;}.cls-15{fill:#591700;}.cls-16{fill:#d1953f;}</style></defs><title>o_cookies</title><g class="cls-1"><g id="Layer_2" data-name="Layer 2"><g id="action_font" data-name="action font"><g id="desk"><path class="cls-2" d="M96.86,23.53c.75.67,1.19,3.95,0,5.61a8.46,8.46,0,0,1-1.59,2.09c-.24-1.08-.9-2.32-.72-3.25.26-1.32,2.6-2.63,2.42-4.12A.86.86,0,0,0,96.86,23.53Z"/><path class="cls-3" d="M95.27,31.23a2.13,2.13,0,0,1,0,1.28.49.49,0,0,1-.08.18c-.62,1-2.79.88-4,1.51a1.37,1.37,0,0,0-.44.28c-1,.92-.72,3.6-2,4.35s-3.47-.74-4.81-.19-1.8,3.18-3.2,3.58S77.5,40.67,76.1,41s-2.39,2.77-3.8,2.92-3-2-4.38-2-2.8,2.4-4.19,2.36-2.67-2.44-4-2.58-3.13,2-4.48,1.73-2.28-2.82-3.6-3.18-3.47,1.38-4.73.89-1.61-3.24-2.77-3.91-3.79.27-4.76-.64-.11-3.49-.72-4.69a2.35,2.35,0,0,0-.49-.62c-1-.91-2.74-1.62-2.81-2.81s2.37-2.41,2.82-3.87c.33-1.09-1.34-3-.78-4s3.09-.53,3.86-1.38-.06-3.28.83-4,3.12.58,4.1,0S47,12,48.06,11.55s2.91,1.28,4,.91,1.44-2.92,2.55-3.21,2.68,1.75,3.8,1.55,1.86-2.68,3-2.82,2.43,2.08,3.57,2,2.17-2.43,3.29-2.43S70.44,9.92,71.56,10,74,7.83,75.13,8s1.87,2.62,3,2.83S80.84,9,81.91,9.31s1.45,2.87,2.46,3.25,3.09-1.23,4-.71S89.12,15,90,15.61s3.36-.14,4,.69-.71,3-.31,4.05c.48,1.28,2.66,2.08,3.17,3.17h0a.86.86,0,0,1,.11.33c.18,1.49-2.16,2.8-2.42,4.12C94.37,28.91,95,30.15,95.27,31.23ZM83.93,18.67c0-.53-.86-1-1.94-1s-1.94.44-1.94,1,.87,1,1.94,1S83.93,19.2,83.93,18.67Zm0,12.57c0-.53-.86-1-1.94-1s-1.94.44-1.94,1,.87,1,1.94,1S83.93,31.79,83.93,31.24Zm-14.8-5.87c0-.55-.86-1-1.94-1s-2,.42-2,1,.88,1,2,1S69.13,25.9,69.13,25.37ZM68.58,14.9c0-.54-.88-1-1.94-1s-1.94.43-1.94,1,.86,1,1.94,1S68.58,15.43,68.58,14.9Zm0,22.29c0-.53-.88-1-1.94-1s-1.94.44-1.94,1,.86,1,1.94,1S68.58,37.72,68.58,37.19Zm-15-18.52c0-.53-.87-1-1.94-1s-1.94.44-1.94,1,.86,1,1.94,1S53.54,19.2,53.54,18.67Zm-.86,10.47c0-.53-.86-1-1.94-1s-1.94.44-1.94,1,.88,1,1.94,1S52.68,29.67,52.68,29.14Z"/><path class="cls-4" d="M95.26,32.51a4.88,4.88,0,0,1-.08,4.71c-.59,1-2.64.87-3.88,1.42l-.14-4.44c1.23-.63,3.4-.47,4-1.51A.49.49,0,0,0,95.26,32.51Z"/><path class="cls-2" d="M91.16,34.2l.14,4.44a2,2,0,0,0-.58.35c-1,.92-.72,3.61-2,4.36V38.83c1.26-.75,1-3.43,2-4.35A1.37,1.37,0,0,1,91.16,34.2Z"/><path class="cls-4" d="M88.74,38.83v4.52c-1.16.7-3.47-.75-4.81-.19V38.64C85.27,38.09,87.58,39.53,88.74,38.83Z"/><path class="cls-2" d="M83.93,38.64v4.52c-1.26.52-1.8,3.17-3.2,3.58V42.22C82.13,41.82,82.67,39.17,83.93,38.64Z"/><path class="cls-5" d="M82,17.7c1.08,0,1.94.44,1.94,1s-.86,1-1.94,1-1.94-.44-1.94-1S80.92,17.7,82,17.7Z"/><path class="cls-5" d="M82,30.27c1.08,0,1.94.44,1.94,1s-.86,1-1.94,1-1.94-.42-1.94-1S80.92,30.27,82,30.27Z"/><path class="cls-4" d="M80.73,42.22v4.52c-1.31.39-3.23-1.56-4.63-1.28V41C77.5,40.67,79.42,42.6,80.73,42.22Z"/><path class="cls-2" d="M76.1,41v4.51c-1.36.26-2.39,2.77-3.8,2.94V43.87C73.71,43.72,74.74,41.21,76.1,41Z"/><path class="cls-4" d="M72.3,43.87V48.4c-1.4.15-3-2-4.38-2V41.88C69.33,41.82,70.9,44,72.3,43.87Z"/><path class="cls-2" d="M67.92,41.88V46.4c-1.4.06-2.8,2.39-4.19,2.35V44.24C65.12,44.28,66.52,42,67.92,41.88Z"/><path class="cls-5" d="M67.19,24.4c1.08,0,1.94.42,1.94,1s-.86,1-1.94,1-2-.44-2-1S66.12,24.4,67.19,24.4Z"/><path class="cls-5" d="M66.64,13.93c1.06,0,1.94.43,1.94,1s-.88,1-1.94,1-1.94-.44-1.94-1S65.56,13.93,66.64,13.93Z"/><path class="cls-5" d="M66.64,36.22c1.06,0,1.94.44,1.94,1s-.88,1-1.94,1-1.94-.44-1.94-1S65.56,36.22,66.64,36.22Z"/><path class="cls-4" d="M63.73,44.24v4.51c-1.41,0-2.67-2.44-4-2.58V41.66C61.06,41.8,62.32,44.2,63.73,44.24Z"/><path class="cls-2" d="M59.68,41.66v4.51c-1.42-.14-3.13,2-4.48,1.74V43.39C56.55,43.63,58.26,41.52,59.68,41.66Z"/><path class="cls-4" d="M55.2,43.39v4.52c-1.42-.25-2.28-2.82-3.6-3.19V40.21C52.92,40.57,53.78,43.13,55.2,43.39Z"/><path class="cls-5" d="M51.6,17.7c1.07,0,1.94.44,1.94,1s-.87,1-1.94,1-1.94-.44-1.94-1S50.52,17.7,51.6,17.7Z"/><path class="cls-2" d="M51.6,40.21v4.51c-1.4-.37-3.47,1.39-4.73.89V41.1C48.13,41.59,50.2,39.83,51.6,40.21Z"/><path class="cls-5" d="M50.74,28.17c1.08,0,1.94.44,1.94,1s-.86,1-1.94,1-1.94-.44-1.94-1S49.68,28.17,50.74,28.17Z"/><path class="cls-4" d="M46.87,41.1v4.51c-1.36-.53-1.61-3.23-2.77-3.91a.71.71,0,0,0-.16-.07h0l.16-4.43C45.26,37.86,45.51,40.57,46.87,41.1Z"/><path class="cls-2" d="M44.1,37.19l-.16,4.43h0c-1.32-.59-3.67.32-4.6-.56V36.55C40.31,37.46,42.83,36.44,44.1,37.19Z"/><path class="cls-4" d="M39.34,36.55v4.52c-1.06-1-.11-3.5-.72-4.7a2.27,2.27,0,0,0-.49-.6V31.24a2.35,2.35,0,0,1,.49.62C39.23,33.06,38.28,35.55,39.34,36.55Z"/><path class="cls-2" d="M35.37,33.21a6,6,0,0,1,0-4.78c.07,1.19,1.84,1.9,2.81,2.81v4.53c-.8-.75-2.12-1.37-2.61-2.22a2.1,2.1,0,0,1-.13-.26A.31.31,0,0,0,35.37,33.21Z"/><g class="cls-6"><path class="cls-7" d="M82.74,33.68c-1.84-.4-1,1.64-.26,1.44S84.58,34.07,82.74,33.68Z"/><path class="cls-7" d="M92.07,18.93c1.33-.61-.14-1.49-.51-1S90.73,19.53,92.07,18.93Z"/><path class="cls-7" d="M94.67,26.24c3.14-3.78-2.62-4.27-3-2.33S91.53,30,94.67,26.24Z"/><path class="cls-7" d="M83.39,22.78C84.24,21,85,17,81.07,19.84S82.54,24.53,83.39,22.78Z"/><path class="cls-7" d="M86.37,17.25a6.07,6.07,0,0,0,.9-.06A1.12,1.12,0,0,0,87,18.36a5.42,5.42,0,0,0,.68,1.07c-.39.41-.27.93,1.15,1.46,2.65,1,2.09-1.9,1-2.22,0-.09,0-.17,0-.28.07-1.5-.5-2-1.15-2,.72-1.27-1.18-3.46-2.4-2.84C84.61,14.41,81.62,17.13,86.37,17.25Z"/><path class="cls-7" d="M92,32.93c-.17.31-.35,1,.39.56S92.14,32.63,92,32.93Z"/><path class="cls-7" d="M92.73,29.26c-2.13-3.47-4.06.91-2.64,1.75S94.86,32.74,92.73,29.26Z"/><path class="cls-7" d="M88.13,31.76l.29-.3c2.71-3.1-2.1-3.65-2.48-2a6.26,6.26,0,0,0-.15,1.22c-.91.61-1.17,2.52-.25,3C87,34.36,90.4,35,88.13,31.76Z"/><path class="cls-7" d="M84.63,37c.58.92,2.27,2.46,2.08-.23S84.05,36.05,84.63,37Z"/><path class="cls-7" d="M75,32.1c-1,.75.41,1.17.61.72S76,31.35,75,32.1Z"/><path class="cls-7" d="M69.86,31.89c-.6-.35-1.66.51-1.39,1.11.34.76,1.41,2,1.69.51.38.52.88.66,1.23-.71C71.82,31.09,70.39,31.29,69.86,31.89Z"/><path class="cls-7" d="M68.4,32.26c.79-1.08-.78-1.12-.86-.58S67.62,33.34,68.4,32.26Z"/><path class="cls-7" d="M77.76,39.65c.37.62,1.49,1.67,1.4-.13S77.38,39,77.76,39.65Z"/><path class="cls-7" d="M64,38.26c-1.64-.16-5,.45-1.65,2.7S65.67,38.42,64,38.26Z"/><path class="cls-7" d="M82,33.55C86.27,32,82,29,80.73,30.3a6,6,0,0,0-1.36,2.48c-1.13-.52-3.52-.93-1.79,1.47,1.22,1.68,2.16.62,2.27-.38A3.56,3.56,0,0,0,82,33.55Z"/><path class="cls-7" d="M54.39,35.38A1.24,1.24,0,0,0,54.5,34c-.92-1.14-3.42-2.94-2.75.62.27,1.45.93,1.8,1.55,1.64a1.92,1.92,0,0,0-.15.14c-3,3.1,2,3.88,2.49,2.21C56,37.22,56.09,34.47,54.39,35.38Z"/><path class="cls-7" d="M81.07,36a.74.74,0,0,0-.39-.35c-1.28-.48-4.13-.71-1.9,1.8a4,4,0,0,0,.29.29,1.14,1.14,0,0,0,1,.54.86.86,0,0,0,.79-.29C81.87,37.43,82.87,36.49,81.07,36Z"/><path class="cls-7" d="M62.29,37.41c-.13,1,.91.44.77.07S62.42,36.42,62.29,37.41Z"/><path class="cls-7" d="M70.7,31.2c.35,0,1-.27.25-.62S70.35,31.22,70.7,31.2Z"/><path class="cls-7" d="M79.85,30.82a7.14,7.14,0,0,0,.83-2c.87.23,1.35-.39,1.45-1.14,1.59.79,1.45-1.53.62-1.59a3.54,3.54,0,0,0-1,.07.87.87,0,0,0-.47-.29c-1.32-.28-3.95-.14-2.54,1.56-.25.11-.51.25-.82.42C74,30.12,78.88,32.39,79.85,30.82Z"/><path class="cls-7" d="M67.21,29.76c1.06-1.24-.85-1.44-1-.79S66.15,31,67.21,29.76Z"/><path class="cls-7" d="M87.79,22.33a.51.51,0,0,0-.55-.12c-.54.3-1.44,1.19-.09,1.24a2.19,2.19,0,0,0,.39,1.11c-.29,0-.61,0-1,0-4.73.12-1.45,4.61.22,3.67a7.3,7.3,0,0,0,1.48-1.12,1.24,1.24,0,0,0,1.38.28,5.69,5.69,0,0,0,1.2-1,.53.53,0,0,0,.28,0c.43-.13.31-.38.12-.49.34-.6.27-1.14-.81-1.29,1-.65,1.47-1.57-1-2.2A2.58,2.58,0,0,0,87.79,22.33Z"/><path class="cls-7" d="M77.69,22c-1.35.62-3.74,2.63-.07,2.86S79.05,21.4,77.69,22Z"/><path class="cls-7" d="M73.41,18.54c.53,0,1.63-.18.51-.89S72.88,18.49,73.41,18.54Z"/><path class="cls-7" d="M74.6,17.25a6.28,6.28,0,0,0,.29,1.34c0,.13.08.22.12.33-.79,0-1.53.39-.25,1.37.72.56,1.14.41,1.34.06,1.38.6,3-1.94,2-2.88A5.65,5.65,0,0,0,75.71,16C77,13.94,73.62,13.75,73.38,15S73.28,18.21,74.6,17.25Z"/><path class="cls-7" d="M69.68,15c-.16,1.28.17,2.61,2.08.81.68-.64.86-1.16.77-1.56.66-1.83.91-5.13-2.48-2.39C68.19,13.37,68.67,14.5,69.68,15Z"/><path class="cls-7" d="M45.49,32.73a7.14,7.14,0,0,0-1,.53c-.13-.45-.77-.74-2.32-.61-4.15.35-1,4.13.39,3.22a6.51,6.51,0,0,0,.71-.55c.26.32.87.56,2,.65C49.53,36.27,47,32.05,45.49,32.73Z"/><path class="cls-7" d="M81.83,15.56c1.16-.55,3.18-2.34,0-2.47S80.67,16.11,81.83,15.56Z"/><path class="cls-7" d="M61.62,15.5a.91.91,0,0,0,.3.28c.7.45.73-.39.46-.57.72-.43,1.27-1.2,1-1.84-.65-1.63-2.89-4.56-3.36-.25C59.81,15.17,60.7,15.68,61.62,15.5Z"/><path class="cls-7" d="M66.46,13.37c-.75.41-.18,2,.57,1.9,1-.12,2.94-.92.63-1.82a2.45,2.45,0,0,0-.37-.11c.32-.46.62-1.29-.51-.83C66.1,12.78,66.19,13.15,66.46,13.37Z"/><path class="cls-7" d="M65.84,14c1.08-.86-.47-1.33-.7-.82S64.76,14.86,65.84,14Z"/><path class="cls-7" d="M54,13.33c-.44-.39-1.56-.94-1.05.44S54.43,13.72,54,13.33Z"/><path class="cls-7" d="M65.74,16.94c-2.7-.24-1.12,2.53-.11,2.1S68.44,17.18,65.74,16.94Z"/><path class="cls-7" d="M56.55,15.93l.19-.09-.13.1c-1.92,1.77,1.08,2.45,1.43,1.45.28-.79.42-2.33-.48-2.07.85-.67,1.32-1.58-.89-1.77C53.62,13.3,55.42,16.41,56.55,15.93Z"/><path class="cls-7" d="M66.34,21.67c-1.25.23-.18,1.28.22,1S67.59,21.44,66.34,21.67Z"/><path class="cls-7" d="M75.16,28.46c1.09-1.24,2.56-4.27-1.22-2.88a3.7,3.7,0,0,0-.4.17s0,0,0-.05c-1.11-1.17-4-2.91-3,.93a2.56,2.56,0,0,0,.9,1.53c-.5.38-.43,1.12.94,2.43C75.12,33.21,76.08,29.73,75.16,28.46Z"/><path class="cls-7" d="M56.24,22.87c-.78-.65-1.61-.52-1.94,1.92a4.5,4.5,0,0,0,0,1.09c-.85.55-1.43,1.27-.72,1.86-.28.3-.16.74.91,1.34a2.64,2.64,0,0,0,.79.3.84.84,0,0,0-.08.79,4.16,4.16,0,0,0,1.16,1.38c0,.3.32.68.58.57s.95-.62.4-.81a3.54,3.54,0,0,0,.18-1.2c0-1.42-.63-1.71-1.26-1.52,0,0,0-.08,0-.12,1.67,0,1.76-1.3,1.24-2.27a1.18,1.18,0,0,0,.22-1.08,7.59,7.59,0,0,0-.7-1.35C57.28,23.38,57.2,23,56.24,22.87Z"/><path class="cls-7" d="M65.76,33c.18,0,.24-.41.08-.48s-.46-.12-.5,0a.77.77,0,0,0-.27-.08c-1.16,0-3.54.54-1,2C65.89,35.49,66.2,33.88,65.76,33Z"/><path class="cls-7" d="M44.69,23.19c-.22.58-.34,1.9.83.88S44.92,22.6,44.69,23.19Z"/><path class="cls-7" d="M60.37,33.42c-1,.48-2.71,2,0,2.11S61.35,32.94,60.37,33.42Z"/><path class="cls-7" d="M54.33,31.23c.53.58.73-.33.43-.43S53.79,30.65,54.33,31.23Z"/><path class="cls-7" d="M58.48,37.54c-1.91.31-.33,2,.3,1.48S60.4,37.23,58.48,37.54Z"/><path class="cls-7" d="M63.48,31.33c1.44.6,4.7,1,2.24-2S62,30.74,63.48,31.33Z"/><path class="cls-7" d="M66.68,26.84l.24,0c-.24,1.22,0,2.38,2.07.88.82-.59,1.06-1.12,1-1.55.46-.58.11-1.44-.46-2,0-.09,0-.19,0-.29,1.19.18,2.77-.56,2.73-1.61A7.17,7.17,0,0,0,72,20.6a1.21,1.21,0,0,0,.45-1.22c-.5-1.51-2.38-4.29-3-.4a4.27,4.27,0,0,0-.06.68,7.86,7.86,0,0,0-.62,1.06,5.66,5.66,0,0,0-.34.89,2,2,0,0,0-1.83,1.59,7.89,7.89,0,0,0-1.15.66c0-.45-.48-1-1.87-1.47a2.53,2.53,0,0,0-2-.1A8.1,8.1,0,0,0,61.59,21c.35-.09.76-.5,1.26-1.42,1.75-3.26-2.57-2.77-2.58-1.27a3.79,3.79,0,0,0,0,.73,4.14,4.14,0,0,0-1.92,1.49c-1.65,1.91-1,3,.15,3.38a9.08,9.08,0,0,0-.12.92c0,.14,0,.26,0,.39a.59.59,0,0,0-.31.45c0,.77.23,2.24,1.05,1.5,1,.63,2.8-.58,2.92-1.7a.94.94,0,0,0,.44.06A6.64,6.64,0,0,0,64.28,25C63.87,25.76,64.29,26.51,66.68,26.84Z"/><path class="cls-7" d="M40.42,25.14a1.79,1.79,0,0,0,1.12-.94.8.8,0,0,0,.68,0c1.07-.63,2.9-2.51-.18-2.39a1.91,1.91,0,0,0-1.38.47c-.62-.59-1.31-.66-1.47,1.24,0,.14,0,.26,0,.38a.67.67,0,0,0-.24.73C39.23,25.27,40.14,26.38,40.42,25.14Z"/><path class="cls-7" d="M55.51,19.21c-.42.58-.95,2,.65,1.22S55.94,18.63,55.51,19.21Z"/><path class="cls-7" d="M45.93,24.92c.39.22,1.3.45.71-.48S45.54,24.7,45.93,24.92Z"/><path class="cls-7" d="M47.18,36.16c-2.14,3.25,2.44,3.14,2.59,1.57S49.32,32.9,47.18,36.16Z"/><path class="cls-7" d="M49.3,17.19a.89.89,0,0,0,0,.92c-1.57-.61-3.19-.53-1.66,2.54a3.55,3.55,0,0,0,1.14,1.45c-1.35,1.61,1.85,3.23,2.73,2.08.72-.95,1.57-2.86.75-3.35.66-1.55.88-3.68-1.84-2.17l-.36-.2c.77-.13,1.81-.62.29-1.31a1.42,1.42,0,0,0-.63-.14.89.89,0,0,0,.37-.47c.41-1.43.41-4.56-2.13-1.9C46,16.66,48.05,17.53,49.3,17.19Z"/><path class="cls-7" d="M44.63,21c.69.05.28-.65,0-.53S44,21,44.63,21Z"/><path class="cls-7" d="M43.55,18.12c1.57,0,.5-1.52-.06-1.22S42,18.14,43.55,18.12Z"/><path class="cls-7" d="M74.11,36.52a5.37,5.37,0,0,0-2.8,1.07,1.12,1.12,0,0,0-.41.17c-1.51,1.16-3.91,4.38.74,3.59,1.41-.24,2-.76,2.17-1.35C76.83,40.6,75.74,36.35,74.11,36.52Z"/><path class="cls-7" d="M50.8,26.78c.79-.24,2.24-1.18.24-1.56S50,27,50.8,26.78Z"/><path class="cls-7" d="M48.39,27.58c-1.08,1.25-2.56,4.4,1.25,2.92S49.47,26.33,48.39,27.58Z"/><path class="cls-7" d="M43,28.76a2.16,2.16,0,0,0,0-.27c1.35-.59,2.82-1.84-.16-2.49-2.29-.49-2.37,1-1.76,2-.4-.39-.86-.41-1,.87a1.78,1.78,0,0,0,0,.79,1.84,1.84,0,0,0-.4.22,3.34,3.34,0,0,0,0-.86c-.36-2.5-2.53-.47-1.93.35.37.51,1.16,1.21,1.62,1.08,0,.68,1.16,1.29,1.61.83s.93-1.3.7-1.69a.56.56,0,0,0,.11-.52C42.24,29.27,42.93,29.17,43,28.76Zm-1.51-.33v0l0-.06Z"/></g><g class="cls-6"><path class="cls-8" d="M44.19,22.28c-1.24,1.26.81,1.62,1,.94S45.44,21,44.19,22.28Z"/><path class="cls-8" d="M41.59,26.88c1.38.92,1.34-1,.68-1.1S40.21,26,41.59,26.88Z"/><path class="cls-8" d="M57.41,25.1c1.11-1.21-.8-1.47-1-.83S56.3,26.31,57.41,25.1Z"/><path class="cls-8" d="M48.69,34.1c.6-.33-.13-.68-.27-.45S48.1,34.44,48.69,34.1Z"/><path class="cls-8" d="M46.63,28.91c-1.59.49,0,1.7.43,1.22S48.23,28.42,46.63,28.91Z"/><path class="cls-8" d="M53.86,32c-.83-1.53-1.75.31-1.16.7S54.7,33.55,53.86,32Z"/><path class="cls-8" d="M47.1,24.39c1.7.58,1.11-1.46.4-1.34S45.39,23.82,47.1,24.39Z"/><path class="cls-8" d="M66.51,38.51c2.08-.58.12-2.2-.51-1.6S64.42,39.1,66.51,38.51Z"/><path class="cls-8" d="M55.69,25.46c-.71.07-.17.71.07.55S56.4,25.39,55.69,25.46Z"/><path class="cls-8" d="M65.48,31.75c-.83-.68-.93.58-.5.66S66.31,32.43,65.48,31.75Z"/><path class="cls-8" d="M62.93,27.39c.21-.77-.67-.45-.6-.14S62.72,28.16,62.93,27.39Z"/><path class="cls-8" d="M53.34,15.84c.59-1.14-.9-.95-.9-.43S52.75,17,53.34,15.84Z"/><path class="cls-8" d="M68.55,27.68c1.07-1.26-.87-1.45-1-.8S67.49,28.94,68.55,27.68Z"/><path class="cls-8" d="M73.42,28.36c-1.43.07-.4,1.4.09,1.1S74.84,28.29,73.42,28.36Z"/><path class="cls-8" d="M59.92,14.21c.94-.68-.35-1.14-.56-.72S59,14.89,59.92,14.21Z"/><path class="cls-8" d="M58.66,29.32c2.1.34,1-1.92.21-1.64S56.56,29,58.66,29.32Z"/><path class="cls-8" d="M72.15,10.84c-.32,1.18,1,.7.92.21S72.46,9.66,72.15,10.84Z"/><path class="cls-8" d="M71.11,17.1c1.33-.05.38-1.29-.08-1S69.79,17.16,71.11,17.1Z"/><path class="cls-8" d="M82.76,17c-.32.46.33.46.36.24S83.07,16.59,82.76,17Z"/><path class="cls-8" d="M76.21,21.49c-.6-.66-.83.36-.49.48S76.81,22.14,76.21,21.49Z"/><path class="cls-8" d="M64.8,28.67c1.13-1.78-1.34-1.67-1.41-.83S63.67,30.45,64.8,28.67Z"/><path class="cls-8" d="M79.14,26.31c.77-.49-.22-.91-.4-.59S78.37,26.79,79.14,26.31Z"/><path class="cls-8" d="M81.25,28.43c2.21.8,1.5-1.87.56-1.74S79,27.62,81.25,28.43Z"/><path class="cls-8" d="M76,31.62c-.48-2.05-2.15-.22-1.59.43S76.47,33.68,76,31.62Z"/><path class="cls-8" d="M70.43,35.74c1.24,1.25,1.61-.79.93-1S69.17,34.5,70.43,35.74Z"/><path class="cls-8" d="M82.89,35.21c-1.07.6.22,1.23.49.82S84,34.62,82.89,35.21Z"/><path class="cls-8" d="M69.34,23.59c.32,1.56,1.61.21,1.2-.28S69,22,69.34,23.59Z"/><path class="cls-8" d="M87.71,19.37c-.33,2.31,2.12,1.07,1.8.19S88,17.06,87.71,19.37Z"/><path class="cls-8" d="M84.86,33c0-1.43-1.38-.47-1.11,0S84.86,34.45,84.86,33Z"/><path class="cls-8" d="M91.44,28.17c-.62-.69-.87.37-.52.5S92.05,28.86,91.44,28.17Z"/><path class="cls-8" d="M76,24.71c1.92-1.38-.7-2.3-1.12-1.45S74.05,26.09,76,24.71Z"/><path class="cls-8" d="M87.52,26.83c.93-1.65-1.29-1.45-1.31-.68S86.58,28.49,87.52,26.83Z"/><path class="cls-8" d="M80.81,21c-.12.76.69.37.59.08S80.93,20.19,80.81,21Z"/><path class="cls-8" d="M54.18,18.49c.93,1.7,2-.34,1.29-.77S53.24,16.78,54.18,18.49Z"/></g><g class="cls-9"><path class="cls-10" d="M50.23,19.56c1.85.35,1-1.67.22-1.45S48.38,19.2,50.23,19.56Z"/><path class="cls-10" d="M41.2,34.49c-1.32.63.17,1.49.53,1S42.52,33.86,41.2,34.49Z"/><path class="cls-10" d="M38.45,27.23c-3.06,3.85,2.71,4.23,3.08,2.27S41.51,23.38,38.45,27.23Z"/><path class="cls-10" d="M49.8,30.46c-.81,1.77-1.44,5.82,2.38,2.89S50.62,28.69,49.8,30.46Z"/><path class="cls-10" d="M46.94,36.06a4.06,4.06,0,0,0-.9.07A1.13,1.13,0,0,0,46.29,35a5.77,5.77,0,0,0-.71-1.06c.38-.42.25-.94-1.18-1.44-2.67-.94-2,1.95-1,2.24,0,.1,0,.18,0,.29,0,1.49.54,2,1.19,2-.69,1.29,1.25,3.43,2.46,2.79C48.75,38.85,51.69,36.07,46.94,36.06Z"/><path class="cls-10" d="M41,20.49c.17-.31.33-1-.4-.55S40.85,20.8,41,20.49Z"/><path class="cls-10" d="M42.94,22.37c-1.44-.81-4.81-1.63-2.61,1.8S44.37,23.18,42.94,22.37Z"/><path class="cls-10" d="M44.87,21.58l-.28.31c-2.65,3.15,2.18,3.6,2.53,2a6.36,6.36,0,0,0,.12-1.21c.89-.63,1.12-2.55.19-3C45.93,19,42.54,18.4,44.87,21.58Z"/><path class="cls-10" d="M44.7,17.84c-.6-.91-2.32-2.41-2.07.27S45.29,18.75,44.7,17.84Z"/><path class="cls-10" d="M58,21c.95-.77-.43-1.16-.62-.71S57,21.74,58,21Z"/><path class="cls-10" d="M63.14,21.08c.61.33,1.65-.55,1.37-1.14-.36-.76-1.45-2-1.71-.48-.39-.51-.89-.64-1.2.73C61.2,21.92,62.62,21.68,63.14,21.08Z"/><path class="cls-10" d="M64.59,20.67c-.77,1.1.8,1.1.87.57S65.35,19.57,64.59,20.67Z"/><path class="cls-10" d="M55.08,13.48c-.39-.61-1.52-1.64-1.39.16S55.47,14.1,55.08,13.48Z"/><path class="cls-10" d="M68.83,14.59c1.64.12,5-.56,1.59-2.73S67.19,14.46,68.83,14.59Z"/><path class="cls-10" d="M78.53,17.27a1.2,1.2,0,0,0-.07,1.37c.93,1.13,3.47,2.88,2.73-.67-.3-1.44-1-1.78-1.58-1.6l.14-.15c2.89-3.16-2.1-3.83-2.54-2.15C76.85,15.46,76.85,18.21,78.53,17.27Z"/><path class="cls-10" d="M51.85,17.24a.72.72,0,0,0,.4.35c1.29.45,4.14.63,1.86-1.84a3.71,3.71,0,0,0-.3-.28,1.11,1.11,0,0,0-1-.52.86.86,0,0,0-.78.3C51,15.79,50,16.75,51.85,17.24Z"/><path class="cls-10" d="M70.6,15.4c.1-1-.92-.43-.77-.05S70.49,16.39,70.6,15.4Z"/><path class="cls-10" d="M53.11,19.3a3.68,3.68,0,0,0-2.18.36c-4.2,1.62.18,4.6,1.38,3.22a6,6,0,0,0,1.31-2.5c1.13.5,3.53.86,1.75-1.51C54.12,17.22,53.2,18.3,53.11,19.3Z"/><path class="cls-10" d="M62.32,21.79c-.35,0-1,.28-.25.62S62.66,21.76,62.32,21.79Z"/><path class="cls-10" d="M53.17,22.35a6.94,6.94,0,0,0-.78,2c-.88-.22-1.35.42-1.44,1.17-1.6-.76-1.41,1.56-.57,1.6a3.18,3.18,0,0,0,.95-.09.85.85,0,0,0,.48.28c1.32.25,3.95.06,2.5-1.62a8.34,8.34,0,0,0,.82-.43C59,22.93,54.12,20.76,53.17,22.35Z"/><path class="cls-10" d="M65.84,23.16c-1,1.26.87,1.41,1,.76S66.87,21.89,65.84,23.16Z"/><path class="cls-10" d="M45.41,31a.53.53,0,0,0,.55.1c.54-.31,1.42-1.22.07-1.24a2.32,2.32,0,0,0-.41-1.11,7.58,7.58,0,0,0,1,0c4.73-.22,1.36-4.64-.29-3.67a7.13,7.13,0,0,0-1.46,1.16A1.23,1.23,0,0,0,43.47,26a5.78,5.78,0,0,0-1.18,1,.55.55,0,0,0-.28,0c-.43.14-.3.39-.11.49-.33.61-.25,1.15.83,1.27-1,.68-1.43,1.61,1.06,2.18A2.61,2.61,0,0,0,45.41,31Z"/><path class="cls-10" d="M55.51,31.11c1.34-.64,3.69-2.71,0-2.85S54.17,31.75,55.51,31.11Z"/><path class="cls-10" d="M74.84,32.21c1.6-1.93.91-3-.23-3.37a7.19,7.19,0,0,0,.1-.92c0-.14,0-.26,0-.39a.6.6,0,0,0,.3-.45c0-.78-.28-2.25-1.08-1.49-1.06-.61-2.79.64-2.89,1.77a.83.83,0,0,0-.44-.06,6.28,6.28,0,0,0-1.74.56c.4-.77,0-1.52-2.44-1.8h-.24c.22-1.23-.07-2.38-2.09-.84-.8.61-1,1.14-1,1.57-.44.59-.08,1.44.51,2a2.8,2.8,0,0,0,0,.29c-1.2-.15-2.76.62-2.7,1.68a7.37,7.37,0,0,0,.3,1.68,1.22,1.22,0,0,0-.44,1.22c.54,1.51,2.48,4.25,3.05.34a4.27,4.27,0,0,0,.06-.68,9,9,0,0,0,.59-1.07,5.18,5.18,0,0,0,.32-.9,2,2,0,0,0,1.8-1.62A8.05,8.05,0,0,0,67.76,29c0,.46.49.95,1.89,1.43a2.52,2.52,0,0,0,2,.06,8.15,8.15,0,0,0,0,1.31c-.35.1-.76.52-1.23,1.44C68.71,36.55,73,36,73,34.48a5,5,0,0,0-.07-.73A4.1,4.1,0,0,0,74.84,32.21Z"/><path class="cls-10" d="M59.87,34.5c-.53,0-1.63.21-.5.89S60.4,34.53,59.87,34.5Z"/><path class="cls-10" d="M58.7,35.81a6.51,6.51,0,0,0-.31-1.34c0-.12-.09-.21-.13-.32.79-.06,1.51-.42.22-1.38-.73-.54-1.15-.38-1.34,0-1.4-.57-2.92,2-2,2.93a5.72,5.72,0,0,0,2.43,1.39c-1.21,2.11,2.13,2.22,2.35,1S60,34.82,58.7,35.81Z"/><path class="cls-10" d="M63.67,37.94c.13-1.29-.23-2.61-2.1-.77-.66.65-.83,1.18-.74,1.57-.62,1.85-.8,5.15,2.54,2.35C65.19,39.55,64.69,38.44,63.67,37.94Z"/><path class="cls-10" d="M87.49,19.73a7.33,7.33,0,0,0,.94-.55c.13.46.78.73,2.32.57,4.15-.44,1-4.15-.45-3.21a6.34,6.34,0,0,0-.7.56c-.26-.31-.88-.55-2.06-.61C83.38,16.28,86,20.44,87.49,19.73Z"/><path class="cls-10" d="M51.51,37.65c-1.15.58-3.14,2.4,0,2.47S52.66,37.07,51.51,37.65Z"/><path class="cls-10" d="M71.71,37.29a.81.81,0,0,0-.3-.27c-.71-.44-.72.4-.45.58-.71.45-1.24,1.22-1,1.86.68,1.61,3,4.49,3.36.17C73.53,37.59,72.63,37.09,71.71,37.29Z"/><path class="cls-10" d="M66.93,39.52c.74-.42.13-2-.62-1.89-1,.14-2.92,1-.59,1.83a2.24,2.24,0,0,0,.38.11c-.32.47-.61,1.3.52.82C67.29,40.11,67.2,39.74,66.93,39.52Z"/><path class="cls-10" d="M67.53,38.88c-1.07.88.5,1.32.71.8S68.59,38,67.53,38.88Z"/><path class="cls-10" d="M80.43,38.85c-.54-1.37-1.49.07-1,.45S81,40.21,80.43,38.85Z"/><path class="cls-10" d="M67.63,33.83c-1,.45-2.76,1.93-.06,2.11S68.63,33.39,67.63,33.83Z"/><path class="cls-10" d="M76.77,36.76l-.18.09a.6.6,0,0,0,.12-.11c1.89-1.8-1.12-2.41-1.45-1.41-.27.79-.38,2.34.52,2.06-.84.69-1.29,1.61.93,1.74C79.76,39.33,77.9,36.25,76.77,36.76Z"/><path class="cls-10" d="M66.63,30.26c-.39.33-1,1.22.24,1S67,29.94,66.63,30.26Z"/><path class="cls-10" d="M57.91,24.61c-1.07,1.27-2.47,4.32,1.28,2.86l.4-.18,0,.05c1.13,1.15,4.08,2.83,2.94-1a2.64,2.64,0,0,0-.93-1.51c.49-.38.41-1.12-1-2.41C57.86,19.86,57,23.37,57.91,24.61Z"/><path class="cls-10" d="M78.84,27.85a4.3,4.3,0,0,0,0-1.08c.84-.57,1.41-1.31.68-1.88.28-.31.15-.75-.93-1.32a2.37,2.37,0,0,0-.81-.28.81.81,0,0,0,.07-.79,4,4,0,0,0-1.19-1.37c0-.29-.33-.67-.58-.55s-1,.64-.39.81a3.32,3.32,0,0,0-.15,1.21c0,1.42.66,1.69,1.28,1.49v.12c-1.67.06-1.74,1.34-1.2,2.3a1.17,1.17,0,0,0-.19,1.08,6.62,6.62,0,0,0,.73,1.34c-.27.4-.18.77.78.88C77.74,30.45,78.57,30.3,78.84,27.85Z"/><path class="cls-10" d="M67.22,19.9c-.19,0-.24.41-.07.48s.46.11.5,0a.79.79,0,0,0,.26.08c1.17,0,3.53-.61,1-2C67,17.39,66.76,19,67.22,19.9Z"/><path class="cls-10" d="M87.64,28.39c-1.15,1.05.63,1.46.84.87S88.79,27.35,87.64,28.39Z"/><path class="cls-10" d="M72.6,19.35c1-.5,2.66-2.07,0-2.11S71.62,19.85,72.6,19.35Z"/><path class="cls-10" d="M78.68,21.41c-.54-.56-.72.35-.42.45S79.24,22,78.68,21.41Z"/><path class="cls-10" d="M74.4,15.19c1.91-.35.29-1.95-.33-1.47S72.49,15.55,74.4,15.19Z"/><path class="cls-10" d="M69.53,21.5c-1.45-.57-4.72-.88-2.2,2S71,22.06,69.53,21.5Z"/><path class="cls-10" d="M77.74,33.45c.42-.58.92-2-.66-1.2S77.33,34,77.74,33.45Z"/><path class="cls-10" d="M94,28.83a2.41,2.41,0,0,0,0-.38.68.68,0,0,0,.24-.73c-.31-.66-1.25-1.75-1.5-.5a1.82,1.82,0,0,0-1.1,1,.77.77,0,0,0-.68,0c-1.06.64-2.84,2.56.23,2.38a1.9,1.9,0,0,0,1.37-.5C93.16,30.68,93.86,30.74,94,28.83Z"/><path class="cls-10" d="M86.51,28.05c.61.92,1.09-.29.7-.5S85.9,27.13,86.51,28.05Z"/><path class="cls-10" d="M85.73,16.34c2.07-3.3-2.51-3.09-2.62-1.52S83.65,19.64,85.73,16.34Z"/><path class="cls-10" d="M84,35.35a.9.9,0,0,0,0-.92c1.58.58,3.19.47,1.61-2.58a3.61,3.61,0,0,0-1.17-1.42c1.31-1.64-1.92-3.19-2.77-2-.71,1-1.52,2.88-.69,3.36-.62,1.56-.81,3.7,1.89,2.13l.37.2c-.77.14-1.8.65-.27,1.31a1.38,1.38,0,0,0,.63.13.86.86,0,0,0-.36.48c-.38,1.44-.32,4.56,2.17,1.85C87.29,35.81,85.24,35,84,35.35Z"/><path class="cls-10" d="M88.59,31.45c-.69,0-.27.65,0,.53S89.27,31.48,88.59,31.45Z"/><path class="cls-10" d="M89.72,34.3c-1.56.06-.46,1.53.09,1.22S91.29,34.24,89.72,34.3Z"/><path class="cls-10" d="M58.79,16.54a5.38,5.38,0,0,0,2.78-1.13,1.05,1.05,0,0,0,.4-.19c1.49-1.19,3.82-4.45-.81-3.57-1.4.27-2,.81-2.14,1.4C56,12.51,57.17,16.74,58.79,16.54Z"/><path class="cls-10" d="M82.09,27.36c2,.34,1-1.83.21-1.57S80.08,27,82.09,27.36Z"/><path class="cls-10" d="M83.38,22.05c-3.78,1.56.26,4.16,1.31,2.89S87.16,20.49,83.38,22.05Z"/><path class="cls-10" d="M90,23.65c0,.08,0,.18,0,.28-1.33.61-2.78,1.89.21,2.48,2.31.45,2.35-1.06,1.73-2,.41.39.86.4,1-.89a1.75,1.75,0,0,0,0-.79,2.11,2.11,0,0,0,.4-.22,3.35,3.35,0,0,0,0,.85c.41,2.5,2.55.43,1.93-.39-.39-.5-1.19-1.19-1.65-1.05,0-.67-1.19-1.26-1.62-.79s-.91,1.32-.67,1.7a.58.58,0,0,0-.1.53C90.81,23.13,90.12,23.24,90,23.65Zm1.51.3v0l0,.06Z"/></g><path class="cls-4" d="M56.5,14.73a4.85,4.85,0,0,1,2.23,4.13c0,1.16-1.88,2.06-2.7,3.16L53.74,18.2c.76-1.16,2.73-2.07,2.77-3.28A1.28,1.28,0,0,0,56.5,14.73Z"/><path class="cls-3" d="M55.87,13.61a2.24,2.24,0,0,1,.63,1.12,1.28,1.28,0,0,1,0,.19c0,1.21-2,2.12-2.77,3.28a2.08,2.08,0,0,0-.24.47c-.42,1.28,1.12,3.5.4,4.77s-3.38,1-4.28,2.19,0,3.66-1,4.68-3.58.24-4.68,1.17-.72,3.59-1.87,4.41-3.6-.33-4.8.41S36,39.76,34.76,40.42s-3.52-.84-4.79-.28-1.77,3.27-3.07,3.72-3.36-1.34-4.68-1-2.35,2.91-3.69,3.09-3-2-4.34-2S11,46,9.74,45.68s-1.81-3-2.94-3.75a2.28,2.28,0,0,0-.73-.29c-1.29-.31-3.18-.08-3.82-1.07s.89-3.27.56-4.76c-.25-1.11-2.67-2-2.65-3.1s2.44-2,2.67-3.09-1.63-2.85-1.21-3.9,3-1,3.57-2-.8-3.16-.11-4.09S8.25,19.3,9,18.44s-.16-3.26.66-4,3.19.2,4.06-.53S14,10.63,14.93,10s3.16.62,4.1,0,.71-3.18,1.68-3.73,3.07,1,4.06.49,1.11-3.09,2.13-3.51,2.92,1.37,4,1,1.53-2.91,2.6-3.17,2.66,1.79,3.74,1.63S39.29.11,40.37.08s2.16,2.35,3.22,2.51S46.44.82,47.45,1.21s.85,3,1.69,3.69c1.07.88,3.32.51,4.32,1.21h0a1,1,0,0,1,.26.24c.88,1.21-.52,3.5-.1,4.77C53.94,12,55.13,12.79,55.87,13.61ZM44.78,21c.93-.54,1.48-1.33,1.22-1.81s-1.23-.41-2.17.11-1.48,1.33-1.22,1.81S43.85,21.5,44.78,21ZM38.6,10c.95-.54,1.5-1.34,1.22-1.81s-1.23-.41-2.16.11-1.47,1.33-1.21,1.81S37.68,10.54,38.6,10ZM34.31,33.69c.93-.53,1.48-1.34,1.21-1.8s-1.23-.43-2.16.11-1.48,1.32-1.22,1.79S33.37,34.21,34.31,33.69ZM29,23.11c.93-.53,1.47-1.33,1.21-1.8S29,20.9,28,21.42s-1.48,1.32-1.22,1.8S28.05,23.63,29,23.11Zm-5.62-8.86c.93-.52,1.47-1.32,1.21-1.79s-1.24-.42-2.17.11S21,13.9,21.21,14.36,22.44,14.79,23.38,14.25ZM16.52,34.47c.93-.53,1.47-1.33,1.21-1.81s-1.23-.4-2.17.11-1.48,1.33-1.22,1.81S15.59,35,16.52,34.47Zm-4.4-9.54c.94-.53,1.49-1.34,1.21-1.81s-1.23-.42-2.16.11S9.7,24.56,10,25,11.19,25.45,12.12,24.93Z"/><path class="cls-2" d="M56.22,11a9.08,9.08,0,0,1-.35,2.61c-.74-.82-1.93-1.58-2.23-2.49-.42-1.27,1-3.56.1-4.77a1,1,0,0,0-.26-.24C54.46,6.33,56.46,9,56.22,11Z"/><path class="cls-2" d="M55.72,22.6c-.43,1.29,1.12,3.5.41,4.78L53.9,23.44c.72-1.27-.82-3.49-.4-4.77a2.08,2.08,0,0,1,.24-.47L56,22A2.51,2.51,0,0,0,55.72,22.6Z"/><path class="cls-4" d="M53.9,23.44l2.23,3.94c-.67,1.17-3.39,1-4.29,2.18l-2.22-3.93C50.52,24.48,53.24,24.61,53.9,23.44Z"/><path class="cls-2" d="M49.62,25.63l2.22,3.93c-.84,1.07,0,3.67-1,4.69L48.6,30.31C49.59,29.29,48.79,26.69,49.62,25.63Z"/><path class="cls-4" d="M48.6,30.31l2.21,3.94c-1,1-3.58.23-4.67,1.16l-2.22-3.93C45,30.55,47.63,31.3,48.6,30.31Z"/><path class="cls-2" d="M43.92,31.48l2.22,3.93c-1.06.89-.73,3.6-1.88,4.42l-2.21-3.94C43.2,35.07,42.87,32.36,43.92,31.48Z"/><path class="cls-5" d="M46,19.17c.26.48-.29,1.27-1.22,1.81s-1.9.57-2.17.11.29-1.27,1.22-1.81S45.74,18.71,46,19.17Z"/><path class="cls-4" d="M42.05,35.89l2.21,3.94c-1.13.82-3.59-.33-4.79.41L37.25,36.3C38.45,35.56,40.91,36.71,42.05,35.89Z"/><path class="cls-5" d="M39.82,8.21c.28.47-.27,1.27-1.22,1.81s-1.89.57-2.15.11.28-1.28,1.21-1.81S39.56,7.75,39.82,8.21Z"/><path class="cls-2" d="M37.25,36.3l2.22,3.94C38.28,41,38.21,43.7,37,44.35l-2.22-3.93C36,39.76,36.06,37,37.25,36.3Z"/><path class="cls-4" d="M34.76,40.42,37,44.35c-1.26.66-3.53-.82-4.8-.27L30,40.14C31.24,39.58,33.51,41.07,34.76,40.42Z"/><path class="cls-5" d="M35.52,31.89c.27.46-.28,1.27-1.21,1.8s-1.91.57-2.17.1.29-1.28,1.22-1.79S35.26,31.42,35.52,31.89Z"/><path class="cls-2" d="M30,40.14l2.21,3.94c-1.3.57-1.76,3.26-3.06,3.72L26.9,43.86C28.2,43.41,28.65,40.72,30,40.14Z"/><path class="cls-5" d="M30.21,21.31c.26.47-.28,1.27-1.21,1.8s-1.92.57-2.18.11S27.11,22,28,21.42,29.94,20.84,30.21,21.31Z"/><path class="cls-4" d="M26.9,43.86l2.22,3.94c-1.35.47-3.36-1.34-4.69-1l-2.21-3.93C23.54,42.52,25.55,44.34,26.9,43.86Z"/><path class="cls-5" d="M24.59,12.46c.26.47-.28,1.27-1.21,1.79s-1.92.58-2.17.11.28-1.27,1.21-1.79S24.32,12,24.59,12.46Z"/><path class="cls-2" d="M22.22,42.85l2.21,3.93c-1.41.36-2.35,2.91-3.69,3.09l-2.21-3.93C19.87,45.76,20.81,43.2,22.22,42.85Z"/><path class="cls-4" d="M18.53,45.94l2.21,3.93c-1.45.21-3-2-4.33-2a.55.55,0,0,0-.18,0l-2-4C15.53,43.91,17.08,46.14,18.53,45.94Z"/><path class="cls-5" d="M17.73,32.66c.26.48-.28,1.28-1.21,1.81s-1.9.57-2.18.11.29-1.27,1.22-1.81S17.47,32.2,17.73,32.66Z"/><path class="cls-2" d="M14.19,43.89l2,4c-1.44.12-3.05,2.07-4.28,1.77L9.74,45.68C11,46,12.72,43.86,14.19,43.89Z"/><path class="cls-5" d="M13.33,23.12c.28.47-.27,1.28-1.21,1.81s-1.9.56-2.16.09.27-1.27,1.21-1.79S13.07,22.66,13.33,23.12Z"/><path class="cls-4" d="M9.74,45.68,12,49.61c-1.42-.35-1.8-3-2.94-3.74a2,2,0,0,0-.72-.29L6.07,41.64a2.28,2.28,0,0,1,.73.29C7.93,42.68,8.32,45.32,9.74,45.68Z"/><path class="cls-2" d="M4.63,44.69a5.83,5.83,0,0,1-2.38-4.12c.64,1,2.53.76,3.82,1.07l2.22,3.94c-1-.26-2.5-.15-3.35-.64,0,0,0,0,0,0l-.27-.2Z"/><path class="cls-11" d="M46.79,41.11a4.76,4.76,0,0,1,.52,2.26,4.81,4.81,0,0,1-.52,2.26,4.92,4.92,0,0,1-.51-2.26A4.87,4.87,0,0,1,46.79,41.11Z"/><path class="cls-11" d="M55.12,43.4a5.26,5.26,0,0,1,0,4.52,5.17,5.17,0,0,1,0-4.52Z"/><path class="cls-11" d="M63.65,44.25a4.8,4.8,0,0,1,.51,2.26,4.66,4.66,0,0,1-.51,2.26,4.77,4.77,0,0,1-.51-2.26A4.92,4.92,0,0,1,63.65,44.25Z"/><path class="cls-11" d="M72.22,43.89a5.26,5.26,0,0,1,0,4.52,5.17,5.17,0,0,1,0-4.52Z"/><path class="cls-11" d="M80.66,42.23a4.92,4.92,0,0,1,.51,2.26,4.77,4.77,0,0,1-.51,2.26,4.66,4.66,0,0,1-.51-2.26A4.8,4.8,0,0,1,80.66,42.23Z"/><path class="cls-11" d="M88.66,38.85a5.24,5.24,0,0,1,0,4.51,4.75,4.75,0,0,1-.51-2.26A4.85,4.85,0,0,1,88.66,38.85Z"/><g class="cls-9"><path class="cls-12" d="M55.85,9.6a9,9,0,0,1-.21,4,3.26,3.26,0,0,0,.65,1.25c1.13,1.36,2.05,2.08,2.18,4-.12,1.56-2.46,2.24-3,3.67-.39,1.54,1.18,3.31.4,4.74s-3.18.92-4.26,2.14.08,3.46-1.05,4.69-3.29.13-4.62,1.1c-1.23,1.17-.6,3.39-1.9,4.43s-3.28-.38-4.74.36a2.28,2.28,0,0,0-.46.41s0,1,2,1.07,2.56-.23,3.6.63l.14.19a3.37,3.37,0,0,0,1-.5c1.49-1.07,1.64-2.89,2.11-4.52,1.58-.29,3.44-.12,4.63-1.42s1.05-3.24,1.2-5C55.1,30,57,29.92,57.84,28.1A3.91,3.91,0,0,0,58.08,26c-.08-.59-.89-2.64-.83-2.79-.2-.25,1.78-2,2-2.25a3.35,3.35,0,0,0,.81-2.17h0a6.61,6.61,0,0,0-2.17-4.33,4.48,4.48,0,0,1-1-.92c-.32-.47.1-2,0-2.62v.19a4.34,4.34,0,0,0-.08-.85Z"/></g><path class="cls-13" d="M96.82,23.89c-.15-.57-.68-.89-1.16-1.21s-1-.62-1.53-1a4,4,0,0,1-.72-.71,1.75,1.75,0,0,1-.28-.53,2.1,2.1,0,0,1-.1-.58,9.83,9.83,0,0,1,.3-1.9c.14-.54.14-1.16,0-1.16a2.93,2.93,0,0,0-1.09-.06,8.3,8.3,0,0,1-2,0,2.09,2.09,0,0,1-.66-.21,1.64,1.64,0,0,1-.4-.27A1.53,1.53,0,0,1,89,16a3.27,3.27,0,0,1-.57-1.19c-.19-.66-.3-1.25-.46-1.69a.94.94,0,0,0-.19-.36s0,0,0,0h0l.13.06h0l-.11,0c-.11,0,0,0,.06,0s0,0,0,0a8,8,0,0,0-1.42.5,6.45,6.45,0,0,1-1,.33,3.2,3.2,0,0,1-.67.09,2.2,2.2,0,0,1-1-.2,1.43,1.43,0,0,1-.25-.14,3.08,3.08,0,0,1-.41-.33,4.24,4.24,0,0,1-.41-.53,8,8,0,0,1-.51-.91,5.06,5.06,0,0,0-.71-1.2c-.1-.06.1,0,.09,0s-.16.07-.33.18c-.42.24-.9.62-1.56,1a3.28,3.28,0,0,1-1.35.4,2.8,2.8,0,0,1-.5,0l-.12,0h0l0,0a2.33,2.33,0,0,1-.31-.11,2.88,2.88,0,0,1-.67-.46,9.76,9.76,0,0,1-1.25-1.63c-.29-.47-.71-.74-.48-.63s0,0-.15.11a7.54,7.54,0,0,0-.6.46,7.24,7.24,0,0,1-1.76,1.22,2.09,2.09,0,0,1-1.76,0,3.93,3.93,0,0,1-1-.76c-.48-.5-.85-1-1.18-1.29-.16-.16-.32-.25-.3-.25s.06-.06-.09,0a7.46,7.46,0,0,0-1.18,1.07,7.25,7.25,0,0,1-.8.69,2.07,2.07,0,0,1-1.36.43,2.48,2.48,0,0,1-1.22-.52,8.35,8.35,0,0,1-.74-.65,6,6,0,0,0-1.21-1c-.16-.07-.17-.1-.35,0a2,2,0,0,0-.55.46c-.39.41-.74.91-1.19,1.38a2.24,2.24,0,0,1-.88.59,1.44,1.44,0,0,1-1.08-.14A10,10,0,0,1,56,9.82l.07-.11a11.52,11.52,0,0,0,1.54.91,1.12,1.12,0,0,0,.82.07,1.91,1.91,0,0,0,.68-.53c.38-.45.69-1,1.07-1.44a3.13,3.13,0,0,1,.66-.65,1,1,0,0,1,.94-.1c1.16.47,1.84,1.7,3,1.94.57,0,1-.49,1.41-.9a9.85,9.85,0,0,1,1.3-1.28,1.16,1.16,0,0,1,.93-.24A2.11,2.11,0,0,1,69.2,8c.46.41.84.89,1.26,1.31s.93.8,1.47.52a6.57,6.57,0,0,0,1.41-1A2.93,2.93,0,0,1,75,7.85c.72.07,1.1.69,1.46,1.14a9.72,9.72,0,0,0,1.1,1.4,1.16,1.16,0,0,0,1.5,0c.52-.27,1-.64,1.55-.93a2.38,2.38,0,0,1,.89-.33,1.11,1.11,0,0,1,.91.36,6,6,0,0,1,.94,1.58c.27.52.51,1.12,1,1.36A2.6,2.6,0,0,0,86,12.2a7.66,7.66,0,0,1,1.74-.54,1,1,0,0,1,.91.31,2,2,0,0,1,.44.83c.18.59.25,1.19.4,1.77a2.52,2.52,0,0,0,.32.79,1.06,1.06,0,0,0,.7.41,8.77,8.77,0,0,0,1.78.05c.57,0,1.29-.07,1.75.48a2.26,2.26,0,0,1,0,1.82,9.28,9.28,0,0,0-.4,1.74,2,2,0,0,0,.81,1.47c.44.39.94.73,1.42,1.1A2.5,2.5,0,0,1,97,23.86Z"/><path class="cls-14" d="M45.13,38.6a9.61,9.61,0,0,0,1,1.95,1.51,1.51,0,0,0,.89.56A2.78,2.78,0,0,0,48.13,41c.71-.22,1.38-.55,2.11-.76a2.73,2.73,0,0,1,1.14-.11,1.84,1.84,0,0,1,1,.55c.56.53,1,1.16,1.45,1.72s1.09,1.1,1.8.92a7.13,7.13,0,0,0,2-1,3.34,3.34,0,0,1,2.14-.72c1.56.45,2.26,2.09,3.65,2.52.69.19,1.34-.31,1.9-.76A11.27,11.27,0,0,1,67.09,42a1.72,1.72,0,0,1,1.16-.17,3.89,3.89,0,0,1,1.06.47c.64.4,1.21.89,1.86,1.22a1.83,1.83,0,0,0,1,.26,1.72,1.72,0,0,0,.92-.44,19.58,19.58,0,0,0,1.54-1.6,3.52,3.52,0,0,1,.9-.72,1.65,1.65,0,0,1,1.17-.16,9.46,9.46,0,0,1,2.1.86,2.45,2.45,0,0,0,2,.33,4.16,4.16,0,0,0,1.38-1.62,5.16,5.16,0,0,1,1.43-1.77,3.32,3.32,0,0,1,2.26,0,7.52,7.52,0,0,0,2.17.33c.74,0,1.16-.76,1.37-1.44s.34-1.44.6-2.16a2.18,2.18,0,0,1,.63-1,3.1,3.1,0,0,1,1-.49c.72-.2,1.47-.28,2.18-.48a2.46,2.46,0,0,0,1-.49,1.21,1.21,0,0,0,.36-.95,8.23,8.23,0,0,0-.54-2.13,3,3,0,0,1-.13-2.24,9.61,9.61,0,0,1,1.39-1.77,2.73,2.73,0,0,0,.9-1.91l.13,0A3,3,0,0,1,96.16,26a9.44,9.44,0,0,0-1.22,1.75,2.71,2.71,0,0,0,.28,1.87,8.07,8.07,0,0,1,.7,2.31,1.91,1.91,0,0,1-.55,1.5,3.14,3.14,0,0,1-1.25.71c-.8.26-1.55.36-2.17.57a3.17,3.17,0,0,0-.41.17,1.07,1.07,0,0,0-.29.2,1.27,1.27,0,0,0-.29.57c-.19.59-.28,1.33-.51,2.15a4,4,0,0,1-.64,1.34,4.33,4.33,0,0,1-.36.37l-.11.08,0,0h0c-.17.12-.06,0-.11.07l0,0a2.46,2.46,0,0,1-.91.29,7.91,7.91,0,0,1-2.55-.3,6.2,6.2,0,0,0-.93-.14h-.26s-.1,0-.18.05l-.07,0h0l.08,0h0l0,0a4.78,4.78,0,0,0-1,1.36,11.47,11.47,0,0,1-.68,1.05,3.38,3.38,0,0,1-1.3,1.11l-.13.06-.06,0h0l-.13.05h-.07a2.4,2.4,0,0,1-.51.07,2.91,2.91,0,0,1-.87-.09,6.84,6.84,0,0,1-1.27-.46,8.9,8.9,0,0,0-1.78-.73c-.15,0,.08,0-.22,0l-.08,0a2.82,2.82,0,0,0-.55.48,20.12,20.12,0,0,1-1.68,1.7,2.8,2.8,0,0,1-3.36.29c-.83-.45-1.39-.95-1.94-1.29A2.45,2.45,0,0,0,68,43s-.15,0-.34.06a10.27,10.27,0,0,0-1.59,1.19,6.25,6.25,0,0,1-1.14.74,2.64,2.64,0,0,1-1.83.22,5.59,5.59,0,0,1-2.25-1.56,4.6,4.6,0,0,0-1.26-1c-.23-.12-.85.14-1.47.5a7.65,7.65,0,0,1-2.29,1,2.22,2.22,0,0,1-1.62-.33,4,4,0,0,1-1-.93c-.5-.63-.89-1.27-1.32-1.72-.61-1-2.16-.15-3.63.22a2.87,2.87,0,0,1-1.29.07,1.84,1.84,0,0,1-1-.73A9.17,9.17,0,0,1,45,38.66Z"/><path class="cls-13" d="M45.13,38.6a9.5,9.5,0,0,0,1.18,1.84,1.31,1.31,0,0,0,.82.44,2.69,2.69,0,0,0,.92-.19c.66-.24,1.3-.61,2.07-.88a3.12,3.12,0,0,1,1.33-.18l.2,0,.19.06a1.49,1.49,0,0,1,.33.14,2.63,2.63,0,0,1,.59.41A22,22,0,0,1,54.3,42a2.77,2.77,0,0,0,.68.57.6.6,0,0,0,.52.06,7.15,7.15,0,0,0,1.68-1A9,9,0,0,1,58.27,41a3,3,0,0,1,1.59-.27,3.44,3.44,0,0,1,1.45.66,11.45,11.45,0,0,1,.94.78,4.77,4.77,0,0,0,1.36,1c.1,0,.12,0,.34-.09a4.53,4.53,0,0,0,.72-.5,10.77,10.77,0,0,1,2-1.5,2.71,2.71,0,0,1,1.82-.26,4.44,4.44,0,0,1,1.38.59c.72.44,1.31.92,1.8,1.16a.83.83,0,0,0,.43.13s.13,0,.34-.21c.4-.33.85-.92,1.42-1.53A5.2,5.2,0,0,1,75,40a2.63,2.63,0,0,1,1-.3,3.55,3.55,0,0,1,.89,0,10.35,10.35,0,0,1,2.35,1,4.37,4.37,0,0,0,.82.33,1,1,0,0,0,.23,0s0,0,0,0h0c.09,0-.13,0-.1,0h0l.07,0,.13-.05a3.44,3.44,0,0,0,.35-.37,7.75,7.75,0,0,0,.55-.82,6,6,0,0,1,1.79-2.1l.23-.11,0,0,.11,0h0l.07,0c.09,0,.15,0,.35-.09a3.33,3.33,0,0,1,.86,0,7.27,7.27,0,0,1,1.28.21A8.1,8.1,0,0,0,88,38h.17l-.08.05h0l.06,0,.11-.08c.07,0,0,0,0,0a2,2,0,0,0,.34-.66c.23-.6.37-1.34.69-2.16a3,3,0,0,1,.9-1.28,3,3,0,0,1,.66-.37,3.41,3.41,0,0,1,.64-.21c1.57-.36,3.25-.35,3.14-1.24a7.29,7.29,0,0,0-.39-2,3.39,3.39,0,0,1,0-2.49,8.88,8.88,0,0,1,1.53-1.76,2.7,2.7,0,0,0,1-1.8l.13,0a2.85,2.85,0,0,1-.92,2,9.3,9.3,0,0,0-1.36,1.74,2.91,2.91,0,0,0,.15,2.12,8.31,8.31,0,0,1,.55,2.18A1.37,1.37,0,0,1,95,33a2.56,2.56,0,0,1-1,.53c-.73.21-1.48.29-2.18.49a2.72,2.72,0,0,0-1,.46,2.07,2.07,0,0,0-.57.89c-.25.69-.35,1.43-.59,2.15S89,39.08,88.1,39.13a7.54,7.54,0,0,1-2.24-.32,3.11,3.11,0,0,0-2.11,0,5,5,0,0,0-1.33,1.69,4.3,4.3,0,0,1-1.5,1.73,2.69,2.69,0,0,1-2.23-.33,9.31,9.31,0,0,0-2-.83,2,2,0,0,0-1.83.81,18.23,18.23,0,0,1-1.56,1.62,2,2,0,0,1-1.07.49,2.2,2.2,0,0,1-1.14-.29c-.68-.36-1.25-.85-1.88-1.24a1.86,1.86,0,0,0-2-.29,10.93,10.93,0,0,0-1.76,1.32,2.54,2.54,0,0,1-2.11.8c-1.52-.52-2.22-2.15-3.62-2.53a3.15,3.15,0,0,0-2,.68,7.08,7.08,0,0,1-2,1,2.09,2.09,0,0,1-2-1c-.49-.57-.9-1.21-1.42-1.71a1.81,1.81,0,0,0-.92-.52,2.61,2.61,0,0,0-1.07.11c-.71.2-1.38.53-2.11.74a2.55,2.55,0,0,1-1.14.13,1.65,1.65,0,0,1-1-.61,10,10,0,0,1-1.06-2Z"/><g class="cls-6"><path class="cls-15" d="M96.82,23.48a2.67,2.67,0,0,1,.64,1.37,7.31,7.31,0,0,1,.18,1.48,4.71,4.71,0,0,1-.77,2.89v0a8.78,8.78,0,0,1-1.64,2.11l-.1-.09a6.27,6.27,0,0,1,.36-1.42l.19-.58a2.26,2.26,0,0,0,.08-.45l-.12.52.25-.76a7.57,7.57,0,0,0,.27-1c.1-.37.14-.77.22-1.19l.22-1.3a6.09,6.09,0,0,0,.12-1.45Z"/></g><g class="cls-6"><path class="cls-15" d="M95.25,32.49a5.16,5.16,0,0,1-.08,4.77h0a2.9,2.9,0,0,1-1.94,1,9.31,9.31,0,0,0-2.06.54,2.21,2.21,0,0,0-1.12,1.67,16.27,16.27,0,0,1-.6,2.08,2,2,0,0,1-.68.88,1.79,1.79,0,0,1-1.1.25,18.22,18.22,0,0,1-2.13-.4,2.37,2.37,0,0,0-2,.23,7.18,7.18,0,0,0-1.23,1.71,3.67,3.67,0,0,1-1.49,1.61,2.83,2.83,0,0,1-2.15-.37,9.75,9.75,0,0,0-2-.81,1.81,1.81,0,0,0-1.8.7c-.5.5-.93,1.08-1.48,1.58a2.54,2.54,0,0,1-1,.59,1.65,1.65,0,0,1-1.14-.11,10.89,10.89,0,0,1-1.85-1.16,2.56,2.56,0,0,0-1.88-.64c-1.33.38-2.12,1.86-3.62,2.28A2.44,2.44,0,0,1,62,48a14.94,14.94,0,0,0-1.61-1.4,1.74,1.74,0,0,0-1.93,0c-.63.32-1.22.75-1.86,1.09a3.19,3.19,0,0,1-1,.36,1.62,1.62,0,0,1-1.09-.3A8,8,0,0,1,53,46.12a3.1,3.1,0,0,0-1.57-1.31,4.14,4.14,0,0,0-2,.42,6.23,6.23,0,0,1-2.1.57,2.09,2.09,0,0,1-1.66-1.35c-.34-.65-.58-1.33-.94-1.94a2,2,0,0,0-.7-.75,2.51,2.51,0,0,0-1-.25c-.71,0-1.42.05-2.15.05a3.16,3.16,0,0,1-1.09-.15,1.32,1.32,0,0,1-.81-.74l.12-.06c.36.68,1.09.69,1.78.64s1.41-.18,2.18-.17a4.16,4.16,0,0,1,.6.05,3,3,0,0,1,.6.19,2.44,2.44,0,0,1,.95.9c.44.66.73,1.34,1.08,1.9s.8,1,1.07.9A6.29,6.29,0,0,0,49,44.43a4.73,4.73,0,0,1,2.51-.54,2.78,2.78,0,0,1,1.38.71,8.36,8.36,0,0,1,.83.89,6.58,6.58,0,0,0,1.29,1.33c.05,0,.08.06.08,0v0l.11,0,.13,0-.08,0h.1a3.32,3.32,0,0,0,.64-.27c.54-.29,1.11-.73,1.88-1.12a3.47,3.47,0,0,1,1.49-.43,2.87,2.87,0,0,1,1.61.48,15.55,15.55,0,0,1,1.79,1.5,3.92,3.92,0,0,0,.65.48c.2.09.21.07.28.06a4.61,4.61,0,0,0,1.28-.9,5.93,5.93,0,0,1,2.28-1.43l.29-.05.15,0a2.9,2.9,0,0,1,1.36.25,6.23,6.23,0,0,1,1.16.64,15.2,15.2,0,0,0,1.59,1c.19.09.28.07.26.07a1.32,1.32,0,0,0,.45-.29c.43-.37.87-.93,1.46-1.51a4.36,4.36,0,0,1,1.19-.87A2.85,2.85,0,0,1,77,44.38a10.44,10.44,0,0,1,2.23.94,4.77,4.77,0,0,0,.81.33.56.56,0,0,0,.15,0h.06v0l.13,0h.11l-.09,0h0a2.86,2.86,0,0,0,.94-1.11,7.07,7.07,0,0,1,1.56-2,2.65,2.65,0,0,1,1.56-.52,5.08,5.08,0,0,1,1.3.16c.75.17,1.43.4,2,.46a1.79,1.79,0,0,0,.33,0s0,0,.07,0l.12,0,.07,0-.07,0h0a1.05,1.05,0,0,0,.39-.48,13,13,0,0,0,.63-1.94,5.08,5.08,0,0,1,.49-1.16,3.14,3.14,0,0,1,.24-.33c.09-.08.06-.08.24-.24a2.84,2.84,0,0,1,.61-.37,9.41,9.41,0,0,1,2.26-.47A2.64,2.64,0,0,0,94.77,37l0,0a5.89,5.89,0,0,0,.72-2.19,4.19,4.19,0,0,0-.34-2.31Z"/></g><path class="cls-16" d="M64.56,14.9c-.2-.2-.09-.61,0-.86a1.93,1.93,0,0,1,.57-.6A2.5,2.5,0,0,1,66.58,13a2.62,2.62,0,0,1,1.38.43,1.93,1.93,0,0,1,.57.6c.11.27.22.63,0,.87h-.1c0-.37-.43-.59-.77-.71a4,4,0,0,0-2.25,0c-.34.12-.74.33-.76.71Z"/><path class="cls-13" d="M68.57,14.91a.58.58,0,0,1,.18.47,1.41,1.41,0,0,1-.12.51,2,2,0,0,1-.58.71,2.56,2.56,0,0,1-1.53.51,5.17,5.17,0,0,1-.73-.13,2.55,2.55,0,0,1-.73-.38,2.07,2.07,0,0,1-.58-.71.87.87,0,0,1,.07-1h.13c0,.35.42.56.76.68a4.22,4.22,0,0,0,2.23,0c.34-.12.73-.32.76-.69Z"/><path class="cls-16" d="M65.12,25.37c-.21-.21-.09-.61,0-.86a1.73,1.73,0,0,1,.57-.6,2.5,2.5,0,0,1,1.43-.43,2.59,2.59,0,0,1,1.38.43,1.8,1.8,0,0,1,.56.6c.12.26.23.63,0,.86H69c0-.37-.42-.58-.76-.7a3.3,3.3,0,0,0-1.13-.17,3.24,3.24,0,0,0-1.12.17c-.34.12-.74.33-.77.71Z"/><path class="cls-13" d="M69.12,25.38a.56.56,0,0,1,.19.47,1.46,1.46,0,0,1-.12.51,2,2,0,0,1-.58.71,2.52,2.52,0,0,1-1.5.5,2.46,2.46,0,0,1-1.49-.51,2,2,0,0,1-.58-.7.91.91,0,0,1,.06-1h.14c0,.36.42.57.75.69a4.26,4.26,0,0,0,2.24,0c.34-.12.73-.33.75-.69Z"/><path class="cls-16" d="M64.56,37.19c-.2-.2-.09-.61,0-.86a1.93,1.93,0,0,1,.57-.6,2.53,2.53,0,0,1,1.41-.43,2.61,2.61,0,0,1,1.4.43,1.93,1.93,0,0,1,.57.6c.11.27.22.63,0,.87h-.1c0-.37-.43-.59-.77-.71a3.27,3.27,0,0,0-1.12-.16,3.33,3.33,0,0,0-1.13.16c-.34.12-.74.33-.76.71Z"/><path class="cls-13" d="M68.57,37.2a.58.58,0,0,1,.18.47,1.41,1.41,0,0,1-.12.51,2,2,0,0,1-.58.71,2.58,2.58,0,0,1-1.49.51,2.63,2.63,0,0,1-1.5-.51,2.07,2.07,0,0,1-.58-.71.87.87,0,0,1,.07-1h.13c0,.35.42.56.76.68a3.26,3.26,0,0,0,1.12.15,3.2,3.2,0,0,0,1.11-.15c.34-.12.73-.32.76-.69Z"/><path class="cls-16" d="M79.93,31.25c-.21-.2-.1-.61,0-.85a1.86,1.86,0,0,1,.57-.61,2.52,2.52,0,0,1,1.41-.42,2.45,2.45,0,0,1,1.4.43,1.73,1.73,0,0,1,.57.6c.11.26.22.62,0,.86h-.1c0-.37-.43-.59-.77-.71a3.27,3.27,0,0,0-1.12-.16,3.59,3.59,0,0,0-1.13.16c-.34.12-.74.33-.76.71Z"/><path class="cls-13" d="M83.92,31.27a.53.53,0,0,1,.19.47,1.36,1.36,0,0,1-.12.5,2,2,0,0,1-.58.71,2.43,2.43,0,0,1-1.53.51,5,5,0,0,1-.73-.12,2.87,2.87,0,0,1-.73-.39,2.07,2.07,0,0,1-.58-.71.87.87,0,0,1,.07-1H80c0,.35.42.57.76.68a4.22,4.22,0,0,0,2.23,0c.34-.12.73-.32.76-.69Z"/><path class="cls-16" d="M79.93,18.67c-.21-.2-.1-.61,0-.85a1.86,1.86,0,0,1,.57-.61,2.61,2.61,0,0,1,1.41-.42,2.53,2.53,0,0,1,1.4.43,1.73,1.73,0,0,1,.57.6c.11.26.22.62,0,.86h-.1c0-.37-.43-.59-.77-.71a3.53,3.53,0,0,0-1.12-.16,3.59,3.59,0,0,0-1.13.16c-.34.12-.74.33-.76.71Z"/><path class="cls-13" d="M83.92,18.69a.53.53,0,0,1,.19.47,1.36,1.36,0,0,1-.12.5,2,2,0,0,1-.58.71,2.44,2.44,0,0,1-1.49.51,2.56,2.56,0,0,1-1.5-.51,2,2,0,0,1-.58-.71.87.87,0,0,1,.07-1H80c0,.35.42.57.76.68a3.26,3.26,0,0,0,1.12.15A3.2,3.2,0,0,0,83,19.36c.34-.12.73-.32.76-.69Z"/><path class="cls-11" d="M9.66,45.69a4.67,4.67,0,0,1,1.55,1.71,4.66,4.66,0,0,1,.66,2.22,4.77,4.77,0,0,1-1.55-1.72A4.62,4.62,0,0,1,9.66,45.69Z"/><path class="cls-11" d="M18.45,46a5.3,5.3,0,0,1,2.22,3.94,4.71,4.71,0,0,1-1.56-1.72A4.89,4.89,0,0,1,18.45,46Z"/><path class="cls-11" d="M26.83,43.87a4.77,4.77,0,0,1,1.55,1.72A4.63,4.63,0,0,1,29,47.81a5.25,5.25,0,0,1-2.21-3.94Z"/><path class="cls-11" d="M34.68,40.42a5.22,5.22,0,0,1,2.22,3.94,5.22,5.22,0,0,1-2.22-3.94Z"/><path class="cls-11" d="M42,35.91a4.83,4.83,0,0,1,1.55,1.71,4.69,4.69,0,0,1,.66,2.22,4.67,4.67,0,0,1-1.55-1.71A4.81,4.81,0,0,1,42,35.91Z"/><path class="cls-11" d="M48.51,30.32a5.22,5.22,0,0,1,2.22,3.94,5.22,5.22,0,0,1-2.22-3.94Z"/><path class="cls-11" d="M53.83,23.45A5.21,5.21,0,0,1,56,27.38a5.21,5.21,0,0,1-2.21-3.93Z"/><path class="cls-13" d="M53.6,6.41a1.92,1.92,0,0,0-1.26-.51c-.48-.06-1-.08-1.46-.12a4.92,4.92,0,0,1-1.51-.32,2.24,2.24,0,0,1-.37-.2,1.25,1.25,0,0,1-.2-.14L48.67,5a2.88,2.88,0,0,1-.43-.77c-.18-.49-.3-1-.44-1.42a2.14,2.14,0,0,0-.52-1,.41.41,0,0,0-.15-.07l-.13,0a2.21,2.21,0,0,0-.51.21c-.38.21-.77.49-1.2.76a3.15,3.15,0,0,1-1.72.6,2.63,2.63,0,0,1-1.69-1c-.36-.38-.67-.75-1-1S40.32.84,40.27.9s-.08,0-.18.17a3.09,3.09,0,0,0-.4.45c-.29.35-.57.76-1,1.18a3.5,3.5,0,0,1-.75.63,1.87,1.87,0,0,1-.59.24l-.09,0-.12,0h-.11a1.92,1.92,0,0,1-.39,0A4.46,4.46,0,0,1,35,2.81a8.23,8.23,0,0,0-1.13-.67.63.63,0,0,0-.27-.08c.06,0,0,.06,0,0a5.28,5.28,0,0,0-.57.94,9.14,9.14,0,0,1-.86,1.43,2.48,2.48,0,0,1-1,.78l0,0-.16,0h0l-.09,0-.35,0a2.65,2.65,0,0,1-.67-.08,9.22,9.22,0,0,1-1.57-.61,4.07,4.07,0,0,0-1-.39c-.06,0-.05,0-.05,0h.05l.1,0,0,0-.08,0c-.08.09.15-.11.06,0s-.05.09-.09.14a10.81,10.81,0,0,0-.47,1.2,4.67,4.67,0,0,1-.9,1.69,2.46,2.46,0,0,1-2.45.6c-.6-.14-1.06-.32-1.49-.44a2.53,2.53,0,0,0-.73-.14.07.07,0,0,0,.06,0l.11-.07,0,0,0,0-.07.06c0,.05.15-.14.08,0a2,2,0,0,0-.15.39C21,8,20.94,8.5,20.8,9a5.18,5.18,0,0,1-.3.89,2.62,2.62,0,0,1-.32.54,1.55,1.55,0,0,1-.24.28l-.17.14-.08.07,0,0-.17.09-.16.08a2.28,2.28,0,0,1-.42.14,2.93,2.93,0,0,1-.65.07,5,5,0,0,1-.94-.1c-.54-.1-1-.21-1.39-.27a2.25,2.25,0,0,0-.41,0s0,0,0,0l0,0h0l.1-.08-.14.13c.17-.17.05-.05,0,.09s-.07.34-.1.56c-.06.44-.09.94-.21,1.54a3.44,3.44,0,0,1-.39,1.05,1.75,1.75,0,0,1-.22.3l-.14.15-.07.07-.14.11h0l-.16.1a2.57,2.57,0,0,1-.41.19,4.93,4.93,0,0,1-1.91.13,8.65,8.65,0,0,0-1.28,0c-.16,0-.22,0-.17,0l0,0v0l.08-.09,0,0-.1.13c.07,0,.08-.13.06,0a4.21,4.21,0,0,0-.06,1.11A8.4,8.4,0,0,1,10.25,18a2.3,2.3,0,0,1-.64,1.27l-.16.13c-.12.08-.24.16-.37.23a2.54,2.54,0,0,1-.53.2,9,9,0,0,1-1.65.24,4.27,4.27,0,0,0-1.07.17s0,0,0,0v0h0l.06-.1,0,0s-.09.14-.07.13a.11.11,0,0,0,0-.08v.06a1.15,1.15,0,0,0,0,.2A8.64,8.64,0,0,0,6,21.78a4.51,4.51,0,0,1,.09,1.86A2.32,2.32,0,0,1,4.51,25.2c-.53.2-1,.32-1.43.46a2.1,2.1,0,0,0-.79.37h0s.05-.16,0-.07V26s-.06.16,0,.12,0,0,0,0v.09a2.58,2.58,0,0,0,.17.52c.17.39.41.81.64,1.29a5.58,5.58,0,0,1,.31.8,2,2,0,0,1,0,1.1,3.13,3.13,0,0,1-1.21,1.4c-.41.3-.81.56-1.14.84a1.67,1.67,0,0,0-.37.4.37.37,0,0,0-.07.14v.15a2.45,2.45,0,0,0,.76.91c.35.31.74.62,1.11,1a2.28,2.28,0,0,1,.48.7,1.34,1.34,0,0,1,.11.45,1.81,1.81,0,0,1,0,.41,5.4,5.4,0,0,1-.35,1.5c-.17.46-.36.91-.49,1.37a1.8,1.8,0,0,0,0,1.35l-.12.07A2,2,0,0,1,2,39.14c.11-.48.27-.94.4-1.41.26-.89.56-2-.26-2.65C1.5,34.39.52,34,.06,33a1.31,1.31,0,0,1,.53-1.36c.37-.34.77-.62,1.14-.92a2.7,2.7,0,0,0,.92-1.05,1.91,1.91,0,0,0-.3-1.33c-.21-.43-.47-.85-.68-1.29A1.68,1.68,0,0,1,1.5,25.6a2.23,2.23,0,0,1,1.26-.82c.46-.17.93-.3,1.37-.49s.9-.43,1-.88A3.56,3.56,0,0,0,5,22a9.78,9.78,0,0,1-.28-1.45,1.23,1.23,0,0,1,.63-1.33,22,22,0,0,1,2.89-.51c1.07-.2.9-1.43.88-2.34a5.35,5.35,0,0,1,.08-1.49,1.21,1.21,0,0,1,1.19-.9,18.28,18.28,0,0,0,2.88,0c.46-.13.61-.57.71-1s.13-.95.19-1.44A2.83,2.83,0,0,1,14.62,10a1.65,1.65,0,0,1,1.47-.33c.5.06,1,.18,1.45.26a2.1,2.1,0,0,0,1.34-.08,2.14,2.14,0,0,0,.62-1.17c.12-.46.21-.95.35-1.42a3.36,3.36,0,0,1,.3-.71,1.05,1.05,0,0,1,.62-.51,2.74,2.74,0,0,1,1.51.15c.47.15.92.32,1.38.43a1.22,1.22,0,0,0,1.25-.21,16.23,16.23,0,0,0,1.2-2.62,1.64,1.64,0,0,1,.52-.6,1.09,1.09,0,0,1,.77-.14,5,5,0,0,1,1.4.51,8,8,0,0,0,1.33.55A1,1,0,0,0,31.3,3.7a26.18,26.18,0,0,1,1.58-2.47,1.23,1.23,0,0,1,1.48-.09,9.38,9.38,0,0,1,1.24.8,3.65,3.65,0,0,0,1.25.65A1.42,1.42,0,0,0,38,2c.33-.35.62-.74.94-1.11A2.36,2.36,0,0,1,40.18,0a1.65,1.65,0,0,1,1.33.66c.35.35.65.74,1,1.1a2,2,0,0,0,1.13.75,2.74,2.74,0,0,0,1.32-.45c.42-.24.83-.51,1.28-.73a1.26,1.26,0,0,1,1.45,0c.72.79.68,1.86,1,2.76a3,3,0,0,0,.3.62,1.63,1.63,0,0,0,.57.41,4.67,4.67,0,0,0,1.39.36c.48.07,1,.11,1.45.2a2.13,2.13,0,0,1,1.32.65Z"/><path class="cls-14" d="M2.22,40.53c1.23,1.46,3.66.24,5,1.8.58.75.88,1.64,1.38,2.39a2,2,0,0,0,1,.85,1.6,1.6,0,0,0,1.25-.2c.81-.4,1.52-1,2.39-1.37a1.88,1.88,0,0,1,1.4-.09,5.2,5.2,0,0,1,1.22.69,5.37,5.37,0,0,0,2.34,1.26c.9,0,1.48-.86,2-1.52a11.5,11.5,0,0,1,.93-1,2,2,0,0,1,1.29-.59,8.74,8.74,0,0,1,2.65.84,3.3,3.3,0,0,0,1.29.28,1.44,1.44,0,0,0,1.08-.6c.56-.69.89-1.57,1.43-2.34A2.13,2.13,0,0,1,30,40a3,3,0,0,1,1.42,0,11.05,11.05,0,0,0,2.67.45c.9,0,1.32-1,1.62-1.83a4.9,4.9,0,0,1,1.4-2.43A5,5,0,0,1,39.9,36c.87.08,1.92.15,2.36-.65A11.14,11.14,0,0,0,43,32.8a3,3,0,0,1,.61-1.28,2.2,2.2,0,0,1,1.3-.6c.92-.15,1.85-.07,2.72-.28a1.38,1.38,0,0,0,1-.73A3.2,3.2,0,0,0,49,28.63a9,9,0,0,1,.33-2.76,2.07,2.07,0,0,1,1.06-.94,10.81,10.81,0,0,1,1.32-.45c.83-.27,1.87-.46,2.19-1.32a5.41,5.41,0,0,0-.36-2.63,5.24,5.24,0,0,1-.23-1.38,2,2,0,0,1,.55-1.29c.62-.71,1.41-1.21,2-1.87a1.6,1.6,0,0,0,.52-1.17,2,2,0,0,0-.6-1.14,25.62,25.62,0,0,1-2-1.95c-.64-.81-.32-1.85-.15-2.71a3.46,3.46,0,0,0,0-2.61l.11-.08c1.11,1.71-.61,3.95.45,5.14.52.63,1.31,1.12,2,1.82A2.52,2.52,0,0,1,57,14.8a2.4,2.4,0,0,1-.64,1.67c-.68.79-1.46,1.31-1.94,1.92a1.12,1.12,0,0,0-.31.78,5.35,5.35,0,0,0,.24,1.13c.13.42.29.87.4,1.37a4.86,4.86,0,0,1,.13.82,2.73,2.73,0,0,1-.14,1.06l-.06.16,0,.08a1.59,1.59,0,0,1-.11.2,2.29,2.29,0,0,1-.36.44,3.25,3.25,0,0,1-.8.53A11.71,11.71,0,0,1,52,25.5a7.79,7.79,0,0,0-1.15.43,1.43,1.43,0,0,0-.31.2s-.14.14-.19.2c.09-.11,0,0,0,0a.06.06,0,0,0,0,.05,10.74,10.74,0,0,0-.19,2.35,4.18,4.18,0,0,1-.43,1.79,3,3,0,0,1-.18.3l-.1.13-.05.07s-.15.17-.1.1l0,0-.06.05-.24.2a3.22,3.22,0,0,1-1,.43c-1.17.28-2.1.19-2.82.34a3,3,0,0,0-.42.11s.05-.06-.08.05l-.14.1s.14-.12.07-.06h0v0a2,2,0,0,0-.3.75,11,11,0,0,1-.89,2.95,4.44,4.44,0,0,1-.42.54l-.13.11-.07.06c-.18.15-.07.05-.12.09l0,0-.07.05a2.91,2.91,0,0,1-1.09.4,6.23,6.23,0,0,1-1.67,0,4,4,0,0,0-2,0l.09,0h0s0,0,0,0-.05.05-.09.11a2.25,2.25,0,0,0-.23.4c-.16.33-.31.74-.49,1.19a6.49,6.49,0,0,1-.75,1.49,2.79,2.79,0,0,1-.39.44,3,3,0,0,1-.28.24l-.14.09a2.45,2.45,0,0,1-1.19.39,11,11,0,0,1-3-.49,2.51,2.51,0,0,0-.79-.08c-.11,0-.25.12-.47.43-.45.59-.77,1.46-1.52,2.4a3.08,3.08,0,0,1-.89.74l-.15.07-.19.08-.15,0a2,2,0,0,1-.58.09,4.43,4.43,0,0,1-1.76-.37l-1.28-.54a4.6,4.6,0,0,0-.86-.26c-.32-.11-.89.45-1.48,1.15a11.45,11.45,0,0,1-1,1.1,3.41,3.41,0,0,1-.78.52,2.18,2.18,0,0,1-1.11.21,3.51,3.51,0,0,1-1.67-.66c-.43-.28-.79-.58-1.15-.85a4.68,4.68,0,0,0-1-.62,1.1,1.1,0,0,0-.81,0c-.72.26-1.45.84-2.38,1.27a2.3,2.3,0,0,1-1.78.17,2.58,2.58,0,0,1-1.26-1.14c-.51-.87-.77-1.76-1.24-2.44-.85-1.34-3.5-.38-4.77-2Z"/><path class="cls-13" d="M2.22,40.53c.59.71,1.59.65,2.48.7a8.74,8.74,0,0,1,1.41.14,2.22,2.22,0,0,1,1.36.78c.65.79,1,1.66,1.49,2.33a1.55,1.55,0,0,0,.78.63,1.24,1.24,0,0,0,.86-.23c.71-.39,1.41-1,2.39-1.46a2.53,2.53,0,0,1,1.86-.15,5.64,5.64,0,0,1,1.41.76,5.06,5.06,0,0,0,2,1c.21.08.82-.55,1.35-1.29a9.71,9.71,0,0,1,1-1.15,3.67,3.67,0,0,1,.77-.57,2.59,2.59,0,0,1,1-.29,4.46,4.46,0,0,1,1.8.37l1.27.5c.82.32,1.17.24,1.28,0,.4-.5.75-1.38,1.36-2.29a4.21,4.21,0,0,1,.61-.71,2.73,2.73,0,0,1,1-.58,4.11,4.11,0,0,1,1.94,0,11.4,11.4,0,0,0,2.36.42c.09,0,.17,0,.11,0l.14-.1h0l.05-.08a4.59,4.59,0,0,0,.45-1c.16-.4.3-.86.53-1.36a5,5,0,0,1,.45-.79,2.6,2.6,0,0,1,.35-.42,1.6,1.6,0,0,1,.23-.21l.12-.09.07,0,0,0,.13-.08.16-.07L37,35a2.26,2.26,0,0,1,.6-.15,4.16,4.16,0,0,1,.91,0c.55,0,1,.09,1.46.13a5,5,0,0,0,1.07,0l.2,0h0l-.08.07.06-.06.13-.11s0,0,0,0a11.06,11.06,0,0,0,.67-2.3,3.89,3.89,0,0,1,.86-1.7l.11-.12.06-.05,0,0,.11-.08.14-.1a2.93,2.93,0,0,1,.52-.27,4.84,4.84,0,0,1,.91-.25c1.08-.16,2-.09,2.64-.24a1.29,1.29,0,0,0,.3-.11s0,0,0,0h0c.07-.07-.08.1-.06.07l.06-.06.1-.14h0a2.69,2.69,0,0,0,.18-.87l.06-1.36a4.72,4.72,0,0,1,.38-1.72,1.57,1.57,0,0,1,.14-.25,2.51,2.51,0,0,1,.23-.31,2.21,2.21,0,0,1,.3-.28,3.5,3.5,0,0,1,.86-.52,10.72,10.72,0,0,1,1.44-.46,11.58,11.58,0,0,0,1.19-.36,1.85,1.85,0,0,0,.36-.2L53,23s.05-.08,0,.05l0-.07.08-.16s0-.12,0-.3a2.77,2.77,0,0,0,0-.54c-.07-.39-.19-.82-.3-1.28a6.54,6.54,0,0,1-.22-1.58,2.64,2.64,0,0,1,.74-1.69c.73-.78,1.53-1.26,2.09-1.83,1.37-1-.75-2.15-1.87-3.72a2.25,2.25,0,0,1-.34-.75,2.5,2.5,0,0,1,0-.78A8.42,8.42,0,0,1,53.48,9a3.46,3.46,0,0,0,.12-2.58l.11-.08c1,1.77-.89,3.73.21,5.31a25.26,25.26,0,0,0,1.94,1.93,2.2,2.2,0,0,1,.65,1.25A1.76,1.76,0,0,1,56,16.1c-.63.69-1.41,1.2-2,1.88a1.77,1.77,0,0,0-.51,1.18,5.54,5.54,0,0,0,.23,1.32A5.36,5.36,0,0,1,54,23.24a1.75,1.75,0,0,1-1,1,9.4,9.4,0,0,1-1.32.46c-.84.27-1.83.48-2.23,1.28a9,9,0,0,0-.31,2.68A3.38,3.38,0,0,1,48.86,30a1.63,1.63,0,0,1-1.14.84c-.92.22-1.86.15-2.74.3a2,2,0,0,0-1.16.52,2.8,2.8,0,0,0-.55,1.18,10.8,10.8,0,0,1-.79,2.66,1.59,1.59,0,0,1-1.2.78,5.54,5.54,0,0,1-1.41,0,4.84,4.84,0,0,0-2.63.13A4.94,4.94,0,0,0,36,38.71,5.67,5.67,0,0,1,35.35,40a1.6,1.6,0,0,1-1.23.74,11.14,11.14,0,0,1-2.74-.46,2.73,2.73,0,0,0-1.3,0,1.91,1.91,0,0,0-1,.81c-.52.74-.86,1.61-1.45,2.35a1.66,1.66,0,0,1-1.25.67A3.55,3.55,0,0,1,25,43.76a8.7,8.7,0,0,0-2.56-.83c-.9,0-1.49.87-2.07,1.54a11.11,11.11,0,0,1-.92,1,1.77,1.77,0,0,1-1.3.56,5.52,5.52,0,0,1-2.44-1.31,5.06,5.06,0,0,0-1.17-.67,1.71,1.71,0,0,0-1.27.09c-.83.34-1.55.94-2.38,1.36a1.82,1.82,0,0,1-1.39.2,2.15,2.15,0,0,1-1-.92C8,44,7.66,43.15,7.11,42.43c-1.2-1.48-3.64-.27-5-1.81Z"/><g class="cls-9"><path class="cls-12" d="M25,48.85h0l0,0s0,0,0,0S25,48.83,25,48.85Z"/></g><g class="cls-6"><path class="cls-15" d="M2.23,40.56a7.12,7.12,0,0,0,1,2.31A7.52,7.52,0,0,0,5,44.57a7.32,7.32,0,0,0,2.37.37A3.3,3.3,0,0,1,10,46.21c.56.77.94,1.56,1.4,2.16a1.52,1.52,0,0,0,.67.55h.05c.06,0,.11,0,.1,0h.13a2.17,2.17,0,0,0,.42-.17c.63-.33,1.29-.93,2.19-1.39A2.8,2.8,0,0,1,16.74,47a4.53,4.53,0,0,1,1.48.66,9.53,9.53,0,0,0,2,1.21c.26.07.34,0,.46,0a3.9,3.9,0,0,0,.68-.68,8.68,8.68,0,0,1,2-2.11,2.73,2.73,0,0,1,2-.32,7.27,7.27,0,0,1,1.43.47,4.71,4.71,0,0,0,1.85.54h0l-.09,0h0l.07,0,.13-.06h0l.21-.24a7.29,7.29,0,0,0,.58-1,13.2,13.2,0,0,1,.72-1.22A3.13,3.13,0,0,1,31.81,43a3.3,3.3,0,0,1,1-.16,4.39,4.39,0,0,1,.84.07c.5.08.94.2,1.34.29a6.33,6.33,0,0,0,1,.17,1,1,0,0,0,.29,0h0l-.09,0h0c.06,0,.25-.16.17-.13s.07-.08.12-.19a3.67,3.67,0,0,0,.21-.44c.14-.34.28-.74.44-1.17A6.37,6.37,0,0,1,37.93,40a3.06,3.06,0,0,1,.79-.77l.13-.07h0l0,0,.07,0a1.84,1.84,0,0,1,.19-.09,3,3,0,0,1,.6-.16,12,12,0,0,1,2.87.1c.81.06,1-.08,1-.31a21.26,21.26,0,0,0,.63-2.32,3.75,3.75,0,0,1,.89-1.63l.1-.1,0,0,.1-.08,0,0,.14-.09a4.49,4.49,0,0,1,.51-.27,4.61,4.61,0,0,1,.86-.23c1-.16,1.91-.1,2.55-.22.34-.07.42-.13.47-.2a1.31,1.31,0,0,0,.19-.65c.11-.71,0-1.57.23-2.67a3.2,3.2,0,0,1,.34-.91l.16-.24,0,0,.08-.09,0,0,0-.06.12-.13.23-.19a4.85,4.85,0,0,1,1.5-.71A10.89,10.89,0,0,0,55.07,27c.08-.05.14-.13.13-.1.13-.3,0-.09.09-.29a3.22,3.22,0,0,0-.11-1,9.05,9.05,0,0,1-.43-2.85,2.78,2.78,0,0,1,.83-1.56,9.46,9.46,0,0,1,1.05-.92c.65-.51,1.32-1.12,1.31-1.44v.06a5.8,5.8,0,0,0-.48-2.11,4,4,0,0,0-.55-.9,3.44,3.44,0,0,0-.74-.7L56,15.1l0-.1-.57-1.13-.09-.18,0-.15a8.73,8.73,0,0,0,.46-2.47V11a4.71,4.71,0,0,0-.58-2.67,6.67,6.67,0,0,0-.75-1.22,2.71,2.71,0,0,0-1.07-.9l0-.14a2.72,2.72,0,0,1,1.21.89,7.27,7.27,0,0,1,.86,1.22A5,5,0,0,1,56.22,11v0a9,9,0,0,1-.35,2.64v-.06l.63,1.11,0,0a4.5,4.5,0,0,1,1.66,1.83,6.17,6.17,0,0,1,.62,2.38h0a1.86,1.86,0,0,1-.59,1.19,11.25,11.25,0,0,1-1,.88c-.63.56-1.39,1.12-1.51,1.95a8.25,8.25,0,0,0,.48,2.49,4.36,4.36,0,0,1,.17,1.31,1.49,1.49,0,0,1-.61,1.18,9.33,9.33,0,0,1-2.44.94c-.8.24-1.63.67-1.74,1.55s-.08,1.7-.18,2.57a2.46,2.46,0,0,1-.44,1.26,1.87,1.87,0,0,1-1.18.65c-.87.16-1.74.1-2.57.25a2,2,0,0,0-1.1.49,2.52,2.52,0,0,0-.55,1.08,18,18,0,0,1-.68,2.51,1.65,1.65,0,0,1-1,1,3.36,3.36,0,0,1-1.33.13,12.88,12.88,0,0,0-2.54-.1c-.85.1-1.24,1-1.54,1.74a6.39,6.39,0,0,1-1.21,2.34,1.66,1.66,0,0,1-1.28.4,6.19,6.19,0,0,1-1.3-.21,4.83,4.83,0,0,0-2.47-.25c-.74.3-1.13,1.17-1.55,1.89A9.38,9.38,0,0,1,30,47.2a1.9,1.9,0,0,1-1.1.77,5,5,0,0,1-2.54-.65c-.77-.31-1.65-.7-2.37-.24a9,9,0,0,0-1.76,1.83,4.16,4.16,0,0,1-1,.89,1.54,1.54,0,0,1-1.34.09,10.59,10.59,0,0,1-2.2-1.38A3.16,3.16,0,0,0,16.56,48a1.93,1.93,0,0,0-1.19.22c-.77.36-1.43.94-2.22,1.33a1.66,1.66,0,0,1-1.31.15,2.3,2.3,0,0,1-1-.85c-.51-.71-.84-1.52-1.32-2.22a2.71,2.71,0,0,0-2.16-1.12,6.82,6.82,0,0,1-2.54-.55A7.31,7.31,0,0,1,3,43a7.1,7.1,0,0,1-.92-2.43Z"/></g><path class="cls-16" d="M21.08,14.4c-.28-.08-.38-.49-.4-.76a1.72,1.72,0,0,1,.2-.8,2.5,2.5,0,0,1,1-1.08,2.63,2.63,0,0,1,1.42-.3,1.79,1.79,0,0,1,.78.25c.24.17.51.43.45.74l-.09.05a1,1,0,0,0-1-.24,3.25,3.25,0,0,0-1.07.41,3.37,3.37,0,0,0-.9.69c-.23.27-.48.65-.31,1Z"/><path class="cls-16" d="M26.7,23.24c-.28-.07-.38-.48-.4-.75a1.72,1.72,0,0,1,.19-.8,2.58,2.58,0,0,1,1-1.08,2.61,2.61,0,0,1,1.42-.3,1.79,1.79,0,0,1,.78.25c.24.17.51.43.44.74l-.08.05c-.21-.31-.66-.31-1-.25a3.31,3.31,0,0,0-1.06.42,3.18,3.18,0,0,0-.9.69c-.24.27-.48.65-.32,1Z"/><path class="cls-16" d="M32,33.82c-.29-.07-.38-.48-.41-.75a1.94,1.94,0,0,1,.2-.81,2.49,2.49,0,0,1,2.45-1.37,1.72,1.72,0,0,1,.79.24c.23.17.5.44.44.74l-.09.05c-.2-.31-.66-.3-1-.24a3.34,3.34,0,0,0-1.06.41,3.25,3.25,0,0,0-.9.7c-.24.27-.48.65-.32,1Z"/><path class="cls-16" d="M42.49,21.11c-.28-.07-.38-.48-.4-.75a1.72,1.72,0,0,1,.19-.8,2.51,2.51,0,0,1,2.46-1.38,1.77,1.77,0,0,1,.78.24c.23.18.5.44.44.74l-.09.06c-.2-.31-.65-.31-1-.25a3.22,3.22,0,0,0-1.06.42,3.18,3.18,0,0,0-.9.69c-.24.27-.48.65-.32,1Z"/><path class="cls-16" d="M14.22,34.6c-.28-.07-.38-.48-.4-.75a1.85,1.85,0,0,1,.2-.8,2.52,2.52,0,0,1,1-1.08,2.58,2.58,0,0,1,1.41-.3,1.74,1.74,0,0,1,.79.25c.23.17.5.43.44.73l-.09.06c-.2-.31-.66-.31-1-.25a3.14,3.14,0,0,0-1.06.42,3.18,3.18,0,0,0-.9.69c-.24.27-.48.65-.32,1Z"/><path class="cls-16" d="M36.32,10.15c-.28-.08-.38-.48-.4-.76a1.78,1.78,0,0,1,.19-.8,2.55,2.55,0,0,1,1-1.07,2.51,2.51,0,0,1,1.42-.3,1.65,1.65,0,0,1,.78.24c.23.17.5.44.44.74l-.09.05c-.2-.31-.65-.3-1-.24a3.53,3.53,0,0,0-1.06.41,3.21,3.21,0,0,0-.9.7c-.24.27-.48.65-.32,1Z"/><path class="cls-16" d="M9.83,25.06c-.28-.08-.38-.49-.4-.76a1.75,1.75,0,0,1,.19-.8,2.55,2.55,0,0,1,1-1.07,2.62,2.62,0,0,1,1.42-.31,1.79,1.79,0,0,1,.78.25c.23.17.5.44.44.74l-.09.05c-.2-.31-.65-.3-1-.24a3.53,3.53,0,0,0-1.06.41,3.37,3.37,0,0,0-.9.69c-.24.28-.48.66-.32,1Z"/><path class="cls-13" d="M24.57,12.45a.55.55,0,0,1,.4.32,1.25,1.25,0,0,1,.14.5,1.88,1.88,0,0,1-.16.9,2.41,2.41,0,0,1-1.05,1.17,2.51,2.51,0,0,1-1.55.29,2,2,0,0,1-.85-.33c-.26-.19-.54-.55-.43-.89l.12-.07c.2.3.64.29,1,.23a3.17,3.17,0,0,0,1.05-.42,3.34,3.34,0,0,0,.9-.68c.24-.27.48-.64.32-1Z"/><path class="cls-13" d="M30.19,21.29a.62.62,0,0,1,.4.32,1.34,1.34,0,0,1,.14.5,1.9,1.9,0,0,1-.16.91,2.51,2.51,0,0,1-1.05,1.17,2.6,2.6,0,0,1-1.55.29,2.18,2.18,0,0,1-.86-.33c-.25-.19-.54-.55-.42-.89l.12-.07c.19.3.64.29,1,.23A3.4,3.4,0,0,0,28.85,23a3.34,3.34,0,0,0,.9-.68c.23-.27.47-.64.32-1Z"/><path class="cls-13" d="M35.51,31.87a.55.55,0,0,1,.39.32,1.59,1.59,0,0,1,.15.5,2.16,2.16,0,0,1-.16.9,2.44,2.44,0,0,1-2.61,1.46,1.94,1.94,0,0,1-.85-.32c-.26-.19-.54-.55-.43-.89l.12-.07c.2.29.64.29,1,.22a3.32,3.32,0,0,0,1-.41,3.19,3.19,0,0,0,.9-.68c.24-.27.48-.64.32-1Z"/><path class="cls-13" d="M46,19.16c.15,0,.31.17.39.32a1.37,1.37,0,0,1,.15.5,1.92,1.92,0,0,1-.16.91,2.48,2.48,0,0,1-1.08,1.18,4.18,4.18,0,0,1-.7.26,2.5,2.5,0,0,1-.82,0A2.13,2.13,0,0,1,42.9,22c-.26-.19-.54-.55-.42-.89l.12-.07c.19.3.64.29,1,.23a3.67,3.67,0,0,0,1-.42,3.34,3.34,0,0,0,.9-.68c.23-.27.47-.64.32-1Z"/><path class="cls-13" d="M17.72,32.65c.14,0,.31.17.39.32a1.59,1.59,0,0,1,.15.5,2.2,2.2,0,0,1-.16.91A2.48,2.48,0,0,1,17,35.55a2.58,2.58,0,0,1-1.55.29,2.09,2.09,0,0,1-.85-.33c-.26-.19-.54-.55-.43-.89l.12-.07c.2.3.64.29,1,.23a3.3,3.3,0,0,0,1.05-.42,3.19,3.19,0,0,0,.9-.68c.24-.27.48-.64.32-1Z"/><path class="cls-13" d="M39.81,8.2c.15,0,.31.16.39.32a1.31,1.31,0,0,1,.15.5,1.88,1.88,0,0,1-.16.9,2.42,2.42,0,0,1-2.6,1.46,1.87,1.87,0,0,1-.86-.33.85.85,0,0,1-.42-.89l.12-.06c.19.29.64.29,1,.22a3.38,3.38,0,0,0,1-.41,3.34,3.34,0,0,0,.9-.68c.23-.27.47-.64.32-1Z"/><path class="cls-13" d="M13.32,23.11c.15,0,.31.16.4.32a1.43,1.43,0,0,1,.14.5,1.88,1.88,0,0,1-.16.9,2.51,2.51,0,0,1-1,1.17,2.46,2.46,0,0,1-1.55.29,1.87,1.87,0,0,1-.86-.33c-.25-.19-.54-.54-.42-.89L9.94,25c.19.29.64.29,1,.22A3.17,3.17,0,0,0,12,24.81a3,3,0,0,0,.9-.68c.23-.26.47-.63.32-1Z"/><g class="cls-6"><path class="cls-7" d="M45.76,21.67c-1.8.53-.07,1.92.47,1.38S47.56,21.13,45.76,21.67Z"/><path class="cls-7" d="M46.88,4.25C47.76,3.08,46,3,45.94,3.6S46,5.42,46.88,4.25Z"/><path class="cls-7" d="M52.66,9.42c.94-4.82-4.35-2.49-3.77-.59S51.72,14.25,52.66,9.42Z"/><path class="cls-7" d="M41.1,11.79C41,9.85,39.7,6,37.66,10.33S41.2,13.74,41.1,11.79Z"/><path class="cls-7" d="M41.07,5.51A5.59,5.59,0,0,0,41.83,5a1.14,1.14,0,0,0,.32,1.15,5.55,5.55,0,0,0,1.11.62c-.14.54.22.94,1.72.73,2.8-.4.92-2.68-.17-2.44,0-.09-.07-.17-.12-.26-.65-1.35-1.39-1.52-2-1.2,0-1.46-2.69-2.46-3.47-1.34C38.16,3.87,36.85,7.69,41.07,5.51Z"/><path class="cls-7" d="M53.5,16.59c0,.35.18,1.07.61.31S53.51,16.24,53.5,16.59Z"/><path class="cls-7" d="M52.41,13c-3.53-2-3.13,2.75-1.48,2.8S55.94,15,52.41,13Z"/><path class="cls-7" d="M49.58,17.4c0-.13.07-.25.1-.4.9-4-3.59-2.2-3.15-.59A7.17,7.17,0,0,0,47,17.54c-.5,1,.19,2.78,1.22,2.74C49.84,20.21,53.11,19.14,49.58,17.4Z"/><path class="cls-7" d="M49,23.65c1,.53,3.17,1.06,1.72-1.2S48.05,23.12,49,23.65Z"/><path class="cls-7" d="M38.24,24c-.48,1.11.92.83.88.34S38.73,22.86,38.24,24Z"/><path class="cls-7" d="M33.6,26.28c-.69,0-1.21,1.24-.69,1.63.67.51,2.21,1.11,1.74-.36.58.27,1.08.16.73-1.21C34.94,24.63,33.78,25.5,33.6,26.28Z"/><path class="cls-7" d="M32.51,27.3c.17-1.33-1.23-.61-1-.1S32.33,28.63,32.51,27.3Z"/><path class="cls-7" d="M44.25,29.29c.63.37,2.12.76,1.17-.78S43.62,28.92,44.25,29.29Z"/><path class="cls-7" d="M31.55,34.66c-1.51.64-4.2,2.81-.15,3.15S33.06,34,31.55,34.66Z"/><path class="cls-7" d="M45.09,21.9c3-3.38-2.28-4-2.71-2.23a6,6,0,0,0,0,2.83c-1.24.08-3.53.87-.86,2.14,1.88.9,2.19-.48,1.81-1.42A3.63,3.63,0,0,0,45.09,21.9Z"/><path class="cls-7" d="M21.71,36.76a1.22,1.22,0,0,0-.57-1.26c-1.35-.57-4.41-1-2.12,1.86.93,1.14,1.68,1.13,2.15.69a1.39,1.39,0,0,0-.06.19c-1.11,4.15,3.63,2.44,3.24.75C24,37.58,22.76,35.14,21.71,36.76Z"/><path class="cls-7" d="M45.39,24.46a.8.8,0,0,0-.52-.12c-1.35.2-4,1.36-.79,2.49l.39.12a1.11,1.11,0,0,0,1.09,0,.86.86,0,0,0,.56-.63C46.8,25.38,47.23,24.07,45.39,24.46Z"/><path class="cls-7" d="M29.61,34.75c.36.92,1,0,.71-.31S29.25,33.82,29.61,34.75Z"/><path class="cls-7" d="M34,25.26c.29-.18.78-.73-.08-.66S33.71,25.45,34,25.26Z"/><path class="cls-7" d="M41.86,20.55a7.38,7.38,0,0,0-.25-2.19c.88-.21,1-1,.73-1.69,1.78-.07.54-2-.23-1.69a3.12,3.12,0,0,0-.8.52.89.89,0,0,0-.56,0c-1.28.39-3.53,1.77-1.47,2.59a8.2,8.2,0,0,0-.52.76C36.4,22.73,41.76,22.39,41.86,20.55Z"/><path class="cls-7" d="M30.25,25.67c.34-1.59-1.43-.85-1.24-.21S29.92,27.27,30.25,25.67Z"/><path class="cls-7" d="M44.75,9.29a.49.49,0,0,0-.53.16c-.34.52-.7,1.73.51,1.13a2.29,2.29,0,0,0,.87.79,8,8,0,0,0-.88.44c-4.1,2.38.94,4.74,2,3.12a7.2,7.2,0,0,0,.75-1.7,1.24,1.24,0,0,0,1.35-.41,5.62,5.62,0,0,0,.57-1.45.57.57,0,0,0,.23-.17c.31-.32.09-.48-.13-.49,0-.69-.31-1.13-1.33-.74.58-1.06.54-2.09-1.94-1.45A2.55,2.55,0,0,0,44.75,9.29Z"/><path class="cls-7" d="M35.74,13.85c-.89,1.19-2,4.1,1.31,2.54S36.63,12.66,35.74,13.85Z"/><path class="cls-7" d="M30.31,12.86c.49-.22,1.35-.94,0-1S29.83,13.07,30.31,12.86Z"/><path class="cls-7" d="M30.74,11.16a6.68,6.68,0,0,0,.9,1c.09.08.18.14.26.22-.67.42-1.15,1.08.44,1.33.9.14,1.2-.19,1.2-.59,1.51-.14,1.67-3.12.38-3.5a5.63,5.63,0,0,0-2.79-.11c.09-2.43-2.92-1-2.56.18S30,12.63,30.74,11.16Z"/><path class="cls-7" d="M25.35,11.56c.48,1.2,1.41,2.2,2.22-.28.29-.89.2-1.44-.07-1.74-.3-1.93-1.66-4.94-3.33-.91C23.26,10.83,24.22,11.59,25.35,11.56Z"/><path class="cls-7" d="M12.62,38.7a6.19,6.19,0,0,0-.57.93c-.33-.35-1-.29-2.33.57-3.48,2.3,1.08,4.11,1.88,2.63A5.75,5.75,0,0,0,12,42c.38.16,1,.08,2.11-.41C17.86,39.87,13.65,37.37,12.62,38.7Z"/><path class="cls-7" d="M36.27,6.21C37,5.17,38,2.63,35.1,4S35.52,7.25,36.27,6.21Z"/><path class="cls-7" d="M18.52,15.85a1,1,0,0,0,.39.1c.83.06.46-.69.13-.73.43-.72.54-1.65,0-2.09C17.69,12,14.32,10.52,16,14.52,16.76,16.42,17.79,16.45,18.52,15.85Z"/><path class="cls-7" d="M21.74,11.66c-.47.72.79,1.83,1.41,1.39.81-.58,2.13-2.22-.32-1.9l-.38.08c.06-.56-.07-1.43-.85-.48C21.14,11.31,21.39,11.59,21.74,11.66Z"/><path class="cls-7" d="M21.5,12.5c.53-1.27-1.05-.94-1-.38S21,13.78,21.5,12.5Z"/><path class="cls-7" d="M10.78,17.6c-.58-.13-1.82-.07-.71.89S11.36,17.73,10.78,17.6Z"/><path class="cls-7" d="M22.82,15.13c-2.48,1.09.23,2.76.91,1.9S25.3,14.05,22.82,15.13Z"/><path class="cls-7" d="M14.27,18.65l.12-.17-.06.16c-.84,2.47,2.12,1.62,2,.58-.13-.82-.75-2.25-1.42-1.58.43-1,.4-2-1.63-1.13C10.44,17.75,13.51,19.62,14.27,18.65Z"/><path class="cls-7" d="M25.62,19c-1,.81.45,1.22.65.75S26.6,18.19,25.62,19Z"/><path class="cls-7" d="M36.61,20.72c.37-1.61.2-5-2.45-1.94a2.74,2.74,0,0,0-.27.35s0,0-.06,0c-1.54-.5-4.93-.63-2.15,2.24a2.65,2.65,0,0,0,1.52.91c-.26.57.16,1.18,2,1.68C38.85,24.92,38,21.39,36.61,20.72Z"/><path class="cls-7" d="M17.33,24.89c-1-.19-1.67.32-.78,2.62a4.47,4.47,0,0,0,.5,1c-.48.89-.65,1.81.26,2-.1.4.22.73,1.44.74a2.37,2.37,0,0,0,.84-.12.81.81,0,0,0,.31.73,3.9,3.9,0,0,0,1.68.66c.12.27.6.44.78.23s.54-1,0-.9a3.36,3.36,0,0,0-.42-1.14c-.66-1.26-1.37-1.2-1.83-.74l-.05-.1c1.45-.83.93-2,0-2.6a1.18,1.18,0,0,0-.33-1.05,6.58,6.58,0,0,0-1.26-.85C18.48,24.84,18.23,24.55,17.33,24.89Z"/><path class="cls-7" d="M30.53,29.2c.14-.12,0-.47-.16-.46s-.46.12-.43.26a.62.62,0,0,0-.27.05c-1,.52-2.85,2.17,0,2.24C31.84,31.34,31.35,29.78,30.53,29.2Z"/><path class="cls-7" d="M7.35,30.71c.08.62.61,1.84,1.14.38S7.26,30.09,7.35,30.71Z"/><path class="cls-7" d="M26,32.17c-.64.9-1.41,3.07,1,1.85S26.64,31.28,26,32.17Z"/><path class="cls-7" d="M19.66,33.15c.75.25.48-.64.17-.59S18.91,32.9,19.66,33.15Z"/><path class="cls-7" d="M26.33,36.69c-1.53,1.19.65,1.87,1,1.15S27.86,35.5,26.33,36.69Z"/><path class="cls-7" d="M27.74,28.85c1.55-.17,4.59-1.4,1-2.83S26.19,29,27.74,28.85Z"/><path class="cls-7" d="M28.39,23.37l.22-.1c.37,1.19,1.16,2.08,2.24-.22.43-.91.39-1.49.13-1.84.12-.73-.6-1.31-1.37-1.53a1.49,1.49,0,0,0-.13-.25c1.13-.42,2.17-1.82,1.63-2.73a7.67,7.67,0,0,0-1.05-1.36,1.2,1.2,0,0,0-.18-1.28C28.71,13,25.73,11.43,27,15.16a3.72,3.72,0,0,0,.27.63,6.81,6.81,0,0,0,0,1.23,5,5,0,0,0,.12.94,2,2,0,0,0-.84,2.27,8.45,8.45,0,0,0-.7,1.14c-.2-.41-.87-.62-2.34-.4a2.56,2.56,0,0,0-1.81.87,7.48,7.48,0,0,0-.58-1.17,2.6,2.6,0,0,0,.43-1.85c0-3.7-3.58-1.2-2.88.12a5.82,5.82,0,0,0,.4.62,4.06,4.06,0,0,0-1,2.23c-.53,2.46.59,3.1,1.75,2.89a6.6,6.6,0,0,0,.34.86c.06.13.12.23.18.34a.6.6,0,0,0-.05.55c.33.7,1.28,1.86,1.64.82,1.21.05,2.18-1.85,1.74-2.9a.84.84,0,0,0,.43-.16A6.52,6.52,0,0,0,25.4,22.9C25.41,23.77,26.13,24.22,28.39,23.37Z"/><path class="cls-7" d="M4.53,34.47a1.81,1.81,0,0,0,.54-1.36.81.81,0,0,0,.58-.34c.65-1.07,1.34-3.59-1.3-2a1.85,1.85,0,0,0-1,1.07c-.83-.23-1.48.05-.7,1.79a3.51,3.51,0,0,0,.18.34.66.66,0,0,0,.13.76C3.56,35.16,4.88,35.7,4.53,34.47Z"/><path class="cls-7" d="M14.93,22c-.09.72.12,2.21,1.16.77S15,21.32,14.93,22Z"/><path class="cls-7" d="M9.27,31.64c.44,0,1.35-.23.38-.77S8.82,31.63,9.27,31.64Z"/><path class="cls-7" d="M15.75,40.9c-.32,3.88,3.65,1.58,3,.14S16.07,37,15.75,40.9Z"/><path class="cls-7" d="M8.51,23.24A.89.89,0,0,0,9,24c-1.67.22-3,1.06-.24,3a3.51,3.51,0,0,0,1.7.72c-.41,2.06,3.17,1.95,3.39.52.18-1.18,0-3.26-.94-3.3-.17-1.67-1-3.65-2.66-1H9.78c.62-.49,1.3-1.41-.36-1.29a1.49,1.49,0,0,0-.63.17.81.81,0,0,0,.1-.59c-.33-1.44-1.82-4.19-2.78-.64C5.38,24.35,7.58,24.14,8.51,23.24Z"/><path class="cls-7" d="M6.24,28.82c.63-.29-.06-.7-.23-.48S5.62,29.1,6.24,28.82Z"/><path class="cls-7" d="M3.92,26.81c1.36-.78-.3-1.58-.64-1S2.55,27.58,3.92,26.81Z"/><path class="cls-7" d="M39.55,28.3a5.34,5.34,0,0,0-1.94,2.28,1,1,0,0,0-.27.35c-.77,1.74-1.34,5.71,2.37,2.79,1.11-.88,1.4-1.64,1.25-2.23C43.9,30.58,40.9,27.37,39.55,28.3Z"/><path class="cls-7" d="M14.43,30.93c.57-.59,1.4-2.11-.54-1.49S13.85,31.52,14.43,30.93Z"/><path class="cls-7" d="M12.7,32.79c-.35,1.61-.14,5.09,2.5,2S13.05,31.17,12.7,32.79Z"/><path class="cls-7" d="M8.56,36.39a1.61,1.61,0,0,0-.09-.26c.91-1.16,1.6-3-1.33-2.1-2.25.66-1.59,2-.59,2.59-.54-.15-1,.05-.5,1.27a1.84,1.84,0,0,0,.4.67A2.28,2.28,0,0,0,6.2,39a3.52,3.52,0,0,0-.44-.74c-1.51-2-2.45.8-1.53,1.24.58.27,1.6.51,1.95.17.32.59,1.63.57,1.8,0s.2-1.58-.19-1.81a.58.58,0,0,0-.16-.52C8.11,37.22,8.67,36.8,8.56,36.39Zm-1.48.44v0l-.06,0Z"/></g><g class="cls-9"><path class="cls-10" d="M10.46,24.87c1.79-.58,0-1.92-.5-1.38S8.67,25.44,10.46,24.87Z"/><path class="cls-10" d="M9.71,42.3c-.86,1.19.86,1.22.94.64S10.56,41.12,9.71,42.3Z"/><path class="cls-10" d="M3.81,37.25c-.84,4.84,4.4,2.41,3.79.52S4.65,32.4,3.81,37.25Z"/><path class="cls-10" d="M15.32,34.64c.14,2,1.52,5.8,3.47,1.4S15.19,32.7,15.32,34.64Z"/><path class="cls-10" d="M15.49,40.92a5.56,5.56,0,0,0-.76.5,1.12,1.12,0,0,0-.34-1.15,5.43,5.43,0,0,0-1.13-.59c.14-.55-.23-.94-1.73-.69-2.78.45-.86,2.69.22,2.43l.12.26c.69,1.33,1.43,1.49,2,1.16,0,1.45,2.74,2.4,3.5,1.27C18.42,42.51,19.66,38.66,15.49,40.92Z"/><path class="cls-10" d="M2.83,30.1c0-.35-.21-1.07-.61-.29S2.83,30.46,2.83,30.1Z"/><path class="cls-10" d="M5.41,30.84c-1.64,0-5,.87-1.42,2.83S7.06,30.86,5.41,30.84Z"/><path class="cls-10" d="M6.74,29.21c0,.14-.07.26-.1.41-.82,4,3.63,2.12,3.16.52A6.15,6.15,0,0,0,9.32,29c.49-1-.24-2.77-1.27-2.71C6.41,26.41,3.16,27.55,6.74,29.21Z"/><path class="cls-10" d="M4.79,26c-1-.51-3.2-1-1.69,1.23S5.75,26.53,4.79,26Z"/><path class="cls-10" d="M17.93,22.4c.46-1.13-.94-.81-.89-.32S17.47,23.53,17.93,22.4Z"/><path class="cls-10" d="M22.52,20c.69,0,1.19-1.27.66-1.65s-2.23-1.06-1.73.39c-.58-.26-1.09-.13-.71,1.23C21.22,21.68,22.36,20.79,22.52,20Z"/><path class="cls-10" d="M23.6,19c-.15,1.33,1.23.58,1,.08S23.74,17.63,23.6,19Z"/><path class="cls-10" d="M11.81,17.21c-.64-.35-2.13-.71-1.15.81S12.45,17.57,11.81,17.21Z"/><path class="cls-10" d="M24.4,11.59c1.5-.68,4.14-2.9.09-3.16S22.9,12.26,24.4,11.59Z"/><path class="cls-10" d="M34.2,9.29a1.22,1.22,0,0,0,.59,1.24c1.37.54,4.43.86,2.08-1.9-.95-1.12-1.7-1.1-2.16-.65l.06-.19c1-4.17-3.69-2.36-3.26-.68C31.86,8.51,33.18,10.92,34.2,9.29Z"/><path class="cls-10" d="M10.77,22.06a.76.76,0,0,0,.52.12c1.35-.23,3.94-1.44.75-2.51l-.39-.11a1.12,1.12,0,0,0-1.1,0,.88.88,0,0,0-.55.65C9.35,21.18,8.94,22.5,10.77,22.06Z"/><path class="cls-10" d="M26.34,11.46c-.38-.92-1,.06-.7.32S26.72,12.38,26.34,11.46Z"/><path class="cls-10" d="M12.87,23.26a3.6,3.6,0,0,0-1.74,1.36c-2.91,3.44,2.36,3.95,2.75,2.17A5.84,5.84,0,0,0,13.83,24c1.24-.11,3.52-.95.82-2.17C12.75,21,12.47,22.34,12.87,23.26Z"/><path class="cls-10" d="M22.14,21c-.29.19-.77.75.09.66S22.43,20.84,22.14,21Z"/><path class="cls-10" d="M14.39,25.9a6.72,6.72,0,0,0,.29,2.18c-.88.24-1,1-.7,1.72-1.77.1-.49,2.05.27,1.68a3.71,3.71,0,0,0,.79-.54.86.86,0,0,0,.55,0c1.28-.41,3.5-1.84,1.42-2.62a8.87,8.87,0,0,0,.51-.78C19.8,23.61,14.45,24.06,14.39,25.9Z"/><path class="cls-10" d="M25.88,20.54c-.3,1.6,1.45.82,1.26.19S26.19,18.94,25.88,20.54Z"/><path class="cls-10" d="M11.73,37.22a.51.51,0,0,0,.53-.17c.32-.53.66-1.75-.54-1.12a2.22,2.22,0,0,0-.89-.77,7.54,7.54,0,0,0,.87-.46c4.05-2.46-1-4.72-2-3.08A7.35,7.35,0,0,0,9,33.34a1.21,1.21,0,0,0-1.33.43,5.42,5.42,0,0,0-.55,1.47.65.65,0,0,0-.23.17c-.3.33-.07.49.15.48,0,.69.33,1.13,1.34.72-.56,1.07-.49,2.1,2,1.41A2.64,2.64,0,0,0,11.73,37.22Z"/><path class="cls-10" d="M20.64,32.47c.87-1.2,1.94-4.14-1.36-2.51S19.77,33.68,20.64,32.47Z"/><path class="cls-10" d="M38.13,24.17c.47-2.47-.66-3.09-1.81-2.85-.1-.26-.21-.53-.36-.85-.06-.13-.13-.23-.19-.34a.63.63,0,0,0,0-.55c-.34-.7-1.32-1.83-1.66-.78-1.21,0-2.14,1.89-1.68,2.93a.82.82,0,0,0-.42.17,6.35,6.35,0,0,0-1.25,1.32c0-.87-.77-1.31-3-.41l-.22.1c-.39-1.18-1.2-2.05-2.23.27-.41.92-.36,1.5-.09,1.84-.1.73.62,1.3,1.4,1.5,0,.08.09.17.13.25-1.12.44-2.12,1.86-1.56,2.76a6.93,6.93,0,0,0,1.07,1.33,1.23,1.23,0,0,0,.2,1.29c1.19,1.06,4.21,2.54,2.84-1.16a4.72,4.72,0,0,0-.28-.63,8,8,0,0,0,0-1.22,5.74,5.74,0,0,0-.15-.95,2,2,0,0,0,.8-2.28,8.65,8.65,0,0,0,.67-1.15c.21.4.89.6,2.35.34a2.53,2.53,0,0,0,1.79-.9,8.42,8.42,0,0,0,.6,1.15,2.67,2.67,0,0,0-.38,1.86c.09,3.7,3.6,1.13,2.87-.18a4.94,4.94,0,0,0-.41-.6A4.15,4.15,0,0,0,38.13,24.17Z"/><path class="cls-10" d="M26.09,33.36c-.48.23-1.33,1,0,1S26.57,33.13,26.09,33.36Z"/><path class="cls-10" d="M25.69,35.06a6,6,0,0,0-.92-1,2.53,2.53,0,0,0-.26-.22c.66-.44,1.13-1.1-.47-1.32-.9-.12-1.19.21-1.19.61-1.5.17-1.6,3.16-.31,3.5a5.55,5.55,0,0,0,2.8.06c0,2.43,2.94.93,2.56-.23S26.36,33.58,25.69,35.06Z"/><path class="cls-10" d="M31.08,34.55c-.51-1.19-1.46-2.17-2.22.33-.27.89-.17,1.44.11,1.74.34,1.92,1.76,4.9,3.35.84C33.18,35.24,32.2,34.5,31.08,34.55Z"/><path class="cls-10" d="M43.24,7.15a6.18,6.18,0,0,0,.56-.93c.34.33,1,.26,2.31-.62C49.54,3.23,45,1.51,44.18,3a8.31,8.31,0,0,0-.35.83c-.38-.15-1-.06-2.1.46C38,6.09,42.24,8.51,43.24,7.15Z"/><path class="cls-10" d="M20.26,40.13c-.72,1-1.6,3.61,1.22,2.15S21,39.07,20.26,40.13Z"/><path class="cls-10" d="M37.82,30.13a.77.77,0,0,0-.39-.1c-.83,0-.45.7-.12.73-.41.73-.5,1.67,0,2.1,1.37,1.09,4.78,2.51,3-1.46C39.56,29.52,38.53,29.51,37.82,30.13Z"/><path class="cls-10" d="M34.69,34.38c.45-.73-.84-1.82-1.44-1.37-.81.6-2.09,2.27.36,1.9l.38-.09c-.06.56.09,1.43.85.47C35.29,34.72,35,34.44,34.69,34.38Z"/><path class="cls-10" d="M34.91,33.53c-.51,1.28,1.07.92,1,.36S35.42,32.25,34.91,33.53Z"/><path class="cls-10" d="M46.22,27.31c-1.13-.94-1.28.78-.7.9S47.34,28.25,46.22,27.31Z"/><path class="cls-10" d="M32.58,29.05c-.66.87-1.5,3,1,1.88S33.25,28.18,32.58,29.05Z"/><path class="cls-10" d="M42,27.23l-.12.18,0-.16c.79-2.49-2.14-1.58-1.95-.55.15.83.79,2.24,1.44,1.56-.4,1-.35,2,1.66,1.09C45.86,28.05,42.75,26.25,42,27.23Z"/><path class="cls-10" d="M30,26.4c-.19.47-.3,1.55.67.72S30.18,25.92,30,26.4Z"/><path class="cls-10" d="M19.63,25.62c-.33,1.62-.1,5,2.49,1.9a3.56,3.56,0,0,0,.26-.36s0,0,.06,0c1.55.47,4.95.52,2.1-2.28A2.55,2.55,0,0,0,23,24c.25-.58-.17-1.19-2-1.64C17.3,21.48,18.21,25,19.63,25.62Z"/><path class="cls-10" d="M39.55,18.43a4.12,4.12,0,0,0-.53-.95c.47-.91.61-1.83-.29-2,.09-.4-.24-.72-1.46-.71a2.35,2.35,0,0,0-.84.13.81.81,0,0,0-.32-.72,4,4,0,0,0-1.7-.62c-.12-.27-.61-.43-.78-.21s-.52,1,.06.9a3.33,3.33,0,0,0,.44,1.13c.69,1.24,1.4,1.17,1.84.69l.06.11c-1.44.85-.89,2,0,2.59a1.21,1.21,0,0,0,.35,1.05,7.06,7.06,0,0,0,1.28.82c0,.48.22.76,1.11.39C39.82,21.23,40.48,20.7,39.55,18.43Z"/><path class="cls-10" d="M25.54,17c-.15.13,0,.48.16.46s.46-.13.43-.27a.66.66,0,0,0,.27-.06c1-.54,2.8-2.23-.07-2.24C24.17,14.91,24.7,16.46,25.54,17Z"/><path class="cls-10" d="M47.53,14.68c-.51,1.47,1.25,1,1.15.35S48,13.21,47.53,14.68Z"/><path class="cls-10" d="M30,14c.62-.91,1.35-3.1-1-1.83S29.38,14.86,30,14Z"/><path class="cls-10" d="M36.32,12.85c-.75-.23-.47.65-.16.59S37.08,13.08,36.32,12.85Z"/><path class="cls-10" d="M29.58,9.45c1.5-1.23-.69-1.86-1-1.14S28.08,10.67,29.58,9.45Z"/><path class="cls-10" d="M28.33,17.32c-1.55.2-4.56,1.49-.95,2.84S29.88,17.12,28.33,17.32Z"/><path class="cls-10" d="M41.27,23.87c.08-.72-.16-2.21-1.16-.74S41.19,24.58,41.27,23.87Z"/><path class="cls-10" d="M53.3,12a2.74,2.74,0,0,0-.19-.34.68.68,0,0,0-.14-.75c-.59-.43-1.93-.94-1.55.28a1.81,1.81,0,0,0-.51,1.37.79.79,0,0,0-.58.35c-.62,1.08-1.26,3.62,1.34,2a1.88,1.88,0,0,0,1-1.09C53.47,14,54.11,13.76,53.3,12Z"/><path class="cls-10" d="M46.37,14.92c1,.51.82-.77.37-.77S45.4,14.41,46.37,14.92Z"/><path class="cls-10" d="M40.07,5c.24-3.89-3.68-1.51-3-.08S39.83,8.91,40.07,5Z"/><path class="cls-10" d="M47.67,22.53a.9.9,0,0,0-.46-.8c1.67-.25,3-1.12.18-3A3.68,3.68,0,0,0,45.68,18c.36-2.06-3.22-1.88-3.4-.44-.16,1.18,0,3.26,1,3.27.2,1.67,1.06,3.64,2.68,1h.41c-.6.49-1.26,1.43.39,1.27a1.48,1.48,0,0,0,.63-.18.82.82,0,0,0-.09.59c.36,1.44,1.91,4.15,2.79.59C50.78,21.36,48.58,21.61,47.67,22.53Z"/><path class="cls-10" d="M49.82,16.9c-.62.3.08.7.25.48S50.44,16.61,49.82,16.9Z"/><path class="cls-10" d="M52.19,18.86c-1.35.81.33,1.57.66,1S53.54,18.06,52.19,18.86Z"/><path class="cls-10" d="M16.53,18.11a5.31,5.31,0,0,0,1.89-2.32,1,1,0,0,0,.27-.36c.74-1.75,1.22-5.74-2.42-2.74-1.1.9-1.38,1.67-1.21,2.25C12.14,15.92,15.2,19.07,16.53,18.11Z"/><path class="cls-10" d="M42.16,16.44c1.93-.67,0-2.08-.56-1.48S40.24,17.1,42.16,16.44Z"/><path class="cls-10" d="M40.75,11.16c-2.57,3.18,2.22,3.53,2.54,1.91S43.32,8,40.75,11.16Z"/><path class="cls-10" d="M47.35,9.38a2.5,2.5,0,0,0,.09.25c-.88,1.19-1.53,3,1.38,2.08,2.23-.71,1.55-2.06.54-2.6.54.14.94-.07.47-1.28a1.84,1.84,0,0,0-.42-.67,2,2,0,0,0,.25-.39,3,3,0,0,0,.45.73c1.56,2,2.44-.85,1.5-1.27C51,6,50,5.76,49.67,6.1c-.34-.58-1.65-.54-1.8.09S47.7,7.77,48.09,8a.61.61,0,0,0,.17.51C47.78,8.54,47.23,9,47.35,9.38Zm1.47-.47s0,0,0,0l.06,0Z"/></g><g class="cls-6"><path class="cls-8" d="M48,16c.5-1.7-1.48-1-1.33-.34S47.5,17.74,48,16Z"/><path class="cls-8" d="M48.11,10.76c-1.65-.15-.69,1.55-.08,1.29S49.76,10.92,48.11,10.76Z"/><path class="cls-8" d="M35,19.84c-.4,1.59,1.4.91,1.24.27S35.43,18.25,35,19.84Z"/><path class="cls-8" d="M38.43,7.77c-.37.58.44.54.46.27S38.79,7.19,38.43,7.77Z"/><path class="cls-8" d="M42.71,11.37c1.16-1.19-.77-1.52-1-.88S41.54,12.56,42.71,11.37Z"/><path class="cls-8" d="M34.87,12.07c1.47.95,1.4-1.11.7-1.17S33.4,11.11,34.87,12.07Z"/><path class="cls-8" d="M44.44,15.56c-1.77.31-.29,1.82.29,1.37S46.21,15.26,44.44,15.56Z"/><path class="cls-8" d="M20.66,12.34c-1.56,1.5.93,2,1.21,1.17S22.22,10.84,20.66,12.34Z"/><path class="cls-8" d="M36.37,18.7c.59-.39-.19-.7-.32-.45S35.78,19.1,36.37,18.7Z"/><path class="cls-8" d="M24.77,17.81c1.05.2.54-.95.13-.82S23.72,17.6,24.77,17.81Z"/><path class="cls-8" d="M29.08,20.43c.18.78.81.08.6-.16S28.9,19.66,29.08,20.43Z"/><path class="cls-8" d="M43,26.05c0,1.29,1.25.41,1-.05S43,24.77,43,26.05Z"/><path class="cls-8" d="M24,22.85c-.34,1.62,1.45.86,1.26.22S24.34,21.24,24,22.85Z"/><path class="cls-8" d="M19.39,24.56c1.22-.74-.31-1.42-.61-.93S18.17,25.3,19.39,24.56Z"/><path class="cls-8" d="M38,30.61c-.51,1.05.85.84.83.37S38.5,29.56,38,30.61Z"/><path class="cls-8" d="M31.93,16.71c-2,.7,0,2.17.59,1.55S33.94,16,31.93,16.71Z"/><path class="cls-8" d="M28.82,39.38c-.28-1.19-1.24-.12-.91.25S29.1,40.57,28.82,39.38Z"/><path class="cls-8" d="M26.76,33.37c-1.14.68.28,1.32.56.87S27.89,32.7,26.76,33.37Z"/><path class="cls-8" d="M16.54,39c.07-.55-.51-.24-.43,0S16.47,39.5,16.54,39Z"/><path class="cls-8" d="M20.19,31.93c.84.29.56-.71.21-.66S19.35,31.64,20.19,31.93Z"/><path class="cls-8" d="M26.83,20.2c-.15,2.1,2,.83,1.63.06S27,18.1,26.83,20.2Z"/><path class="cls-8" d="M15.33,29.08c-.45.79.62.69.63.32S15.77,28.29,15.33,29.08Z"/><path class="cls-8" d="M12.46,28.21c-2.32.34-.43,2.36.33,1.8S14.79,27.87,12.46,28.21Z"/><path class="cls-8" d="M15.57,22.91c1.39,1.59,2-.82,1.19-1.13S14.17,21.32,15.57,22.91Z"/><path class="cls-8" d="M18.52,16.64c-1.69-.5-1,1.47-.34,1.33S20.21,17.14,18.52,16.64Z"/><path class="cls-8" d="M7.8,23c.66-1-.77-1-.81-.48S7.14,24.05,7.8,23Z"/><path class="cls-8" d="M25.24,26.82c-1-1.22-1.52.58-.92.82S26.25,28,25.24,26.82Z"/><path class="cls-8" d="M11.08,39.25c-.81-2.18-2.38.07-1.68.69S11.89,41.44,11.08,39.25Z"/><path class="cls-8" d="M7.1,25.88c.68,1.25,1.44-.24,1-.56S6.43,24.62,7.1,25.88Z"/><path class="cls-8" d="M3.62,33.28c.87.31.59-.74.22-.69S2.75,33,3.62,33.28Z"/><path class="cls-8" d="M18.88,29c-1,2.12,1.71,1.7,1.68.74S19.91,26.86,18.88,29Z"/><path class="cls-8" d="M7.7,32.59c0,1.9,1.82.67,1.48,0S7.74,30.69,7.7,32.59Z"/><path class="cls-8" d="M16.4,34.59c-.25-.73-.79,0-.56.21S16.65,35.31,16.4,34.59Z"/><path class="cls-8" d="M41,24.12c-1.63-1.06-1.56,1.23-.77,1.3S42.64,25.18,41,24.12Z"/></g></g></g></g></g></svg>