<svg xmlns="http://www.w3.org/2000/svg" width="56.575" height="40" viewBox="0 0 113.15 80"><defs><style>.cls-1{isolation:isolate;}.cls-2{fill:#ffad40;}.cls-3{fill:#f68a2f;}.cls-4{mix-blend-mode:multiply;}.cls-5{fill:#e3d6ad;}.cls-6{fill:#ff963d;}.cls-7{fill:#fcc665;}.cls-8{fill:#f4a13d;}.cls-9{fill:#ffa13d;}.cls-10{fill:#e66e1f;}.cls-11{fill:#e38526;}.cls-12{fill:#ffc653;}.cls-13{fill:#f2dbc2;}</style></defs><title>o_croissant</title><g class="cls-1"><g id="Layer_2" data-name="Layer 2"><g id="action_font" data-name="action font"><g id="desk"><path class="cls-2" d="M112.8,45.8c.25,4.31-2.31,6.45-5.4,4.85a12.55,12.55,0,0,0-10.54-.71,37.32,37.32,0,0,0,3-3.4s4.56-3.76,12.91-.74Z"/><path class="cls-3" d="M112.8,45.8h0c-8.35-3-12.91.74-12.91.74,3.69-4.71,6-10.25,4.77-15.37C110.31,37,112.57,42.15,112.8,45.8Z"/><path class="cls-3" d="M104.64,31.17c1.28,5.12-1.08,10.66-4.77,15.37a37.32,37.32,0,0,1-3,3.4h0c-10.53,5.28-14.19,1.6-14.19,1.6,3.51-3.11,11.67-16.36,4.35-33.9C101.66,17.42,104.64,31.17,104.64,31.17Z"/><path class="cls-3" d="M63.65,47.63c.13.07.34,0,.66-.2C68.52,44.85,70.72,29,71,13.3a13.61,13.61,0,0,0-1.68-7.38C84.82,8.94,87,17.65,87,17.65c7.32,17.54-.84,30.79-4.35,33.9A12.17,12.17,0,0,1,73.71,55c-6,0-18.34,5.49-24.29,8.94a8.68,8.68,0,0,1-3.7,1.26v0c2.54-18.42-16.26-35.86-32.73-34A20.91,20.91,0,0,1,18.25,22c18-13.25,41.81,10.08,45.24,24.84C63.46,47.29,63.49,47.56,63.65,47.63Z"/><path class="cls-3" d="M69.27,5.92A13.61,13.61,0,0,1,71,13.3C70.72,29,68.52,44.85,64.31,47.43c-.32.2-.53.27-.66.2,0-.25-.11-.52-.16-.79.13-2.45,1.9-10.25-6.93-20C43.91,12.83,28.11,9.25,19.74,14.5,22.37,10,28.63,9.67,39.56,5,51.69-.12,64.73-1.72,69.27,5.92Z"/><path class="cls-2" d="M56.56,26.82c8.83,9.77,7.06,17.57,6.93,20C60.06,32.08,36.22,8.75,18.25,22c0-3.44.48-5.77,1.49-7.5C28.11,9.25,43.91,12.83,56.56,26.82Z"/><path class="cls-2" d="M13,31.17c16.47-1.85,35.27,15.59,32.73,34v0a5.89,5.89,0,0,1-5.24-2.42C42.54,46.06,21.7,31.87,13.2,37.12A11.21,11.21,0,0,1,13,31.17Z"/><path class="cls-3" d="M13.2,37.12c8.5-5.25,29.34,8.94,27.28,25.66,0,0-3.45,0-8,3.91-2.76,2.35-4,4.11-6.43,5v0C28.75,61.08,10.91,46.29,4.3,53.79,5,44.87,13.2,37.12,13.2,37.12Z"/><path class="cls-2" d="M4.3,53.79c6.61-7.5,24.45,7.29,21.72,17.88v0a14.46,14.46,0,0,1-4.8.62c0-6.31-8.48-15.48-16.26-13A14,14,0,0,1,4.3,53.79Z"/><path class="cls-3" d="M21.22,72.31c-.82,0-1.71,0-2.74-.13A12.74,12.74,0,0,0,12,73.57c4-5.9-6.58-7.09-9.22,6.06-.55.09-1-.13-1.25-.8C-2.59,68.86,5,59.35,5,59.35,12.74,56.83,21.22,66,21.22,72.31Z"/><path class="cls-2" d="M2.76,79.63C5.4,66.48,16,67.67,12,73.57,7.71,75.65,4.53,79.31,2.76,79.63Z"/><g class="cls-4"><path class="cls-5" d="M108,35c0,.21,0,.41-.07.61a17.22,17.22,0,0,1-2.23,6.18A21.34,21.34,0,0,1,97,50.08l-.25-.25a31.35,31.35,0,0,0,6.44-9.15,14.47,14.47,0,0,0,1-10Z"/></g><g class="cls-4"><path class="cls-5" d="M74.83,7.42a6.72,6.72,0,0,1,.18.87,20.71,20.71,0,0,1,.32,4.16l0,1-.06.82L75.12,16c-.14,2.24-.42,4.47-.75,6.7A87.42,87.42,0,0,1,71.53,35.9,48.41,48.41,0,0,1,69,42.31a22.21,22.21,0,0,1-1.82,3,7.28,7.28,0,0,1-2.74,2.33l-.28-.46a6.11,6.11,0,0,0,1.92-2.43,21.17,21.17,0,0,0,1.19-3,51,51,0,0,0,1.48-6.36,120.71,120.71,0,0,0,1.43-13c.14-2.18.23-4.37.27-6.55a25.49,25.49,0,0,0-.33-6.44,10.59,10.59,0,0,0-1.68-3.84Z"/></g><g class="cls-4"><path class="cls-5" d="M90.39,17.85a33.36,33.36,0,0,1,2.24,7.94A38.51,38.51,0,0,1,93,30.7a33.57,33.57,0,0,1-.45,4.91,25.65,25.65,0,0,1-1.25,4.74,23.54,23.54,0,0,1-2,4.41,18.16,18.16,0,0,1-6.51,6.93l-.24-.26a22.5,22.5,0,0,0,4.78-7.49,31,31,0,0,0,2.17-8.67,36.54,36.54,0,0,0-2.76-17.51h0v0Z"/></g><path class="cls-6" d="M82.46,51.36a38.42,38.42,0,0,0,2.43-8.44c.23-1.38.38-2.75.53-4.08s.11-2.69.12-4A48.61,48.61,0,0,0,82.78,19.4L82.63,19l-.07-.22c.08.24,0,.09.06.1a.89.89,0,0,0,0-.14c0-.1,0-.23-.09-.36a6.82,6.82,0,0,0-.34-.82,10.53,10.53,0,0,0-1.06-1.7A16.67,16.67,0,0,0,78,12.43,36.52,36.52,0,0,0,74,9.26c-1.49-1-3.08-2-4.74-3.08l.1-.52A32.29,32.29,0,0,1,79.89,9.25a21,21,0,0,1,4.49,3.43,12.93,12.93,0,0,1,3.09,4.84l0-.07A37.6,37.6,0,0,1,90,26.22a33.71,33.71,0,0,1,.2,9.14,32,32,0,0,1-2.32,8.82,22.43,22.43,0,0,1-5.08,7.57Z"/><path class="cls-6" d="M19.43,14.31a10.14,10.14,0,0,1,4.76-4c1.88-.89,3.81-1.55,5.72-2.24,3.86-1.3,7.58-2.75,11.35-4.36A54.81,54.81,0,0,1,53.1.38c4-.58,8.41-.71,12.36,1.14A10.38,10.38,0,0,1,70.09,6a14.23,14.23,0,0,1,1.5,6.16c0,4.14-.23,8.16-.55,12.24a110.84,110.84,0,0,1-1.61,12.14,47.82,47.82,0,0,1-1.6,5.94,19.41,19.41,0,0,1-1.25,2.85,6.33,6.33,0,0,1-2.09,2.44l-.37-.61a6.34,6.34,0,0,0,1-2.61,20.71,20.71,0,0,0,.38-2.86c.13-1.94.22-3.9.16-5.88,0-3.93-.15-7.9-.24-11.85-.1-2-.21-3.95-.27-5.92l-.13-3c0-1-.06-2.06-.15-2.65a7.29,7.29,0,0,0-.94-3.12,3.39,3.39,0,0,0-1.6-1.38c-1.6-.86-4.89-1.17-8.26-.85A71.77,71.77,0,0,0,43.32,9c-1.73.4-3.91,1.18-6,1.59s-4.16.83-6.19,1.15-4.05.52-5.93.83A10.36,10.36,0,0,0,20,14.68Z"/><path class="cls-7" d="M18.16,22A4.25,4.25,0,0,1,17,20a5.12,5.12,0,0,1-.1-2.1,5,5,0,0,1,.81-2,3.52,3.52,0,0,1,1.91-1.42l.15.09a10.3,10.3,0,0,0-1.12,3.63A25.73,25.73,0,0,0,18.33,22Z"/><path class="cls-8" d="M12.84,31.45a17.21,17.21,0,0,1,1.94-5.17,22.75,22.75,0,0,1,3.4-4.35l.13.13a12.31,12.31,0,0,1-.85,2.78,22,22,0,0,1-1.15,2.33c-.45.72-.88,1.44-1.41,2.14A16.08,16.08,0,0,1,13,31.49Z"/><path class="cls-7" d="M13.14,37.14a2.86,2.86,0,0,1-1.22-1.24,3.79,3.79,0,0,1-.41-1.53,3.33,3.33,0,0,1,1.35-2.91l.13,0a11.7,11.7,0,0,0-.15,2.83,10.67,10.67,0,0,0,.43,2.79Z"/><path class="cls-8" d="M4.21,53.79a22.19,22.19,0,0,1,3-9.14,36.91,36.91,0,0,1,6-7.59l.12.13c-1.41,3.08-3,5.66-4.53,8.34-.78,1.31-1.49,2.64-2.21,4s-1.37,2.73-2.13,4.29Z"/><path class="cls-7" d="M4.89,59.37A3,3,0,0,1,3.65,58.2a3.89,3.89,0,0,1-.49-1.46,3.37,3.37,0,0,1,1.07-3h.13a14.42,14.42,0,0,0,.12,2.79A12.91,12.91,0,0,0,5,59.33Z"/><path class="cls-2" d="M21.22,72.48c-1.8,0-3.58-.31-5.31,0A14.58,14.58,0,0,0,11,74.39,34.91,34.91,0,0,0,6.7,77.46C6,78,5.3,78.59,4.56,79.11a7.64,7.64,0,0,1-1.22.71,1.56,1.56,0,0,1-1.62-.1A2.86,2.86,0,0,1,1,78.41C.83,78,.71,77.54.57,77.1A17.42,17.42,0,0,1,.37,69a25,25,0,0,1,4.44-9.77l.28.22a44.13,44.13,0,0,0-2,10.07,19.79,19.79,0,0,0,.28,4.53c.15.72.29,1.43.5,2.11.12.32.17.53.37,1l.13.31.06.16s.06.14,0,0v0A1.59,1.59,0,0,0,4,77a2.28,2.28,0,0,0-1.47-.49,1,1,0,0,0-.46.09,2.16,2.16,0,0,0,.58-.31c.6-.36,1.28-.92,2-1.42a28.68,28.68,0,0,1,5-2.88,14.48,14.48,0,0,1,6-1.29,10.9,10.9,0,0,1,3,.51c.87.3,1.71.63,2.61,1Z"/><path class="cls-9" d="M40.48,63a13.12,13.12,0,0,0-5,1.92,24.75,24.75,0,0,0-4.26,3.4,17,17,0,0,1-4.44,3.41,12.4,12.4,0,0,1-5.54.79v-.35c.91-.67,1.78-1.1,2.53-1.62a6.32,6.32,0,0,0,1-.7,2.52,2.52,0,0,1,.53-.37c0-.08.23-.21.32-.32.46-.5.84-.93,1.36-1.52s1.12-1.25,1.82-1.91l1.14-1c.35-.25.79-.61,1.23-.88A12,12,0,0,1,34,62.44a8.12,8.12,0,0,1,6.46.17Z"/><path class="cls-9" d="M82.91,51.79a11.79,11.79,0,0,1-5,3.13A14,14,0,0,1,75,55.5c-1,.1-1.94,0-2.84.2A49.23,49.23,0,0,0,61.37,59,101.73,101.73,0,0,0,51,63.72c-1.59.88-3.47,2-5.56,2A6.27,6.27,0,0,1,40.18,63l.59-.39c2.14.62,3.71.18,4.55-.7a11.72,11.72,0,0,0,1.18-1.31,1.94,1.94,0,0,0,.21-.33c.07-.11.43-.39.41-.45.39-.36.77-.74,1.17-1.07a37.43,37.43,0,0,1,10.44-6.31A30.54,30.54,0,0,1,71.44,50c.31,0,.61,0,1,.07l.55.06.36.09.18.05h.2l.06,0,.25.09.52.19a16.9,16.9,0,0,0,2.21.61,15.13,15.13,0,0,0,5.58.08Z"/><path class="cls-9" d="M96.93,50.11a25.11,25.11,0,0,1-7,2.73,13.91,13.91,0,0,1-3.81.22,6.07,6.07,0,0,1-3.59-1.38l.25-.25a19.51,19.51,0,0,0,3.56-1.19,14.91,14.91,0,0,1,2.9-.88,13.85,13.85,0,0,1,3.32-.28,13.16,13.16,0,0,1,4.23.71Z"/><path class="cls-2" d="M104.77,31a36.61,36.61,0,0,1,5.79,7.32c1.54,2.7,2.82,5.75,2.55,9-.17,1.56-1,3.38-2.67,4a3.79,3.79,0,0,1-2.47-.11c-.79-.31-1.4-.71-2.13-1a12.26,12.26,0,0,0-8.92-.13l-.15-.32c2.51-2.39,6.5-3.1,10.08-2.16.86.18,2,.69,2.16.65.34,0,.45-.08.37-.13s-.09,0,0-.18a2.94,2.94,0,0,0,.2-1,9.14,9.14,0,0,0-.27-3.35,28.29,28.29,0,0,0-1.18-3.88c-1-2.66-2.35-5.38-3.62-8.46Z"/><path class="cls-10" d="M63.58,47.75A29.13,29.13,0,0,0,60.39,41a42.9,42.9,0,0,0-4.31-6,51.5,51.5,0,0,0-10.72-9.88,31.28,31.28,0,0,0-13-5.73,20.8,20.8,0,0,0-14,2.61l-.11-.15a19.71,19.71,0,0,1,14.29-3.83,31.27,31.27,0,0,1,13.89,5.65A48.91,48.91,0,0,1,57.18,34.23c3,4,5.61,8.5,6.57,13.48Z"/><path class="cls-11" d="M13,31c4.35-1.77,9.49-1.48,14,.05a29.42,29.42,0,0,1,6.53,3.11,35.78,35.78,0,0,1,5.62,4.59,35.39,35.39,0,0,1,4.41,5.77,28,28,0,0,1,2.87,6.67,20.94,20.94,0,0,1-.56,14l-.35,0a26.16,26.16,0,0,0-1.7-13,32.82,32.82,0,0,0-7.22-11,34.32,34.32,0,0,0-10.72-7.6A25.43,25.43,0,0,0,13,31.34Z"/><path class="cls-12" d="M13,31.07a25.89,25.89,0,0,1,13.07,2.17A34.77,34.77,0,0,1,37,40.84,33.57,33.57,0,0,1,44.22,52,26.38,26.38,0,0,1,45.8,65.2l-.17,0a29.43,29.43,0,0,0-.71-6.53,27,27,0,0,0-2-6.11,34.3,34.3,0,0,0-7.2-10.45,35.76,35.76,0,0,0-10.22-7.57,28.31,28.31,0,0,0-6-2.28,26.94,26.94,0,0,0-6.49-1Z"/><path class="cls-10" d="M13.16,37a8.92,8.92,0,0,1,5.28-1.11,17.79,17.79,0,0,1,5.28,1.31,28.73,28.73,0,0,1,9,6,28.14,28.14,0,0,1,6.2,8.9,20.41,20.41,0,0,1,1.6,10.66l-.17,0a23.3,23.3,0,0,0-.84-5.26,21.09,21.09,0,0,0-1.86-4.83,32,32,0,0,0-6.17-8.17,32.83,32.83,0,0,0-8.33-6,19.65,19.65,0,0,0-4.82-1.66,8.91,8.91,0,0,0-5.12.33Z"/><path class="cls-10" d="M99.82,46.49a11.5,11.5,0,0,1,6.38-2,18.19,18.19,0,0,1,6.61,1.23l0,.13c-2.4.09-4.46-.12-6.53,0-1,0-2,.1-3.08.21a28,28,0,0,0-3.24.57Z"/><path class="cls-2" d="M99.81,46.48a5.6,5.6,0,0,1,2.73-2.58,8.81,8.81,0,0,1,3.62-.88,9.63,9.63,0,0,1,3.62.64,7.41,7.41,0,0,1,3,2l0,.17a17.94,17.94,0,0,0-6.55-1.07,11.26,11.26,0,0,0-6.29,1.82Z"/><path class="cls-11" d="M4.18,53.67a5.69,5.69,0,0,1,3.59-3.49A10.19,10.19,0,0,1,13,49.86a16.2,16.2,0,0,1,4.7,1.65,23.07,23.07,0,0,1,4,2.78,24.27,24.27,0,0,1,3.16,3.63A18,18,0,0,1,27,62.26a13.36,13.36,0,0,1,.76,4.87,8.05,8.05,0,0,1-1.55,4.58l-.34-.08a11.91,11.91,0,0,0-1.36-8.12,23.32,23.32,0,0,0-5.23-6.58,20.33,20.33,0,0,0-7.12-4.4A9.28,9.28,0,0,0,8,52.05a5.74,5.74,0,0,0-3.6,1.87Z"/><path class="cls-12" d="M4.24,53.74a6.08,6.08,0,0,1,3.74-2,9.85,9.85,0,0,1,4.28.44,20.53,20.53,0,0,1,7.36,4.39,23.35,23.35,0,0,1,5.22,6.79,12.12,12.12,0,0,1,1.26,8.36l-.17,0a10.79,10.79,0,0,0-.63-4.08A14.58,14.58,0,0,0,23.61,64a28.79,28.79,0,0,0-5.18-6.1,23.75,23.75,0,0,0-6.59-4.36c-2.36-1-5.09-1.43-7.47.37Z"/><path class="cls-10" d="M4.93,59.26a9.48,9.48,0,0,1,5.82,0,14.6,14.6,0,0,1,5.12,2.89,17.75,17.75,0,0,1,3.74,4.54,11.54,11.54,0,0,1,1.7,5.59h-.18a18.06,18.06,0,0,0-2.72-4.89,25.36,25.36,0,0,0-3.7-3.9,18.66,18.66,0,0,0-4.37-2.9A12.87,12.87,0,0,0,5,59.43Z"/><path class="cls-10" d="M2.62,79.6a18.48,18.48,0,0,1,1.44-4.75,12.48,12.48,0,0,1,2.88-4.07c1.26-1.06,2.93-2,4.72-1.54a2,2,0,0,1,1.4,2.1,5,5,0,0,1-1,2.33l-.22-.15a4.57,4.57,0,0,0-.23-2.26c-.12-.23-.29-.29-.39-.22s-.1.15-.2.22A8.13,8.13,0,0,0,8.7,72.77a22.53,22.53,0,0,0-2.72,3c-.92,1.18-1.85,2.48-3.1,3.89Z"/><path class="cls-2" d="M2.67,79.61a10.82,10.82,0,0,1,.44-5.2,10.58,10.58,0,0,1,2.95-4.63C7.51,68.6,9.5,67.4,12,68.24a2.91,2.91,0,0,1,1.5,1.32,2.67,2.67,0,0,1,.21,1.81A4,4,0,0,1,12,73.64l-.14-.1a4.72,4.72,0,0,0,.86-2.22,1.64,1.64,0,0,0-1.2-1.74c-1.55-.4-3.15.49-4.32,1.53-2.43,2.16-3.71,5.36-4.39,8.53Z"/><path class="cls-11" d="M64.4,47.59a2,2,0,0,1-.51.23.44.44,0,0,1-.4-.07.58.58,0,0,1-.17-.33,4.74,4.74,0,0,1,0-1.07c.06-.68.13-1.35.16-2a20.87,20.87,0,0,0-.21-4,22.08,22.08,0,0,0-2.71-7.54,33.47,33.47,0,0,0-4.88-6.42,51.5,51.5,0,0,0-6-5.45,40.34,40.34,0,0,0-14.23-7.47,25.92,25.92,0,0,0-8-1,16.08,16.08,0,0,0-7.66,2.2l-.19-.3a14.79,14.79,0,0,1,7.75-3.77,24.61,24.61,0,0,1,8.81.14,33.61,33.61,0,0,1,8.32,2.76,45.11,45.11,0,0,1,7.37,4.61,51.88,51.88,0,0,1,6.25,6A31.5,31.5,0,0,1,63,31.38,21.7,21.7,0,0,1,65.14,40a19.73,19.73,0,0,1-.44,4.36c-.16.7-.35,1.38-.55,2a8.47,8.47,0,0,0-.25.89s0,.07-.07,0-.1,0,0,0a1,1,0,0,0,.43-.08Z"/><path class="cls-12" d="M64.35,47.51a1.77,1.77,0,0,1-.47.28.44.44,0,0,1-.39,0,.61.61,0,0,1-.19-.32,6,6,0,0,1-.1-1.08c0-.69,0-1.36,0-2a20.43,20.43,0,0,0-.52-3.92,21.52,21.52,0,0,0-3-7.15A45.59,45.59,0,0,0,48.94,21.87a41.9,41.9,0,0,0-13.72-7.51,25.18,25.18,0,0,0-7.7-1.3,16.9,16.9,0,0,0-7.74,1.51l-.09-.15a16.42,16.42,0,0,1,7.78-2.3,26.4,26.4,0,0,1,8.11.91A41,41,0,0,1,50,20.47,50.85,50.85,0,0,1,56,26a32.91,32.91,0,0,1,4.89,6.54,22.47,22.47,0,0,1,2.69,7.69,20.76,20.76,0,0,1,.17,4.09c0,.68-.1,1.36-.17,2a4.73,4.73,0,0,0,0,1c0,.37.4.16.67,0Z"/><path class="cls-6" d="M96.72,49.83a69.25,69.25,0,0,0,4.38-10.08,18,18,0,0,0,.8-4.69,12.52,12.52,0,0,0-.11-2.14,11,11,0,0,0-.24-1.08c-.07-.23-.21-.66-.34-1a18.29,18.29,0,0,0-2-4.31,17.62,17.62,0,0,0-3-3.72,22.82,22.82,0,0,0-9.21-5v-.36a17.77,17.77,0,0,1,10.85,3.07,19,19,0,0,1,6.72,9.14,14.62,14.62,0,0,1-.91,11.23A31.76,31.76,0,0,1,97,50.08Z"/><g class="cls-4"><path class="cls-13" d="M81.8,29.86c.51-.32.78-1.22.55-3.1-.69-5.65-5.69-1.21-4.38.68.74,1.06,2.22,2.47,3.27,2.55-1.33.69-1.13,3.65.26,3.93,2,.4,6.3.06,2.38-3.14A3.25,3.25,0,0,0,81.8,29.86Z"/><path class="cls-13" d="M68.7,18.92c-.87.52-2.33,2.08.18,1.95S69.58,18.4,68.7,18.92Z"/><path class="cls-13" d="M70.84,15.52c1,.24,1.76-.07.78-2.08-.56-1.14-1.18-1.39-1.69-1.22-1.06,0-2.4,1-2.09,2C68.33,15.65,70,18.19,70.84,15.52Z"/><path class="cls-13" d="M70.85,11.36c.9,0,2.07-.42,1.27-1.22,0-.94-1.65-1.75-2.24-1.07C69,10,67.87,12.5,70.85,11.36Z"/><path class="cls-13" d="M68.11,9.49c-.55-.19-1.76-.26-.79.79S68.66,9.68,68.11,9.49Z"/><path class="cls-13" d="M92.92,40.05c-.21,1.63.29,5.05,2.64,1.74S93.13,38.43,92.92,40.05Z"/><path class="cls-13" d="M52,40.6c.44,1.27,1.4,2.34,2.5,2.22,3-.31,9-2.7,2-5.53a6.61,6.61,0,0,0-.71-.24,1,1,0,0,1,0-.17c-.62-2.42-2.28-1.14-2.49,0a2,2,0,0,0-1.43,1.47,2.18,2.18,0,0,0-.42-.54c-2.91-2.72-10.34-6.55-7.13,2.75C46.74,47.52,51.21,43.94,52,40.6Z"/><path class="cls-13" d="M82.64,15.1c-2-4.39-4.88.45-3.36,1.64S84.6,19.49,82.64,15.1Z"/><path class="cls-13" d="M79.33,22.24c1.51-3.58-3-2.64-2.82-1.08S77.81,25.82,79.33,22.24Z"/><path class="cls-13" d="M57.75,49.27c-3.11.48-4.33,1.68-4.5,3a11,11,0,0,0-3.37.24c-8.88,1.74-1.25,9.15,1.59,6.85a13.79,13.79,0,0,0,2-2.07c.46.31,1.35.22,2.91-.62l0,0a2.71,2.71,0,0,0,2.71-.08C62.24,54.26,67.2,47.81,57.75,49.27Z"/><path class="cls-13" d="M90.09,36.82c-1.61-.63-4.58-1.06-5,.22-1.48-.75-4.23.58-4,2.14a9.44,9.44,0,0,0,.54,2,4,4,0,0,0-.49,0c-.13-.24-.25-.47-.41-.73A5.9,5.9,0,0,0,78,37.78c-.7-1.58-2.19-3.65-3.38-3.47.13-2.05-1.29-3.22-6.22-1.15-9.52,4,.7,10.5,3.35,7.28a14.85,14.85,0,0,0,1.2-1.73c0,1.41.46,2.19,1.09,2.53a2.88,2.88,0,0,0,1,3,14.11,14.11,0,0,0,2.33,1,13.11,13.11,0,0,0,.37,2.75,1.49,1.49,0,0,0,.77,1.79,1.6,1.6,0,0,0,2.48.27,13.83,13.83,0,0,0,1.87-.26c5.23-1,4.61-4,2.69-5.82.65-1.58.51-2.57,0-3.11l.14-.33a7.37,7.37,0,0,0,.31-1.23c.17.24.37.49.6.76C90.62,44.89,92.46,37.74,90.09,36.82Z"/><path class="cls-13" d="M46.19,8.19a9.28,9.28,0,0,0,2,2.26,9.71,9.71,0,0,0,.53,2c1.67,4.47,4.44,2.32,5.06.15a1.16,1.16,0,0,0,.58.42c1.15,2.45,3.16,4.33,4.63-.93.59-2.09.26-3.28-.45-3.86a2.29,2.29,0,0,0,.9-1.5c.31.18.66.36,1.07.55,6,2.69,4.57-4.87,1.93-4.7a9.22,9.22,0,0,0-3.62,1,1.84,1.84,0,0,0-1.35-.84,7.74,7.74,0,0,0-1.18,0,1.64,1.64,0,0,0-1.16-1.27A2.76,2.76,0,0,0,52,1.05c-.3,0-.57,0-.9,0-4.2.26-5.09,2.16-4.52,4a.74.74,0,0,0,0,.63,2.18,2.18,0,0,0,.14.25A2,2,0,0,0,46.19,8.19Zm7.34,2.46s0,0,0,.06l-.05-.07Zm1.76-2.43-.14-.15-.25-.23L55,7.76l.59.31A1.77,1.77,0,0,0,55.29,8.22Z"/><path class="cls-13" d="M30.92,9.36c-2.21,3.23,2.39,3.2,2.57,1.63S33.13,6.13,30.92,9.36Z"/><path class="cls-13" d="M52.85,18.81a2.63,2.63,0,0,0,.48,1.64c-.41,1.35,0,3.15,1.14,3.44a9.58,9.58,0,0,0,2.74.25c.34,1.82,1.18,3.41,2.67,2.36-.3,1.69-.05,3.23,1.62,2.87a2.93,2.93,0,0,0,1.7-.09l0,.07c.83.86,2.61,2,3.13,1.1,1,.56,2.9-.27,2.78-1.34a6.16,6.16,0,0,0-.18-.94c1.24-.61,1.48-1.78-1.39-3.79A6.23,6.23,0,0,0,66,23.55c.77-.16,1.44-.6,1.51-1.24a6.89,6.89,0,0,0,0-1.12c.37-.39.37-1-.32-1.78,1.9-.15,2.32-1.06,2.05-1.94a.73.73,0,0,0-.19-.75l-.14-.11c.28-1.11,0-2-2.18-.88a2.91,2.91,0,0,0-1.11.91,6.45,6.45,0,0,0-.58.59c-.23-.19-.59-.2-1.08,0a1.63,1.63,0,0,0-.49,0,4.25,4.25,0,0,0-.23-1c-.49-1.38-1.22-1.41-1.76-1l0,0c-.66-.26-2.14-.42-1,.92a2,2,0,0,0,.4.35.74.74,0,0,0,0,.26,4.15,4.15,0,0,0-1.87.58l-.23-.12c2.15-4.06-2.58-4.32-4-2.77l0,0a1.68,1.68,0,0,0-.75-1.62A6.78,6.78,0,0,0,50.27,12C48.08,10.55,46,14.81,47.58,16a9,9,0,0,0,2.57,1.31.41.41,0,0,0,.18.13A2.75,2.75,0,0,0,52.85,18.81Zm10.72,3.44a2.53,2.53,0,0,0-1.06.31v-.13a2.86,2.86,0,0,0,.05-1.15,1.28,1.28,0,0,0,.81.52l.23,0A1.93,1.93,0,0,0,63.57,22.25Z"/><path class="cls-13" d="M40.63,13a5.6,5.6,0,0,0,.48-.57c1.46.5,1.17-1.66.37-1.67h0a1.55,1.55,0,0,0-.14-.29,7.16,7.16,0,0,0-1.81-1.74,1.42,1.42,0,0,0,1-1.15c.25.7,1.39.94,2.11.65.75.79,2.73.61,3-.4a5.5,5.5,0,0,0,0-2.39c.19,0,.31-.27.25-.9-.14-1.6-1.58-.4-1.25.15a3.21,3.21,0,0,0-1.27,1c-.15-.69-.61-1-1.63-.18a1.66,1.66,0,0,0-.14-.25c-.73-1-1.21.37-.76.59a1.27,1.27,0,0,0,.39.14A2.41,2.41,0,0,0,40.55,7c-.28-1.18-1.82-2.36-2.76-1.78-1.57,1-4.14,3.72-.34,3.75-.78.42-1.18,1,.21,1.67,0,.13,0,.25,0,.39A5,5,0,0,0,38,12.09C37.84,13.7,38.35,15.28,40.63,13Z"/></g><g class="cls-4"><path class="cls-13" d="M58,36.8c-2.07-4.68-5.28-.32-4.41,1.6l-.38-.31c-.21-.17-.41-.32-.62-.46a2.63,2.63,0,0,0-.71-1.93c1.58-2,1.29-4.09-4.77-4.52a10.86,10.86,0,0,0-2.17.05c0-.84-.51-1.45-1.66-1.6,2.44-.86,3.84-2.57-1-5.07-2.52-1.29-4-1-4.73,0h0a4.89,4.89,0,0,0-2.93-.47,1.53,1.53,0,0,0-.25-.64c-1.71-2.42-6.55-6.35-5.62.93.39,3,1.72,3.78,3,3.47-1.07,3.06-.85,6.23,4.94,3,.2-.11.35-.23.53-.34l.65.23c-6.62,3,1.26,9,3.84,6.47.13-.13.27-.27.4-.42a5.15,5.15,0,0,0,3.71,2.76c-.29,2.25.58,4.85,2.44,5.2,3.67.71,10.91.23,7.5-4.21a1.34,1.34,0,0,0,.35,0,4.58,4.58,0,0,0,.54-.16c1.12.35,2.08.23,2.07-1C59.69,38.53,60,37.56,58,36.8Z"/><path class="cls-13" d="M65.29,24.11c-.73,2.87-.6,9.09,4.34,3.69S66,21.24,65.29,24.11Z"/><path class="cls-13" d="M43.29,48c.55,4.64,4.67,1,3.6-.56S42.74,43.34,43.29,48Z"/><path class="cls-13" d="M32.13,57c.46-.84.52-2.38-.12-5-2.39-9.62-10.09-.86-7.41,2.12,1.63,1.83,4.92,4.21,6.7,3.6a.94.94,0,0,0-.12.56c.23,1.63,1.63,4.79,3,1C35.12,56.68,33.32,56.4,32.13,57Z"/><path class="cls-13" d="M32.2,52c1.18,3.72,4,.09,2.86-1S31,48.27,32.2,52Z"/><path class="cls-13" d="M82.9,20.29c-1-4-5.31-11.6-7.79-1.66S83.9,24.31,82.9,20.29Z"/><path class="cls-13" d="M48,29.51c3.92-1.85-.5-4.4-1.55-3S44.06,31.37,48,29.51Z"/><path class="cls-13" d="M64.6,37c-.72,6,5.56,2.67,4.68.39S65.32,31,64.6,37Z"/><path class="cls-13" d="M63.79,49.19c-.7,1.18.91,1.06.93.5S64.48,48,63.79,49.19Z"/><path class="cls-13" d="M56.52,46.78c-2.89-.32-8.94.7-3,4.74S59.41,47.09,56.52,46.78Z"/><path class="cls-13" d="M44.25,11.47c1.28-.94,3.35-3.56-.54-3S43,12.4,44.25,11.47Z"/><path class="cls-13" d="M65.3,10.53C64,5.44,60,10.14,61.38,11.7S66.63,15.63,65.3,10.53Z"/><path class="cls-13" d="M36.47,22c-.72.36-2,1.51,0,1.56S37.2,21.63,36.47,22Z"/><path class="cls-13" d="M25.33,22.26c-1.85-.64-5.95-.87-2.65,2.65S27.17,22.89,25.33,22.26Z"/><path class="cls-13" d="M36.66,11.43c5.09-1.26.47-5.32-1.11-3.91S31.58,12.69,36.66,11.43Z"/><path class="cls-13" d="M22.17,41.64a14,14,0,0,0-5.89.12c-8.77-4.34-7.16,7.16-3.14,7.08a15,15,0,0,0,4.5-.82C25.32,54,26.14,42.41,22.17,41.64Z"/><path class="cls-13" d="M21.56,28.72c-.68,3.57,3.61,1.94,3.24.35s-1.72-4-2.76-1.87a1.27,1.27,0,0,0-.12-.36c-1.1-2-4.48-5.43-4.39.23C17.59,31.14,20.4,30.27,21.56,28.72Z"/></g><g class="cls-4"><path class="cls-13" d="M11.87,63.94a9.83,9.83,0,0,0-1.5-.21,6.58,6.58,0,0,0-1,0c1-2.46-3.52-3.32-4.2-1.57A6.59,6.59,0,0,0,4.76,66a2.39,2.39,0,0,0-.87,2.33c.91,3.16,4.58,9,6.23,1.07a9.82,9.82,0,0,0,.18-1.3,8,8,0,0,0,2.48-1.8c.83,1.32,2,1.89,2.88-1.31C17,60.2,11.64,62,11.87,63.94Z"/><path class="cls-13" d="M51.08,45.24c-1.94,1.89-4.81,6.81,1.63,4.95S53,43.36,51.08,45.24Z"/><path class="cls-13" d="M30.07,51.93c2.6-1.35,7.1-5.57-.15-5.63-2.12,0-3.19.58-3.61,1.39.29-2.21-3.3-3.52-5-2.57a2,2,0,0,0-.63.08A5.06,5.06,0,0,0,17,44.1c4.55-2.83-1.74-6.37-3.33-4.28s-3.76,7.5,2.19,4.87l-.08.07c-2.5,2.83-6,10,2.8,6.7a5.51,5.51,0,0,0,.65-.27v0a1.72,1.72,0,0,0,.4,1.74,3.22,3.22,0,0,0,0,.54c.18,2.08,1.8,1.07,2,.2a3.25,3.25,0,0,0,2.18-.6A4.55,4.55,0,0,0,24,54.84a12,12,0,0,0-.77.92c-2.06,2.69-.86,4,.76,4.3,1.61,1.71,3.82,2.75,3.57-2a6.48,6.48,0,0,0-.23-1.41.11.11,0,0,0,0,0A9.57,9.57,0,0,0,29.6,56a1,1,0,0,0,.54.47c1.51.42,4.8.42,2-2.25a2.64,2.64,0,0,0-1.46-.83A7.81,7.81,0,0,0,28.82,52,1.68,1.68,0,0,0,30.07,51.93Zm-5.7-.4a10.27,10.27,0,0,0,.1-1.37,5.35,5.35,0,0,0,1.64-1.79,3.89,3.89,0,0,0,1.68,3.13C26.09,50.76,25,50.91,24.37,51.53Z"/><path class="cls-13" d="M48.34,37.93c-3-5.86-6.66,1-4.48,2.5S51.34,43.8,48.34,37.93Z"/><path class="cls-13" d="M81.07,28.32c-2.63,1.23-7.24,5.23-.07,5.57S83.69,27.08,81.07,28.32Z"/><path class="cls-13" d="M28.05,46.12c1.37-1.26-.76-1.74-1-1S26.68,47.38,28.05,46.12Z"/><path class="cls-13" d="M38,40.77c1.22.61,4,1.14,2.07-1.59S36.8,40.17,38,40.77Z"/><path class="cls-13" d="M34,31.66C32,40.43,41.82,36.55,40.9,33S36.1,22.89,34,31.66Z"/><path class="cls-13" d="M24.22,42.46c-2.24,1.33.55,2.6,1.1,1.7S26.47,41.12,24.22,42.46Z"/><path class="cls-13" d="M20,41.8c.07,1.28,1.27.36,1-.09S19.92,40.51,20,41.8Z"/><path class="cls-13" d="M26.92,26.48c.33-1.19.33-3.78-1.77-1.57S26.59,27.67,26.92,26.48Z"/><path class="cls-13" d="M20.49,39c.06-3.94-3.79-1.35-3.07.07S20.43,42.92,20.49,39Z"/><path class="cls-13" d="M24.42,27.41c.18-1.56-.36-4.83-2.56-1.62S24.24,29,24.42,27.41Z"/></g><g class="cls-4"><path class="cls-13" d="M97.72,31.34c-1.25,1.52,1,1.71,1.2.93S99,29.83,97.72,31.34Z"/><path class="cls-13" d="M46.83,40c.89.7,3.1,1.61,2-1S45.93,39.28,46.83,40Z"/><path class="cls-13" d="M63,32.52c-1,1.87-2.08,6.26,2.37,3.37S64.07,30.64,63,32.52Z"/><path class="cls-13" d="M92.58,24.24a9.93,9.93,0,0,0-1,2.32,1.49,1.49,0,0,0,0-.47c-.36-1.75-1.43-4.31-2.71-5.29C91,17.89,88,16.68,86,17.21c-1.31-3.14-4.27-7.26-6.28-4.57a10.23,10.23,0,0,0-.34-1.35c-1.82-5.46-5.88,0-4.2,1.56a6.54,6.54,0,0,0,3.59,1.87c-.14.47-.27,1-.39,1.59-2.83.77-1.69,3-.22,3.77a3.92,3.92,0,0,0,.83,2,1.52,1.52,0,0,0-.17.3,15.07,15.07,0,0,0-1.14,3.86c-2.11-.63-5.1-.67-2.7,2.66l-.07,0C72,31.53,76.41,32.66,77,31.19a3.76,3.76,0,0,0,.13-.4,1.46,1.46,0,0,0,1.61-.51,2.17,2.17,0,0,0,1.3,0,1.3,1.3,0,0,0,1.81-.78,16.29,16.29,0,0,0,1.83-1.21c.38-.3.71-.58,1-.86a2.58,2.58,0,0,0,.8,1.64.53.53,0,0,0-.3.17c-1.48-.63-2.76-.32-1.72,3.05,1.21,3.95,3.75,2.13,4.33.28.59.61,1.49,1,2,.55A6.58,6.58,0,0,0,91,32a1.79,1.79,0,0,0,.29,1.37c1.86,2.41,7,6.23,5.72-1.18a8.06,8.06,0,0,0-.41-1.52c1.48-.44,2.7-1.39,2.77-2.67C99.58,23.94,97.68,15.66,92.58,24.24Zm-1.2,4.33c-.12-.26-.33-.46-.56-.42h0a3.17,3.17,0,0,0,.6-.84A3.71,3.71,0,0,0,91.38,28.57Zm-1.67,1.24a4.91,4.91,0,0,0,.26-.63,2.68,2.68,0,0,0,.47.21c.73.25,1,0,1-.37a2.55,2.55,0,0,0,.58.88,3.9,3.9,0,0,0-.4.51C91.53,30,91,29.69,89.71,29.81Z"/><path class="cls-13" d="M92.51,22c-.56-.61-2.07-1.54-1.54.47S93.08,22.63,92.51,22Z"/><path class="cls-13" d="M67.46,6.88c.78-5.21-4.77-2.47-4.07-.46S66.68,12.1,67.46,6.88Z"/><path class="cls-13" d="M77.67,20.8c-2.42-5.49-6.1.52-4.2,2S80.08,26.3,77.67,20.8Z"/><path class="cls-13" d="M51.23,41.24c.59,3.25,3.64,9.47,6.1,1.7S50.64,38,51.23,41.24Z"/><path class="cls-13" d="M63.12,18.57C65.66,15.48,69,8.08,61.4,10.48c.18-.44.36-.93.54-1.49,2.94-9.26-8-5.89-7.27-2a12.73,12.73,0,0,0,2.48,5.61C52.22,16.56,60.72,21.49,63.12,18.57Z"/><path class="cls-13" d="M67.63,24.81c.5.47,1.79,1.12,1.22-.48S67.12,24.35,67.63,24.81Z"/><path class="cls-13" d="M45.11,30.53c-2.21,2.52-5.25,8.87,2.49,5.94S47.32,28,45.11,30.53Z"/><path class="cls-13" d="M95.34,40.25c-5.55-.17-2,5.3,0,4.31S100.89,40.42,95.34,40.25Z"/><path class="cls-13" d="M84.49,39.05c-2.32-1.61-7.93-3.54-4.73,2.65S86.8,40.65,84.49,39.05Z"/><path class="cls-13" d="M65.92,18c-5.08,4,2.18,6.22,3.24,3.84S71,14.06,65.92,18Z"/></g></g></g></g></g></svg>