<svg xmlns="http://www.w3.org/2000/svg" width="56.21" height="29.82" viewBox="0 0 56.21 29.82"><defs><style>.cls-1{fill:#f3f1db;}.cls-1,.cls-3,.cls-4{fill-rule:evenodd;}.cls-2,.cls-4{fill:#fff;}.cls-3{fill:#f8f7ea;}</style></defs><title>o_tea</title><g id="Layer_2" data-name="Layer 2"><g id="action"><g id="coffee_machiene" data-name="coffee machiene"><path class="cls-1" d="M39.7,20.8l-1.08-9.55,2.76-1.36h0c-.06-.35-.09.81-.09-1.08S41,2.45,44.39,2.45H54.55c1.2,0,1.55.58,1.63,1.79C57,16.42,41.58,23,39.7,20.8ZM42,14.1l.5,4c.53-.1.69-1.15,1-1.24,4.79-1.44,9.39-5.82,9.65-11.21h-7.3L44.58,10l.47,1.58-.21.11.09.56-2.51.62Z"/><rect class="cls-2" x="4.94" width="40.74" height="22.48" rx="1.02"/><path class="cls-3" d="M25.31,22.48V0H44.69a1,1,0,0,1,1,1V21.46a1,1,0,0,1-1,1Z"/><path class="cls-3" d="M6.49,22.48H25.31v3.09H11.53C11.53,24.91,7.11,22.73,6.49,22.48Z"/><path class="cls-1" d="M44.14,22.48H25.31v3.09H39.09C39.09,24.91,43.52,22.73,44.14,22.48Z"/><path class="cls-4" d="M50.63,25.57c0,1.76-3.08,3.2-6.84,3.2H6.84C3.08,28.77,0,27.33,0,25.57Z"/><path class="cls-3" d="M25.31,28.77v-3.2H50.63c0,1.76-3.08,3.2-6.84,3.2Z"/><polygon class="cls-3" points="6.67 28.72 43.96 28.72 41.55 29.82 9.08 29.82 6.67 28.72"/><polygon class="cls-1" points="25.31 29.82 25.31 28.72 43.96 28.72 41.55 29.82 25.31 29.82"/></g></g></g></svg>